<svg width="134" height="26" viewBox="0 0 134 26" fill="none" xmlns="http://www.w3.org/2000/svg">
<path d="M61.6764 5.99755V20.3611C61.6764 21.3884 60.8956 22.1792 59.8734 22.1792C58.8246 22.1792 58.0438 21.3884 58.0438 20.3611V11.7697L54.7069 16.9093C54.1952 17.7001 53.7112 18.0429 52.9847 18.0429C52.2847 18.0429 51.7742 17.7001 51.2625 16.9093L47.9256 11.7176V20.3622C47.9256 21.3895 47.1448 22.1803 46.1226 22.1803C45.0738 22.1803 44.293 21.3895 44.293 20.3622V5.99755C44.293 4.94315 45.0461 4.15234 46.0683 4.15234C46.8491 4.15234 47.3597 4.52117 47.9787 5.52242L52.9836 13.297L57.9884 5.52242C58.6341 4.52117 59.1181 4.15234 59.8989 4.15234C60.9233 4.15343 61.6764 4.94423 61.6764 5.99755Z" fill="#20539E"/>
<path d="M77.8463 14.6422V14.7214C77.8463 15.8279 77.0389 16.5395 75.855 16.5395H68.2675C68.6983 18.1732 70.0439 19.1224 72.0075 19.1224C72.9766 19.1224 73.9722 18.8588 74.7796 18.3587C75.0487 18.2003 75.2913 18.1211 75.5604 18.1211C76.3944 18.1211 77.04 18.7275 77.04 19.5444C77.04 20.1247 76.7709 20.5456 76.1252 20.9676C74.9147 21.7584 73.4617 22.1804 71.9012 22.1804C67.7037 22.1804 64.6094 19.2547 64.6094 15.3539C64.6094 11.4801 67.5963 8.52734 71.5247 8.52734C75.1562 8.52843 77.8463 11.1113 77.8463 14.6422ZM68.2675 14.0358H74.3222C74.2679 12.4814 73.1383 11.3998 71.4427 11.3998C69.8556 11.4009 68.6717 12.4282 68.2675 14.0358Z" fill="#20539E"/>
<path d="M93.9911 3.59955V20.3876C93.9911 21.4149 93.238 22.1796 92.2157 22.1796C91.2744 22.1796 90.4936 21.442 90.4393 20.5188C89.5245 21.5732 88.098 22.1796 86.3759 22.1796C82.6358 22.1796 79.918 19.3072 79.918 15.3531C79.918 11.3991 82.6358 8.52662 86.3759 8.52662C88.0438 8.52662 89.4436 9.10697 90.3584 10.0811V3.59739C90.3584 2.56902 91.1381 1.7793 92.188 1.7793C93.2114 1.78147 93.9911 2.54623 93.9911 3.59955ZM90.4127 15.3542C90.4127 13.2194 89.0405 11.743 87.0492 11.743C85.0579 11.743 83.6049 13.2714 83.6049 15.3271C83.6049 17.4359 85.0313 18.9383 87.0492 18.9383C89.0671 18.9394 90.4127 17.4891 90.4127 15.3542Z" fill="#20539E"/>
<path d="M97.0039 20.3096C96.6539 20.0199 96.4922 19.624 96.4922 19.2031C96.4922 18.3862 97.1644 17.7007 97.9995 17.7007C98.3495 17.7007 98.6718 17.8059 99.0483 18.0966C99.8291 18.7551 100.797 19.2562 101.954 19.2562C102.869 19.2562 103.65 18.9134 103.65 18.1758C103.65 17.5694 103.085 17.3329 102.278 16.9901L100.851 16.4109C98.5909 15.5148 97.2187 14.4865 97.2187 12.4308C97.2187 9.92714 99.2909 8.50391 102.116 8.50391C103.703 8.50391 105.237 9.00507 106.314 9.9011C106.744 10.2179 106.959 10.6388 106.959 11.1139C106.959 11.9307 106.287 12.5903 105.48 12.5903C105.156 12.5903 104.834 12.4319 104.511 12.2214C103.811 11.7474 102.977 11.4306 102.088 11.4306C101.227 11.4306 100.662 11.7203 100.662 12.3527C100.662 12.8799 101.093 13.1435 102.061 13.5123L103.352 14.0395C105.747 14.9887 107.092 15.99 107.092 18.0196C107.092 20.7077 104.805 22.1841 101.899 22.1841C99.9099 22.1808 98.1878 21.4431 97.0039 20.3096Z" fill="#20539E"/>
<path d="M122.324 14.6422V14.7214C122.324 15.8279 121.517 16.5395 120.333 16.5395H112.745C113.176 18.1732 114.52 19.1224 116.485 19.1224C117.453 19.1224 118.45 18.8588 119.256 18.3587C119.525 18.2003 119.768 18.1211 120.037 18.1211C120.871 18.1211 121.517 18.7275 121.517 19.5444C121.517 20.1247 121.247 20.5456 120.602 20.9676C119.391 21.7584 117.938 22.1804 116.378 22.1804C112.18 22.1804 109.086 19.2547 109.086 15.3539C109.086 11.4801 112.073 8.52734 116.001 8.52734C119.634 8.52843 122.324 11.1113 122.324 14.6422ZM112.745 14.0358H118.8C118.746 12.4814 117.616 11.3998 115.92 11.3998C114.333 11.4009 113.149 12.4282 112.745 14.0358Z" fill="#20539E"/>
<path d="M133.999 20.4148C133.999 21.0732 133.649 21.5744 133.084 21.838C132.573 22.0484 131.981 22.1808 131.2 22.1808C127.729 22.1808 125.872 20.4679 125.872 17.2787V11.8233H125.119C124.231 11.8233 123.559 11.1909 123.559 10.3209C123.559 9.45091 124.231 8.81849 125.119 8.81849H125.872V7.02643C125.872 5.99915 126.625 5.23438 127.702 5.23438C128.724 5.23438 129.505 5.99915 129.505 7.02643V8.81849H131.953C132.842 8.81849 133.487 9.45091 133.487 10.3209C133.487 11.1909 132.842 11.8233 131.953 11.8233H129.505V16.963C129.505 18.4123 130.205 18.9926 131.899 18.9926C132.114 18.9926 132.276 18.9666 132.411 18.9666C133.38 18.9655 133.999 19.5448 133.999 20.4148Z" fill="#20539E"/>
<path d="M34.4052 16.104C33.5923 17.9101 32.539 19.5677 31.1181 20.9714C29.2542 22.8101 27.1311 24.1693 24.7112 24.9525C24.2793 25.5795 23.5383 25.9841 22.6911 25.9766C21.3809 25.9614 20.3421 24.9124 20.3653 23.6161C20.3897 22.2221 21.5072 21.2643 22.8096 21.3174C23.2692 21.3359 23.6878 21.466 24.0378 21.683C27.6272 20.2782 30.1612 17.8494 31.5356 14.249C32.1437 12.6533 32.3951 11.0185 32.2899 9.31978C32.1093 6.36701 29.3106 3.77764 26.2074 3.65832C23.3578 3.54767 20.9434 5.32237 20.0419 7.48108C19.8093 8.03648 19.7285 8.65372 19.5878 9.24493C19.4959 9.63219 19.1426 9.90664 18.7362 9.90664H16.9509C16.5444 9.90664 16.1922 9.63219 16.0992 9.24493C15.9585 8.65481 15.8777 8.03648 15.6451 7.48108C14.7436 5.32237 12.3281 3.54767 9.47963 3.65832C6.37639 3.77764 3.57772 6.36701 3.39498 9.31978C3.29198 11.0185 3.54339 12.6533 4.15141 14.249C5.52583 17.8516 8.06312 20.2804 11.6526 21.6852H11.6548C12.0546 21.4313 12.5352 21.2968 13.0458 21.3174C14.3826 21.3728 15.3694 22.3621 15.3494 23.6985C15.3284 24.9818 14.2585 25.9896 12.9273 25.9766C12.1244 25.9679 11.4222 25.5687 11.0047 24.9634C8.57147 24.1802 6.43952 22.8177 4.56783 20.9714C3.14468 19.5688 2.09366 17.9101 1.28075 16.104C0.143338 13.5743 -0.277514 10.8873 0.184316 8.20462C0.899766 4.03039 4.23336 1.00386 8.56261 0.453875C12.296 -0.0223425 15.8478 1.69486 17.8424 4.60424C19.8359 1.69486 23.3877 -0.0223425 27.12 0.453875C31.4504 1.00386 34.7851 4.03039 35.5005 8.20462C35.9623 10.8873 35.5437 13.5743 34.4052 16.104Z" fill="#20539E"/>
</svg>
