<?xml version="1.0" encoding="utf-8"?>
<!-- Generator: Adobe Illustrator 27.1.0, SVG Export Plug-In . SVG Version: 6.00 Build 0)  -->
<svg version="1.1" id="Layer_1" xmlns="http://www.w3.org/2000/svg" xmlns:xlink="http://www.w3.org/1999/xlink" x="0px" y="0px"
	 viewBox="0 0 15 16" style="enable-background:new 0 0 15 16;" xml:space="preserve">
<style type="text/css">
	.st0{fill:#5D586C;}
</style>
<path class="st0" d="M14.5,6L9.7,1C9.1,0.4,8.3,0,7.5,0S5.9,0.4,5.3,1L0.5,6C0.4,6.2,0.2,6.4,0.1,6.7C0,6.9,0,7.2,0,7.5V14
	c0,0.5,0.2,1,0.5,1.4C0.9,15.8,1.4,16,1.9,16h11.2c0.5,0,1-0.2,1.3-0.6C14.8,15,15,14.5,15,14V7.5c0-0.3,0-0.5-0.1-0.8
	S14.6,6.2,14.5,6z M9.4,14.7H5.6V12c0-0.5,0.2-1,0.5-1.4C6.5,10.3,7,10,7.5,10s1,0.2,1.3,0.6C9.2,11,9.4,11.5,9.4,12V14.7z M13.8,14
	c0,0.2-0.1,0.3-0.2,0.5s-0.3,0.2-0.4,0.2h-2.5V12c0-0.9-0.3-1.7-0.9-2.4c-0.6-0.6-1.4-1-2.2-1s-1.6,0.4-2.2,1
	c-0.6,0.6-0.9,1.5-0.9,2.4v2.6H1.9c-0.2,0-0.3-0.1-0.4-0.2c-0.1-0.1-0.2-0.3-0.2-0.5V7.5c0-0.2,0.1-0.3,0.2-0.5l4.7-5.1
	C6.5,1.5,7,1.3,7.5,1.3s1,0.2,1.3,0.6L13.6,7c0.1,0.1,0.2,0.3,0.2,0.5V14z"/>
</svg>
