<svg width="42" height="42" viewBox="0 0 42 42" fill="none" xmlns="http://www.w3.org/2000/svg">
<g clip-path="url(#clip0_207_9299)">
<path d="M42 30.8438L30.0314 21.8613L28.875 21V27.103C24.9622 26.6848 23.1655 24.3469 21.3198 21.8613C21.2954 21.812 21.2461 21.7876 21.2214 21.7383L17.53 16.7917C12.6822 10.2949 9.59766 7.46484 1.23047 7.46484H0V14.8477H1.23047C6.9153 14.8477 9.55664 18.342 12.0176 21.7136C12.0423 21.763 12.0913 21.812 12.116 21.8613H12.1406C12.9036 22.9194 13.6665 23.9531 14.4785 24.7651C18.1699 30.8438 22.9934 34.0923 28.875 34.4858V40.6875L42 30.8438Z" fill="#FFB125"/>
<path d="M28.875 40.6875V34.4858C22.9934 34.0923 18.1699 30.8438 14.4785 24.7651C13.6665 23.9531 12.9036 22.9194 12.1406 21.8613H21.3198C23.1655 24.3469 24.9622 26.6848 28.875 27.103V21L30.0314 21.8613L42 30.8438L28.875 40.6875Z" fill="#FF901D"/>
<path d="M21.1971 21.8613C17.8255 27.3001 12.5261 34.5352 1.23047 34.5352H0V27.1523H1.23047C6.42311 27.1523 9.67969 24.8638 12.116 21.8613H21.1971Z" fill="black"/>
<path d="M42 11.1562L28.875 1.3125V7.51387C23.7561 7.88333 19.4741 10.59 16.4226 15.4135L15.5366 16.8658C14.4538 18.5637 13.3954 20.3111 12.116 21.8613C9.67969 24.8638 6.42311 27.1523 1.23047 27.1523H0V34.5352H1.23047C12.5261 34.5352 17.8255 27.3001 21.1971 21.8613C21.4675 21.4428 21.7136 21.0247 21.9597 20.6309L22.772 19.302C24.4206 16.718 26.4141 15.2905 28.875 14.9214V21L42 11.1562Z" fill="#FED843"/>
</g>
<defs>
<clipPath id="clip0_207_9299">
<rect width="42" height="42" fill="white"/>
</clipPath>
</defs>
</svg>
