<svg width="25" height="25" viewBox="0 0 25 25" fill="none" xmlns="http://www.w3.org/2000/svg">
<path fill-rule="evenodd" clip-rule="evenodd" d="M5.41701 15.8077C3.95298 16.0972 2.89798 17.3818 2.89828 18.8744L2.89828 21.3747C2.89828 21.7199 3.1781 21.9998 3.52327 21.9998L6.02326 21.9998C7.51564 22.0001 8.79996 20.9449 9.08949 19.4807L9.51823 19.4657C10.2432 19.4407 10.9532 19.3657 11.6482 19.2444L11.6482 23.8751C11.6483 24.0825 11.7512 24.2764 11.9231 24.3927C12.0949 24.5089 12.3132 24.5323 12.5057 24.4551L18.7557 21.9548C18.9927 21.8598 19.1481 21.6301 19.1482 21.3747L19.1482 15.7489C19.1482 15.7177 19.1457 15.6864 19.1407 15.6552C23.2334 12.0773 25.1334 6.60411 24.1381 1.25939C24.0907 1.005 23.8914 0.806169 23.6369 0.759322C18.2925 -0.233468 12.8207 1.66517 9.23949 5.75502C9.20929 5.75031 9.17879 5.7478 9.14824 5.74752L3.52327 5.74752C3.26791 5.74758 3.03827 5.90301 2.94328 6.14007L0.443295 12.3909C0.366129 12.5835 0.389523 12.8018 0.505741 12.9737C0.621959 13.1455 0.815854 13.2485 1.02329 13.2486L5.65451 13.2486C5.53076 13.9524 5.45701 14.665 5.43201 15.3789L5.41701 15.8077V15.8077ZM5.77968 17.0154L7.88217 19.1181C7.75982 20.0515 6.96461 20.7495 6.02343 20.7496L4.14845 20.7496L4.14845 18.8744C4.14862 17.933 4.84649 17.1377 5.77968 17.0154V17.0154ZM5.92718 11.9985L1.94721 11.9985L3.9472 6.99776L8.25717 6.99776C7.18433 8.50991 6.39487 10.2043 5.92718 11.9985V11.9985ZM12.8984 18.9744C14.6928 18.5041 16.3869 17.712 17.8984 16.6365L17.8984 20.9496L12.8984 22.9499L12.8984 18.9744ZM6.65704 16.124L6.68204 15.4226C6.70579 14.72 6.78204 14.0224 6.90954 13.3311C8.30703 5.78501 15.4482 0.751809 22.9807 1.91447C23.0657 2.46455 23.1182 3.01963 23.1369 3.5772C23.4069 11.392 17.2895 17.9467 9.47452 18.2168L8.77328 18.2405L6.65704 16.124V16.124ZM11.6483 9.49809C11.6483 11.5694 13.3272 13.2486 15.3982 13.2486C17.4693 13.2486 19.1482 11.5694 19.1482 9.49809C19.1482 7.42673 17.4693 5.74757 15.3982 5.74757C13.3272 5.74757 11.6483 7.42673 11.6483 9.49809ZM12.8984 9.49811C12.8984 8.11721 14.0177 6.99776 15.3984 6.99776C16.7791 6.99776 17.8984 8.11721 17.8984 9.49811C17.8984 10.879 16.7791 11.9985 15.3984 11.9985C14.0177 11.9985 12.8984 10.879 12.8984 9.49811Z" fill="#62E2A6"/>
<path d="M2.89828 18.8744L3.14828 18.8743L3.14828 18.8744L2.89828 18.8744ZM6.02326 21.9998L6.02326 21.7498L6.02331 21.7498L6.02326 21.9998ZM9.08949 19.4807L8.84423 19.4322L8.88268 19.2378L9.08074 19.2308L9.08949 19.4807ZM9.51823 19.4657L9.50949 19.2158L9.50962 19.2158L9.51823 19.4657ZM11.6482 19.2444L11.6052 18.9981L11.8982 18.947L11.8982 19.2444L11.6482 19.2444ZM11.6482 23.8751L11.3982 23.8751L11.3982 23.8751L11.6482 23.8751ZM11.9231 24.3927L11.783 24.5997L11.9231 24.3927ZM12.5057 24.4551L12.4127 24.2231L12.4129 24.223L12.5057 24.4551ZM18.7557 21.9548L18.8487 22.1868L18.8485 22.1869L18.7557 21.9548ZM19.1482 21.3747L19.3982 21.3747L19.3982 21.3748L19.1482 21.3747ZM19.1407 15.6552L18.8938 15.6946L18.872 15.558L18.9761 15.4669L19.1407 15.6552ZM24.1381 1.25939L24.3839 1.21353L24.3839 1.21362L24.1381 1.25939ZM23.6369 0.759322L23.5916 1.00519L23.5912 1.00512L23.6369 0.759322ZM9.23949 5.75502L9.42757 5.91972L9.33691 6.02324L9.20095 6.00203L9.23949 5.75502ZM9.14824 5.74752L9.14824 5.49751L9.15056 5.49753L9.14824 5.74752ZM3.52327 5.74752L3.52321 5.49752L3.52327 5.49752L3.52327 5.74752ZM2.94328 6.14007L2.71115 6.04724L2.71122 6.04709L2.94328 6.14007ZM0.443295 12.3909L0.675419 12.4838L0.675358 12.4839L0.443295 12.3909ZM1.02329 13.2486L1.02329 13.4986L1.02323 13.4986L1.02329 13.2486ZM5.65451 13.2486L5.65451 12.9986L5.9523 12.9986L5.90073 13.2919L5.65451 13.2486ZM5.43201 15.3789L5.18216 15.3701L5.18216 15.3701L5.43201 15.3789ZM5.41701 15.8077L5.66686 15.8164L5.65993 16.0145L5.46552 16.0529L5.41701 15.8077ZM7.88217 19.1181L8.05896 18.9414L8.14606 19.0285L8.13005 19.1506L7.88217 19.1181ZM6.02343 20.7496L6.02348 20.9996L6.02343 20.9996L6.02343 20.7496ZM4.14845 20.7496L4.14845 20.9996L3.89845 20.9996L3.89845 20.7496L4.14845 20.7496ZM4.14845 18.8744L3.89845 18.8744L3.89845 18.8743L4.14845 18.8744ZM1.94721 11.9985L1.94721 12.2485L1.57797 12.2485L1.71509 11.9056L1.94721 11.9985ZM3.9472 6.99776L3.71507 6.90493L3.77793 6.74776L3.9472 6.74776L3.9472 6.99776ZM8.25717 6.99776L8.25717 6.74776L8.74107 6.74776L8.46106 7.14242L8.25717 6.99776ZM5.92718 11.9985L6.1691 12.0615L6.12037 12.2485L5.92718 12.2485L5.92718 11.9985ZM12.8984 18.9744L12.6484 18.9744L12.6484 18.7814L12.835 18.7325L12.8984 18.9744ZM17.8984 16.6365L17.7534 16.4328L18.1484 16.1518L18.1484 16.6365L17.8984 16.6365ZM17.8984 20.9496L18.1484 20.9496L18.1484 21.1189L17.9912 21.1817L17.8984 20.9496ZM12.8984 22.9499L12.9913 23.182L12.6484 23.3192L12.6484 22.9499L12.8984 22.9499ZM6.68204 15.4226L6.9319 15.4311L6.93188 15.4315L6.68204 15.4226ZM6.90954 13.3311L6.66368 13.2857L6.66372 13.2855L6.90954 13.3311ZM22.9807 1.91447L23.0188 1.6674L23.1998 1.69533L23.2277 1.87629L22.9807 1.91447ZM23.1369 3.5772L22.8871 3.58584L22.8871 3.58561L23.1369 3.5772ZM9.47452 18.2168L9.48316 18.4666L9.48299 18.4666L9.47452 18.2168ZM8.77328 18.2405L8.78174 18.4904L8.67324 18.494L8.59649 18.4173L8.77328 18.2405ZM11.6483 9.49809L11.3983 9.49809V9.49809L11.6483 9.49809ZM19.1482 9.49809L19.3982 9.49809V9.49809L19.1482 9.49809ZM5.46552 16.0529C4.11863 16.3193 3.148 17.5011 3.14828 18.8743L2.64828 18.8744C2.64796 17.2624 3.78733 15.8752 5.3685 15.5624L5.46552 16.0529ZM3.14828 18.8744L3.14828 21.3747L2.64828 21.3747L2.64828 18.8744L3.14828 18.8744ZM3.14828 21.3747C3.14828 21.5819 3.3162 21.7498 3.52327 21.7498L3.52327 22.2498C3.03999 22.2498 2.64828 21.858 2.64828 21.3747L3.14828 21.3747ZM3.52327 21.7498L6.02326 21.7498L6.02326 22.2498L3.52327 22.2498L3.52327 21.7498ZM6.02331 21.7498C7.39627 21.7501 8.57787 20.7793 8.84423 19.4322L9.33474 19.5292C9.02206 21.1105 7.63501 22.2501 6.02321 22.2498L6.02331 21.7498ZM9.08074 19.2308L9.50949 19.2158L9.52698 19.7155L9.09823 19.7305L9.08074 19.2308ZM9.50962 19.2158C10.223 19.1912 10.9215 19.1174 11.6052 18.9981L11.6912 19.4907C10.985 19.6139 10.2635 19.6901 9.52685 19.7155L9.50962 19.2158ZM11.8982 19.2444L11.8982 23.8751L11.3982 23.8751L11.3982 19.2444L11.8982 19.2444ZM11.8982 23.875C11.8982 23.9995 11.96 24.1159 12.0631 24.1856L11.783 24.5997C11.5424 24.437 11.3983 24.1655 11.3982 23.8751L11.8982 23.875ZM12.0631 24.1856C12.1662 24.2553 12.2972 24.2694 12.4127 24.2231L12.5987 24.6872C12.3291 24.7952 12.0235 24.7625 11.783 24.5997L12.0631 24.1856ZM12.4129 24.223L18.6628 21.7227L18.8485 22.1869L12.5986 24.6873L12.4129 24.223ZM18.6627 21.7227C18.8049 21.6657 18.8981 21.5279 18.8982 21.3746L19.3982 21.3748C19.3981 21.7323 19.1805 22.0538 18.8487 22.1868L18.6627 21.7227ZM18.8982 21.3747L18.8982 15.7489L19.3982 15.7489L19.3982 21.3747L18.8982 21.3747ZM18.8982 15.7489C18.8982 15.7311 18.8967 15.713 18.8938 15.6946L19.3875 15.6157C19.3946 15.6598 19.3982 15.7043 19.3982 15.7489L18.8982 15.7489ZM18.9761 15.4669C23.0024 11.9472 24.8715 6.56302 23.8924 1.30516L24.3839 1.21362C25.3954 6.6452 23.4645 12.2073 19.3052 15.8434L18.9761 15.4669ZM23.8924 1.30526C23.8639 1.15259 23.7443 1.0333 23.5916 1.00519L23.6822 0.513454C24.0384 0.579042 24.3174 0.857411 24.3839 1.21353L23.8924 1.30526ZM23.5912 1.00512C18.3337 0.0284465 12.9507 1.89625 9.42757 5.91972L9.0514 5.59033C12.6908 1.43409 18.2514 -0.495383 23.6826 0.513527L23.5912 1.00512ZM9.20095 6.00203C9.18274 5.99919 9.16435 5.99768 9.14592 5.99751L9.15056 5.49753C9.19324 5.49793 9.23584 5.50143 9.27802 5.50801L9.20095 6.00203ZM9.14824 5.99752L3.52327 5.99752L3.52327 5.49752L9.14824 5.49752L9.14824 5.99752ZM3.52333 5.99752C3.37014 5.99756 3.23235 6.0908 3.17534 6.23306L2.71122 6.04709C2.8442 5.71521 3.16569 5.4976 3.52321 5.49752L3.52333 5.99752ZM3.1754 6.23291L0.675419 12.4838L0.211171 12.2981L2.71115 6.04724L3.1754 6.23291ZM0.675358 12.4839C0.629049 12.5995 0.643091 12.7305 0.71283 12.8336L0.298652 13.1137C0.135956 12.8732 0.103208 12.5675 0.211232 12.298L0.675358 12.4839ZM0.71283 12.8336C0.782568 12.9368 0.898904 12.9985 1.02335 12.9986L1.02323 13.4986C0.732804 13.4985 0.46135 13.3543 0.298652 13.1137L0.71283 12.8336ZM1.02329 12.9986L5.65451 12.9986L5.65451 13.4986L1.02329 13.4986L1.02329 12.9986ZM5.90073 13.2919C5.77903 13.9841 5.70646 14.6851 5.68186 15.3876L5.18216 15.3701C5.20756 14.6449 5.28249 13.9208 5.40829 13.2053L5.90073 13.2919ZM5.68186 15.3876L5.66686 15.8164L5.16716 15.7989L5.18216 15.3701L5.68186 15.3876ZM5.95647 16.8386L8.05896 18.9414L7.70538 19.2949L5.60289 17.1921L5.95647 16.8386ZM8.13005 19.1506C7.99139 20.2084 7.09018 20.9994 6.02348 20.9996L6.02339 20.4996C6.83904 20.4995 7.52825 19.8946 7.63429 19.0857L8.13005 19.1506ZM6.02343 20.9996L4.14845 20.9996L4.14845 20.4996L6.02343 20.4996L6.02343 20.9996ZM3.89845 20.7496L3.89845 18.8744L4.39845 18.8744L4.39845 20.7496L3.89845 20.7496ZM3.89845 18.8743C3.89864 17.8075 4.68954 16.9062 5.74718 16.7675L5.81219 17.2632C5.00345 17.3693 4.39859 18.0586 4.39845 18.8744L3.89845 18.8743ZM5.92718 12.2485L1.94721 12.2485L1.94721 11.7485L5.92718 11.7485L5.92718 12.2485ZM1.71509 11.9056L3.71507 6.90493L4.17932 7.0906L2.17934 12.0913L1.71509 11.9056ZM3.9472 6.74776L8.25717 6.74776L8.25717 7.24776L3.9472 7.24776L3.9472 6.74776ZM8.46106 7.14242C7.40573 8.62989 6.62916 10.2966 6.1691 12.0615L5.68527 11.9354C6.16059 10.1119 6.96293 8.38992 8.05327 6.8531L8.46106 7.14242ZM12.835 18.7325C14.6001 18.27 16.2666 17.4908 17.7534 16.4328L18.0433 16.8402C16.5072 17.9333 14.7854 18.7383 12.9618 19.2162L12.835 18.7325ZM18.1484 16.6365L18.1484 20.9496L17.6484 20.9496L17.6484 16.6365L18.1484 16.6365ZM17.9912 21.1817L12.9913 23.182L12.8055 22.7178L17.8055 20.7175L17.9912 21.1817ZM12.6484 22.9499L12.6484 18.9744L13.1484 18.9744L13.1484 22.9499L12.6484 22.9499ZM6.4072 16.1151L6.4322 15.4137L6.93188 15.4315L6.90688 16.1329L6.4072 16.1151ZM6.43218 15.4142C6.45636 14.6991 6.53396 13.9891 6.66368 13.2857L7.15539 13.3764C7.03012 14.0557 6.95523 14.741 6.9319 15.4311L6.43218 15.4142ZM6.66372 13.2855C8.08588 5.60625 15.3531 0.48417 23.0188 1.6674L22.9425 2.16155C15.5433 1.01945 8.52817 5.96377 7.15536 13.3766L6.66372 13.2855ZM23.2277 1.87629C23.3143 2.4361 23.3677 3.00112 23.3868 3.5688L22.8871 3.58561C22.8687 3.03813 22.8171 2.49299 22.7336 1.95265L23.2277 1.87629ZM23.3868 3.56857C23.6615 11.5214 17.4361 18.1918 9.48316 18.4666L9.46589 17.9669C17.1429 17.7016 23.1523 11.2627 22.8871 3.58584L23.3868 3.56857ZM9.48299 18.4666L8.78174 18.4904L8.76481 17.9906L9.46606 17.9669L9.48299 18.4666ZM8.59649 18.4173L6.48025 16.3007L6.83383 15.9472L8.95007 18.0637L8.59649 18.4173ZM11.8983 9.49809C11.8983 11.4314 13.4653 12.9986 15.3982 12.9986L15.3982 13.4986C13.1891 13.4986 11.3983 11.7075 11.3983 9.49809L11.8983 9.49809ZM15.3982 12.9986C17.3312 12.9986 18.8982 11.4314 18.8982 9.49809L19.3982 9.49809C19.3982 11.7075 17.6074 13.4986 15.3982 13.4986L15.3982 12.9986ZM18.8982 9.49809C18.8982 7.56477 17.3312 5.99757 15.3982 5.99757L15.3982 5.49757C17.6074 5.49757 19.3982 7.2887 19.3982 9.49809L18.8982 9.49809ZM15.3982 5.99757C13.4653 5.99757 11.8983 7.56477 11.8983 9.49809L11.3983 9.49809C11.3983 7.2887 13.1891 5.49757 15.3982 5.49757L15.3982 5.99757ZM12.6484 9.49811C12.6484 7.97917 13.8796 6.74776 15.3984 6.74776L15.3984 7.24776C14.1558 7.24776 13.1484 8.25524 13.1484 9.49811L12.6484 9.49811ZM15.3984 6.74776C16.9172 6.74776 18.1484 7.97917 18.1484 9.49811L17.6484 9.49811C17.6484 8.25524 16.641 7.24776 15.3984 7.24776L15.3984 6.74776ZM18.1484 9.49811C18.1484 11.0171 16.9172 12.2485 15.3984 12.2485L15.3984 11.7485C16.641 11.7485 17.6484 10.741 17.6484 9.49811L18.1484 9.49811ZM15.3984 12.2485C13.8796 12.2485 12.6484 11.0171 12.6484 9.49811L13.1484 9.49811C13.1484 10.741 14.1558 11.7485 15.3984 11.7485L15.3984 12.2485Z" fill="#62E2A6"/>
</svg>
