<svg width="18" height="18" viewBox="0 0 18 18" fill="none" xmlns="http://www.w3.org/2000/svg">
<path d="M15.8045 8.00413L14.1112 6.52249C14.4605 6.06108 14.6665 5.50984 14.6665 4.91661C14.6665 3.30839 13.1712 2 11.3333 2C9.4953 2 8 3.30839 8 4.91661C8 6.52482 9.4953 7.83321 11.3333 7.83321C12.0112 7.83321 12.6412 7.65297 13.1686 7.34731L14.8619 8.82894C15.1225 9.05702 15.5438 9.05702 15.8045 8.82894C16.0652 8.60086 16.0652 8.2322 15.8045 8.00413ZM11.3333 6.66657C10.2306 6.66657 9.33331 5.88142 9.33331 4.91661C9.33331 3.95179 10.2306 3.16664 11.3333 3.16664C12.4359 3.16664 13.3332 3.95179 13.3332 4.91661C13.3332 5.88142 12.4359 6.66657 11.3333 6.66657Z" fill="#20539E"/>
<path d="M15.8045 8.00413L14.1112 6.52249C14.4605 6.06108 14.6665 5.50984 14.6665 4.91661C14.6665 3.30839 13.1712 2 11.3333 2C9.4953 2 8 3.30839 8 4.91661C8 6.52482 9.4953 7.83321 11.3333 7.83321C12.0112 7.83321 12.6412 7.65297 13.1686 7.34731L14.8619 8.82894C15.1225 9.05702 15.5438 9.05702 15.8045 8.82894C16.0652 8.60086 16.0652 8.2322 15.8045 8.00413ZM11.3333 6.66657C10.2306 6.66657 9.33331 5.88142 9.33331 4.91661C9.33331 3.95179 10.2306 3.16664 11.3333 3.16664C12.4359 3.16664 13.3332 3.95179 13.3332 4.91661C13.3332 5.88142 12.4359 6.66657 11.3333 6.66657Z" fill="white" fill-opacity="0.2"/>
<path d="M13 9.13953L12.6028 8.76039C12.1444 8.91788 11.6617 8.99954 11.1667 8.99954C8.80778 8.99954 6.88889 7.16799 6.88889 4.91648C6.88889 3.77322 7.38389 2.74078 8.17833 2H3.83333C2.825 2 2 2.78745 2 3.74989V12.2077C2 12.7793 2.81828 13.6659 3.83333 13.6659H5.66667V15.5616C5.66667 15.9419 6.14211 16.1385 6.43056 15.8883L7.5 14.9783L8.56944 15.8883C8.84811 16.135 9.33333 15.9483 9.33333 15.5616V13.6659H12.3889C12.725 13.6659 13 13.4034 13 13.0826C13 12.4077 13 9.46326 13 9.13953ZM5.66667 12.4993H3.83333C3.49722 12.4993 3.22222 12.2368 3.22222 11.916C3.22222 11.5952 3.49722 11.3327 3.83333 11.3327H5.66667V12.4993ZM11.7778 12.4993H9.33333V11.3327H11.7778V12.4993Z" fill="#20539E"/>
<path d="M13 9.13953L12.6028 8.76039C12.1444 8.91788 11.6617 8.99954 11.1667 8.99954C8.80778 8.99954 6.88889 7.16799 6.88889 4.91648C6.88889 3.77322 7.38389 2.74078 8.17833 2H3.83333C2.825 2 2 2.78745 2 3.74989V12.2077C2 12.7793 2.81828 13.6659 3.83333 13.6659H5.66667V15.5616C5.66667 15.9419 6.14211 16.1385 6.43056 15.8883L7.5 14.9783L8.56944 15.8883C8.84811 16.135 9.33333 15.9483 9.33333 15.5616V13.6659H12.3889C12.725 13.6659 13 13.4034 13 13.0826C13 12.4077 13 9.46326 13 9.13953ZM5.66667 12.4993H3.83333C3.49722 12.4993 3.22222 12.2368 3.22222 11.916C3.22222 11.5952 3.49722 11.3327 3.83333 11.3327H5.66667V12.4993ZM11.7778 12.4993H9.33333V11.3327H11.7778V12.4993Z" fill="white" fill-opacity="0.2"/>
</svg>
