<svg width="42" height="42" viewBox="0 0 42 42" fill="none" xmlns="http://www.w3.org/2000/svg">
<circle cx="21" cy="21" r="20.5" fill="#EEF3FA" stroke="#C2D3EC"/>
<g clip-path="url(#clip0_184_21267)">
<path d="M21.8125 24.5059V26.6197C21.8125 27.5728 22.1481 28.4955 22.7604 29.2259L25.0504 31.9576C25.3003 32.2556 25.6693 32.4278 26.0583 32.4278C26.884 32.4278 27.5055 31.6756 27.3498 30.8647L26.1287 24.5059H21.8125V24.5059Z" fill="#38648C"/>
<path opacity="0.1" d="M26.8122 28.0654L26.1286 24.5059H21.8125V26.6197C21.8125 26.756 21.8201 26.8916 21.8337 27.0262C22.339 27.3293 22.9299 27.5044 23.5621 27.5044C23.7028 27.5044 23.8414 27.4954 23.9776 27.4783C24.1573 27.4557 24.3404 27.4838 24.5025 27.5645C25.1456 27.8847 25.8891 28.068 26.6818 28.068C26.7255 28.0679 26.7688 28.0665 26.8122 28.0654Z" fill="black"/>
<path d="M27.0083 27.5037C29.4485 27.5037 31.4267 25.7715 31.4267 23.6347C31.4267 21.4979 29.4485 19.7656 27.0083 19.7656C24.568 19.7656 22.5898 21.4979 22.5898 23.6347C22.5898 25.7715 24.568 27.5037 27.0083 27.5037Z" fill="#76B7EB"/>
<path opacity="0.1" d="M27.0082 19.7656C24.568 19.7656 22.5898 21.4979 22.5898 23.6349C22.5898 25.0644 23.4758 26.3119 24.7924 26.9818C25.3132 26.7768 25.771 26.4464 26.1274 26.0267C26.3266 25.7921 26.6237 25.6684 26.9314 25.669C26.9332 25.669 26.935 25.669 26.9367 25.669C27.7623 25.669 28.515 25.358 29.0848 24.8471C29.3147 24.6409 29.6294 24.5631 29.9319 24.6255C30.3826 24.7185 30.8511 24.7001 31.2951 24.573C31.3806 24.2726 31.4267 23.9584 31.4267 23.6348C31.4266 21.4979 29.4484 19.7656 27.0082 19.7656Z" fill="black"/>
<path opacity="0.1" d="M23.2769 25.709H30.7393C30.8992 25.4887 31.0342 25.2533 31.1413 25.0059H22.875C22.982 25.2534 23.117 25.4888 23.2769 25.709Z" fill="black"/>
<path d="M31.5307 17.5913C31.5628 17.3646 31.5713 17.1302 31.5532 16.8907C31.4367 15.3459 30.2103 14.0891 28.669 13.9332C28.4253 13.9085 28.1867 13.9118 27.9557 13.9397C27.6798 13.9731 27.4153 13.8083 27.3388 13.5411C26.928 12.1067 25.6076 11.0567 24.0411 11.0567C23.4669 11.0567 22.9259 11.1979 22.4505 11.4474C22.0395 11.663 21.5308 11.5412 21.2579 11.1658C20.5561 10.2002 19.4182 9.57227 18.133 9.57227C16.5841 9.57227 15.2489 10.4842 14.6333 11.8002C14.4473 12.1979 14.0527 12.4494 13.6137 12.4475C13.6083 12.4475 13.603 12.4474 13.5976 12.4474C11.5827 12.4474 9.94926 14.0808 9.94926 16.0957C9.94926 16.1909 9.95301 16.2851 9.96032 16.3783C9.98441 16.6864 9.8953 16.9927 9.69862 17.2311C9.26554 17.7559 9.00384 18.4273 9.00004 19.16C8.99123 20.8519 10.4239 22.236 12.1159 22.236H14.8766C15.4964 22.236 16.0652 22.609 16.2841 23.1889C16.6692 24.2095 17.6551 24.9354 18.8105 24.9354C19.1664 24.9354 19.506 24.8664 19.817 24.7411C20.1284 24.6157 20.4886 24.7011 20.7143 24.9495C21.3301 25.6273 22.2183 26.053 23.2062 26.053C24.2348 26.053 25.1553 25.5914 25.7728 24.8643C25.972 24.6298 26.2691 24.5061 26.5768 24.5066C26.5786 24.5066 26.5803 24.5066 26.5821 24.5066C27.4077 24.5066 28.1604 24.1957 28.7302 23.6847C28.96 23.4786 29.2748 23.4008 29.5772 23.4632C30.5583 23.6656 31.6256 23.3466 32.3352 22.5063C33.2052 21.476 33.2229 19.9499 32.379 18.8983C32.2222 18.703 32.0465 18.5351 31.8571 18.3938C31.6076 18.2078 31.487 17.8994 31.5307 17.5913Z" fill="#F28B74"/>
<path opacity="0.1" d="M20.7142 24.9482C21.33 25.626 22.2182 26.0517 23.206 26.0517C24.2248 26.0517 25.1375 25.5989 25.7548 24.8838C25.9588 24.6475 26.2507 24.5053 26.5629 24.5053H26.582C27.2707 24.5053 27.9083 24.2883 28.4317 23.9199C27.9816 23.8206 27.5688 23.6856 27.2638 23.5602C26.9644 23.4371 26.6286 23.445 26.3342 23.5795C24.5156 24.41 22.6845 23.9991 21.8536 22.9493C21.5092 22.514 20.9711 22.2676 20.4173 22.304C18.7964 22.4105 17.8267 21.1447 17.3538 20.2325C17.2172 19.9692 16.9963 19.756 16.7215 19.6444C15.521 19.1568 15.4934 17.7377 15.6324 16.7004C15.6806 16.341 15.594 15.9725 15.3796 15.68C14.394 14.3353 15.1095 11.5742 16.1827 10.0996C15.5094 10.4946 14.966 11.0875 14.6333 11.7989C14.4473 12.1966 14.0527 12.4481 13.6137 12.4462C13.6083 12.4462 13.603 12.4461 13.5976 12.4461C11.5827 12.4461 9.94926 14.0795 9.94926 16.0944C9.94926 16.1895 9.95301 16.2838 9.96032 16.377C9.98441 16.6851 9.89535 16.9914 9.69866 17.2297C9.26554 17.7545 9.00384 18.4259 9.00004 19.1586C8.99123 20.8505 10.424 22.2346 12.1159 22.2346H14.8766C15.4965 22.2346 16.0652 22.6076 16.2841 23.1875C16.6692 24.2081 17.6551 24.934 18.8105 24.934C19.1664 24.934 19.506 24.865 19.817 24.7398C20.1282 24.6145 20.4884 24.6998 20.7142 24.9482Z" fill="black"/>
<g opacity="0.1">
<path opacity="0.1" d="M17.4258 17.6714C17.2316 17.6714 17.0742 17.514 17.0742 17.3198C17.0742 17.1256 17.2316 16.9683 17.4258 16.9683C18.482 16.9683 19.3413 16.109 19.3413 15.0527C19.3413 14.8585 19.4987 14.7012 19.6929 14.7012C19.8871 14.7012 20.0444 14.8585 20.0444 15.0527C20.0445 16.4966 18.8697 17.6714 17.4258 17.6714Z" fill="black"/>
<path opacity="0.1" d="M20.8563 19.1383C20.6666 19.1383 20.5103 18.9871 20.5051 18.7963C20.4807 17.9046 19.8549 17.1548 18.983 16.9732C18.7929 16.9335 18.671 16.7474 18.7106 16.5573C18.7502 16.3672 18.9364 16.2451 19.1265 16.2849C20.3187 16.5333 21.1746 17.5582 21.2079 18.7771C21.2132 18.9712 21.0601 19.1329 20.866 19.1381C20.8628 19.1382 20.8595 19.1383 20.8563 19.1383Z" fill="black"/>
<path opacity="0.1" d="M14.4178 19.9759C14.2281 19.9759 14.0718 19.8247 14.0666 19.6339C14.0575 19.3002 13.919 18.99 13.6766 18.7604C13.4341 18.5308 13.117 18.409 12.783 18.4185C12.5894 18.424 12.4274 18.2708 12.422 18.0766C12.4167 17.8826 12.5698 17.721 12.7639 17.7157C13.8409 17.6848 14.7401 18.5382 14.7695 19.6148C14.7747 19.8089 14.6217 19.9704 14.4276 19.9757C14.4244 19.9758 14.4211 19.9759 14.4178 19.9759Z" fill="black"/>
<path opacity="0.1" d="M16.4451 13.7425C16.2854 13.7425 16.1408 13.633 16.103 13.4707C16.0589 13.2817 16.1764 13.0926 16.3655 13.0485C16.7297 12.9635 17.0102 12.6579 17.0635 12.2878C17.0912 12.0956 17.2697 11.9625 17.4616 11.9899C17.6537 12.0176 17.7871 12.1958 17.7595 12.388C17.6652 13.0424 17.1692 13.5831 16.5252 13.7333C16.4984 13.7395 16.4715 13.7425 16.4451 13.7425Z" fill="black"/>
<path opacity="0.1" d="M24.4023 17.2532C24.251 17.2532 24.1112 17.1547 24.0656 17.0023C24.01 16.8162 24.1157 16.6204 24.3017 16.5647C24.6216 16.4691 24.8851 16.2546 25.0437 15.9607C25.2022 15.6669 25.2368 15.3289 25.1412 15.009C25.0856 14.823 25.1913 14.6271 25.3773 14.5715C25.5636 14.5158 25.7592 14.6216 25.8148 14.8076C25.9643 15.3074 25.9101 15.8355 25.6624 16.2947C25.4147 16.7538 25.003 17.0889 24.5031 17.2384C24.4695 17.2484 24.4356 17.2532 24.4023 17.2532Z" fill="black"/>
<path opacity="0.1" d="M28.035 22.2479C27.8408 22.2479 27.6834 22.0905 27.6834 21.8963C27.6834 21.2287 27.1403 20.6855 26.4727 20.6855C26.2785 20.6855 26.1211 20.5282 26.1211 20.334C26.1211 20.1398 26.2785 19.9824 26.4727 19.9824C27.528 19.9824 28.3866 20.841 28.3866 21.8963C28.3866 22.0905 28.2292 22.2479 28.035 22.2479Z" fill="black"/>
<path opacity="0.1" d="M22.749 23.1377C22.5548 23.1377 22.3974 22.9803 22.3974 22.7861C22.3974 22.3731 22.0614 22.0371 21.6484 22.0371C21.4542 22.0371 21.2969 21.8797 21.2969 21.6855C21.2969 21.4914 21.4542 21.334 21.6484 21.334C22.4491 21.334 23.1005 21.9854 23.1005 22.7861C23.1005 22.9803 22.9432 23.1377 22.749 23.1377Z" fill="black"/>
<path opacity="0.1" d="M27.34 20.9473C27.3024 20.9473 27.2642 20.9412 27.2266 20.9284C27.0429 20.8659 26.9446 20.6661 27.0071 20.4823C27.2712 19.7067 27.9995 19.1855 28.8193 19.1855C29.0135 19.1855 29.1708 19.3429 29.1708 19.5371C29.1708 19.7313 29.0135 19.8887 28.8193 19.8887C28.3006 19.8887 27.8398 20.2183 27.6727 20.7089C27.6229 20.8552 27.4863 20.9473 27.34 20.9473Z" fill="black"/>
</g>
</g>
<defs>
<clipPath id="clip0_184_21267">
<rect width="24" height="24" fill="white" transform="translate(9 9)"/>
</clipPath>
</defs>
</svg>
