<svg width="42" height="42" viewBox="0 0 42 42" fill="none" xmlns="http://www.w3.org/2000/svg">
<circle cx="21" cy="21" r="20.5" fill="#EEF3FA" stroke="#C2D3EC"/>
<g clip-path="url(#clip0_184_21395)">
<path d="M29.2587 23.9965C29.0507 22.7877 28.8543 21.6459 28.9213 20.7912C29.1409 17.989 27.9159 16.4689 26.8495 15.6871C26.7739 15.6317 26.6792 15.6088 26.5868 15.6235C26.0457 15.7093 24.679 15.9723 23.6783 16.5585C23.5244 16.6486 23.4625 16.8399 23.5345 17.0031C23.6124 17.1798 23.6819 17.3616 23.7413 17.5435C23.8663 17.9268 23.9584 18.3384 24.0147 18.7669C24.0553 19.0756 23.9565 19.3843 23.7436 19.6137C23.5281 19.8459 23.2232 19.9686 22.9055 19.9512C22.3998 19.9229 21.9837 19.534 21.916 19.0266C21.8692 18.6749 21.8025 18.3727 21.7179 18.1282C21.597 17.7788 21.4374 17.4762 21.2438 17.2285C21.2421 17.2264 21.2405 17.2243 21.2387 17.2222C21.2337 17.216 21.2289 17.2097 21.2241 17.2035L21.2204 17.1987C21.2186 17.1964 21.2169 17.1942 21.215 17.1919C20.7681 16.6423 20.2395 16.4754 19.8807 16.3977C19.5865 16.334 19.185 16.2816 18.6874 16.2421C18.5305 16.2299 18.3844 16.3232 18.33 16.471C17.9934 17.3867 17.8793 18.192 17.8778 18.202C17.8086 18.7217 17.3613 19.1137 16.8373 19.1137C16.7905 19.1137 16.7429 19.1105 16.6961 19.1043C16.121 19.0277 15.7156 18.4967 15.7923 17.9208C15.7954 17.8978 15.8703 17.3471 16.0817 16.5938C16.0826 16.5905 16.0835 16.5872 16.0843 16.5841C16.0913 16.5561 16.0943 16.528 16.0944 16.5003C16.1099 16.4752 16.1233 16.4484 16.1322 16.419V16.4189C16.1324 16.4185 16.1325 16.4181 16.1326 16.4177L16.1379 16.4001C16.1478 16.3668 16.1525 16.333 16.1526 16.2998C16.1526 16.1485 16.054 16.0088 15.9016 15.9633C15.733 15.9131 15.557 15.9956 15.4843 16.1498C15.4692 16.1499 15.4539 16.1499 15.4391 16.15C15.3496 16.1505 15.2638 16.185 15.1989 16.2466C13.9112 17.4698 13.1412 19.5059 13.1897 21.56C13.1902 21.581 13.1911 21.6021 13.192 21.6233C13.193 21.6449 13.1941 21.6665 13.1941 21.6882C13.1922 23.0669 13.6474 24.6189 14.5103 26.1766C15.3367 27.6683 16.4774 29.0676 17.8091 30.2231C18.9173 31.1846 20.1301 31.9409 21.3165 32.4102C22.3095 32.803 23.2775 33.0004 24.2052 33.0004C24.5087 33.0004 24.8078 32.9793 25.1022 32.9369C26.8328 32.6881 28.0411 32.0626 28.7959 31.0247C30.1478 29.1661 29.6754 26.4197 29.2587 23.9965Z" fill="#EF3A47"/>
<path d="M13.9898 17.9215C13.9131 18.4973 14.3185 19.0283 14.8936 19.1049C14.9404 19.1112 14.988 19.1143 15.0348 19.1143C15.4125 19.1143 15.7495 18.9101 15.9346 18.6017C15.8163 18.4042 15.761 18.167 15.7938 17.9214C15.7969 17.8984 15.8718 17.3477 16.0832 16.5944C16.0841 16.5912 16.085 16.5878 16.0858 16.5847C16.0928 16.5567 16.0958 16.5286 16.0959 16.5009C16.1114 16.4758 16.1248 16.449 16.1337 16.4196V16.4195C16.1339 16.4191 16.134 16.4187 16.1341 16.4183L16.1394 16.4007C16.1493 16.3674 16.154 16.3336 16.1541 16.3005C16.1541 16.1491 16.0555 16.0094 15.9031 15.9639C15.7345 15.9137 15.5585 15.9962 15.4858 16.1504C15.4707 16.1505 15.4554 16.1505 15.4406 16.1506C15.3511 16.1511 15.2653 16.1856 15.2004 16.2472C14.7197 16.7038 14.3114 17.2736 13.9906 17.9154C13.9902 17.9182 13.9899 17.9205 13.9898 17.9215Z" fill="#CE3043"/>
<path d="M19.414 17.1911C19.4158 17.1933 19.4176 17.1955 19.4193 17.1978L19.423 17.2027C19.4278 17.2089 19.4327 17.2152 19.4377 17.2213C19.4394 17.2234 19.4411 17.2256 19.4428 17.2277C19.6364 17.4753 19.7959 17.778 19.9168 18.1274C20.0015 18.3719 20.0681 18.6741 20.115 19.0257C20.1826 19.5332 20.5988 19.9221 21.1045 19.9504C21.4222 19.9678 21.7271 19.8451 21.9426 19.6128C21.9907 19.561 22.0327 19.5049 22.0688 19.4459C21.992 19.321 21.9394 19.1789 21.919 19.0257C21.8721 18.6741 21.8055 18.3719 21.7208 18.1274C21.6 17.778 21.4404 17.4753 21.2468 17.2277C21.2451 17.2256 21.2434 17.2234 21.2417 17.2213C21.2367 17.2152 21.2318 17.2089 21.227 17.2027L21.2233 17.1978C21.2216 17.1956 21.2198 17.1934 21.218 17.1911C20.7711 16.6414 20.2424 16.4746 19.8837 16.3969C19.5894 16.3331 19.1879 16.2808 18.6903 16.2413C18.5359 16.2292 18.3922 16.3199 18.3359 16.4638C18.6651 16.5659 19.0643 16.7612 19.414 17.1911Z" fill="#CE3043"/>
<path d="M29.2607 23.9965C29.0528 22.7877 28.8564 21.6459 28.9233 20.7911C29.143 17.989 27.9179 16.4689 26.8515 15.6871C26.7759 15.6317 26.6813 15.6088 26.5889 15.6235C26.3203 15.6661 25.8481 15.7525 25.3183 15.9003C26.3093 16.7334 27.3205 18.224 27.1193 20.7911C27.0523 21.6459 27.2488 22.7877 27.4567 23.9965C27.8735 26.4196 28.3459 29.1661 26.9941 31.0247C26.2392 32.0626 25.0309 32.6881 23.3004 32.9369C23.2979 32.9373 23.2955 32.9375 23.293 32.9379C23.6016 32.9793 23.9066 33.0004 24.2075 33.0004C24.5109 33.0004 24.8101 32.9793 25.1044 32.9369C26.835 32.6881 28.0433 32.0626 28.7981 31.0247C30.1499 29.1661 29.6775 26.4196 29.2607 23.9965Z" fill="#CE3043"/>
<path d="M21.122 27.8319C20.1062 27.1392 19.3692 26.3561 18.8354 25.6048H19.7304C19.9243 25.6048 20.0815 25.4476 20.0815 25.2537C20.0815 25.0597 19.9243 24.9025 19.7304 24.9025H18.3862C18.1567 24.5021 17.9824 24.1236 17.8514 23.7885C17.3708 22.5592 17.3431 21.6241 17.3429 21.6149C17.3386 21.4212 17.1785 21.2679 16.9846 21.2715C16.7908 21.2755 16.6367 21.4359 16.6407 21.6298C16.6415 21.6684 16.6639 22.5169 17.0679 23.6911C16.8142 24.4206 16.6506 25.7282 16.6433 25.7869C16.6195 25.9794 16.7563 26.1547 16.9487 26.1785C16.9634 26.1803 16.9779 26.1812 16.9922 26.1812C17.167 26.1812 17.3183 26.0509 17.3403 25.8731C17.3674 25.6537 17.4319 25.2085 17.5184 24.7686C17.6203 24.9738 17.7358 25.1868 17.8665 25.4048C17.8764 25.4255 17.8882 25.445 17.9018 25.4633C18.2083 25.9666 18.5956 26.4949 19.0849 27.0147C19.0546 27.3551 19.0041 28.1172 19.1074 28.5752C19.1442 28.7384 19.2891 28.8493 19.4497 28.8493C19.4752 28.8493 19.5012 28.8464 19.5272 28.8406C19.7164 28.7979 19.8352 28.61 19.7926 28.4208C19.7501 28.2326 19.7433 27.94 19.751 27.6567C20.0465 27.916 20.3703 28.1694 20.7264 28.4122C20.7868 28.4535 20.8557 28.4733 20.9239 28.4733C21.036 28.4733 21.1463 28.4196 21.2143 28.32C21.3235 28.1595 21.2823 27.9411 21.122 27.8319Z" fill="#F2CA5A"/>
<path d="M27.9033 21.9439C27.714 21.6788 27.1833 21.3021 26.9235 21.1263C26.8 20.5106 26.5937 19.9093 26.3074 19.3317C26.3006 19.3147 26.2926 19.2984 26.2833 19.2829C26.11 18.9396 25.9086 18.6048 25.6791 18.2805C24.9054 17.1873 24.0937 16.5998 24.0595 16.5754C23.9019 16.4626 23.6825 16.4988 23.5696 16.6565C23.4567 16.8142 23.493 17.0336 23.6507 17.1465C23.6694 17.1598 24.8317 18.0099 25.6275 19.548C25.5732 19.9879 24.9618 20.6904 24.5168 21.0723C24.3696 21.1984 24.3525 21.42 24.4785 21.5672C24.548 21.6484 24.6464 21.6901 24.7455 21.6901C24.8263 21.6901 24.9074 21.6624 24.9737 21.6057C24.9874 21.594 25.3141 21.3131 25.6409 20.9267C25.7859 20.7553 25.9081 20.5898 26.0078 20.4306C26.2696 21.1832 26.4176 22.0543 26.3372 23.0329C26.3214 23.2261 26.4652 23.3957 26.6585 23.4115C26.6683 23.4124 26.678 23.4128 26.6876 23.4128C26.8685 23.4128 27.0221 23.2738 27.0372 23.0903C27.0648 22.7545 27.0681 22.4199 27.0482 22.088C27.1832 22.1964 27.2892 22.2923 27.3319 22.3521C27.4005 22.4481 27.5084 22.4992 27.6179 22.4992C27.6886 22.4992 27.7599 22.4779 27.8217 22.4338C27.9795 22.3211 28.016 22.1017 27.9033 21.9439Z" fill="#F2CA5A"/>
<path d="M17.302 13.5452C17.2432 13.4307 17.1264 13.3576 16.9976 13.3548C15.5544 13.3224 14.2536 13.3597 14.0075 13.3675C13.0406 13.3982 12.2789 14.2097 12.3095 15.1766C12.3243 15.6451 12.5205 16.0797 12.8618 16.4004C13.1894 16.7081 13.6133 16.8757 14.0608 16.8757C14.08 16.8757 14.0993 16.8753 14.1186 16.8747C14.5673 16.8606 15.1743 16.8521 15.7423 16.8521C15.8997 16.8521 16.0379 16.7474 16.0805 16.5958C16.2416 16.0212 16.4378 15.4835 16.6638 14.9976C16.848 14.6013 17.0554 14.2331 17.28 13.9036C17.3525 13.7972 17.361 13.6597 17.302 13.5452Z" fill="#F77474"/>
<path d="M17.2796 13.9036C17.352 13.7972 17.3606 13.6597 17.3017 13.5452C17.2428 13.4307 17.126 13.3576 16.9972 13.3548C16.4548 13.3427 15.9325 13.3403 15.4787 13.3426C14.965 14.0498 14.3551 15.643 14.2617 16.8706C14.6916 16.859 15.2323 16.8522 15.7419 16.8522C15.8994 16.8522 16.0375 16.7474 16.0801 16.5958C16.2412 16.0212 16.4374 15.4835 16.6634 14.9977C16.8476 14.6013 17.055 14.2332 17.2796 13.9036Z" fill="#E55555"/>
<path d="M25.522 13.1555C25.2325 12.8038 24.9086 12.4908 24.5568 12.2226L24.9744 10.836C25.0697 10.5195 25.036 10.1848 24.8796 9.89366C24.7232 9.60242 24.4628 9.38958 24.1463 9.2943C23.8298 9.19888 23.4951 9.2326 23.2038 9.389C22.9126 9.54539 22.6998 9.80582 22.6045 10.1224L22.2819 11.1938C22.2704 11.1915 22.2589 11.1892 22.2474 11.1869V10.2375C22.2475 9.55512 21.6923 9 21.01 9C20.3276 9 19.7725 9.55512 19.7725 10.2375V11.2251C19.7647 11.2271 19.7569 11.2292 19.7492 11.2312L19.4153 10.1224C19.2186 9.46909 18.5269 9.09766 17.8736 9.2943C17.5571 9.38963 17.2966 9.60247 17.1401 9.89366C16.9838 10.1849 16.9501 10.5196 17.0454 10.836L17.5454 12.4963C16.9522 13.0708 16.4427 13.8112 16.0292 14.7006C15.3163 16.2337 15.1062 17.7631 15.0976 17.8276C14.9697 18.7875 15.6458 19.6724 16.6047 19.8001C16.6822 19.8105 16.7609 19.8157 16.8387 19.8157C17.7133 19.8157 18.4599 19.1617 18.5751 18.2968C18.5761 18.2895 18.6827 17.5519 18.9894 16.7166C18.9898 16.7153 18.9903 16.7141 18.9908 16.7128C19.0066 16.6698 19.0231 16.6265 19.04 16.5831L19.0497 16.5579C19.0672 16.5137 19.085 16.4692 19.1025 16.4269C19.1031 16.4257 19.1037 16.4242 19.1043 16.4226C19.122 16.3804 19.1403 16.3381 19.159 16.2956L19.1732 16.2636C19.1925 16.2204 19.2122 16.1772 19.2327 16.1341C19.973 14.5759 20.7535 14.5759 21.0099 14.5759C21.4561 14.5759 21.8295 14.6585 22.1513 14.8285C22.2612 14.8865 22.3936 14.8821 22.4994 14.8169C23.2667 14.3445 24.2189 13.9758 25.3294 13.7209C25.448 13.6937 25.544 13.6071 25.5833 13.4919C25.6225 13.3768 25.5994 13.2495 25.522 13.1555Z" fill="#9B3E2C"/>
<path d="M23.4217 13.9572C22.8064 13.4542 21.9939 13.0996 20.9246 13.0996C17.2365 13.0996 16.6514 19.453 16.6514 19.453C16.6514 19.453 16.6445 19.6007 16.6367 19.8043C16.7039 19.812 16.7717 19.8167 16.839 19.8167C17.7135 19.8167 18.4601 19.1627 18.5753 18.2977C18.5763 18.2904 18.6829 17.5528 18.9896 16.7175C18.9901 16.7162 18.9905 16.715 18.991 16.7137C19.0068 16.6707 19.0233 16.6274 19.0402 16.584L19.05 16.5588C19.0674 16.5146 19.0852 16.4701 19.1028 16.4278C19.1033 16.4266 19.1039 16.4251 19.1046 16.4235C19.1222 16.3813 19.1405 16.339 19.1592 16.2965L19.1735 16.2645C19.1928 16.2213 19.2124 16.1781 19.2329 16.135C19.9733 14.5768 20.7537 14.5768 21.0102 14.5768C21.4564 14.5768 21.8297 14.6594 22.1516 14.8294C22.2615 14.8874 22.3938 14.883 22.4996 14.8178C22.8612 14.5953 23.2643 14.396 23.7052 14.2205C23.6219 14.1344 23.5278 14.0465 23.4217 13.9572Z" fill="#7A232E"/>
<path d="M28.8261 14.3652C28.7503 13.401 27.9043 12.6779 26.9395 12.7535C26.6399 12.777 24.0322 13.0147 22.0523 14.2678C21.8146 14.1274 21.5611 14.0047 21.2959 13.9018C21.2602 13.8879 21.2225 13.88 21.1843 13.8783C21.1185 13.8754 21.0626 13.874 21.0087 13.874C20.0123 13.874 19.2234 14.5149 18.597 15.8332C18.5023 16.0325 18.4126 16.2472 18.3302 16.4713C18.2923 16.5744 18.3048 16.6894 18.364 16.7819C18.4233 16.8744 18.5224 16.9338 18.632 16.9425C19.0984 16.9796 19.4686 17.0273 19.7323 17.0844C20.0085 17.1442 20.3641 17.2605 20.6677 17.632L20.6684 17.6329C20.6765 17.6433 20.6846 17.6537 20.6929 17.664C20.8378 17.8499 20.9594 18.0834 21.0544 18.358C21.1236 18.5582 21.1794 18.8144 21.2201 19.1195C21.3322 19.9607 22.0247 20.6055 22.8679 20.6527C22.9012 20.6545 22.9344 20.6555 22.9676 20.6555C23.4572 20.6555 23.9232 20.4531 24.2587 20.0915C24.6143 19.7082 24.7792 19.1921 24.7113 18.6754C24.6493 18.2042 24.5477 17.75 24.4092 17.3257C24.3761 17.224 24.34 17.1224 24.3014 17.0214C25.2417 16.5606 26.5523 16.3063 27.2168 16.2516C28.1798 16.1747 28.9018 15.3284 28.8261 14.3652Z" fill="#F77474"/>
<path d="M28.4757 14.3685C28.4755 14.3684 28.4754 14.3683 28.4752 14.3681C25.9346 14.6092 24.1483 15.332 23.1955 15.8181C22.734 16.0537 22.5026 16.5828 22.6417 17.082C22.8608 17.8687 23.2272 19.5407 23.4182 20.5958C23.7374 20.5117 24.0296 20.3384 24.2602 20.0899C24.6158 19.7066 24.7807 19.1905 24.7128 18.6738C24.6508 18.2026 24.5492 17.7484 24.4107 17.3241C24.3776 17.2224 24.3415 17.1207 24.3029 17.0198C25.2432 16.5589 26.5538 16.3047 27.2183 16.2499C28.1814 16.173 28.9034 15.3268 28.8277 14.3636V14.3635C28.8274 14.3603 28.8269 14.357 28.8267 14.3538C28.7176 14.3522 28.601 14.3567 28.4757 14.3685Z" fill="#E55555"/>
<path d="M19.8817 17.1206C20.2711 16.1503 21.4119 14.594 22.0523 14.2668C21.8146 14.1264 21.5611 14.0038 21.2959 13.9008C21.2602 13.8869 21.2225 13.879 21.1843 13.8773C21.1185 13.8744 21.0626 13.873 21.0087 13.873C20.0123 13.873 19.2234 14.5139 18.597 15.8322C18.5023 16.0315 18.4126 16.2462 18.3302 16.4703C18.2923 16.5734 18.3048 16.6884 18.364 16.7809C18.4233 16.8734 18.5224 16.9328 18.632 16.9416C19.0984 16.9786 19.4686 17.0263 19.7323 17.0834C19.7798 17.0938 19.83 17.1059 19.8817 17.1206Z" fill="#E55555"/>
</g>
<defs>
<clipPath id="clip0_184_21395">
<rect width="24" height="24" fill="white" transform="translate(9 9)"/>
</clipPath>
</defs>
</svg>
