<svg width="42" height="42" viewBox="0 0 42 42" fill="none" xmlns="http://www.w3.org/2000/svg">
<circle cx="21" cy="21" r="20.5" fill="#EEF3FA" stroke="#C2D3EC"/>
<g clip-path="url(#clip0_184_21420)">
<path d="M29.4829 23.3384H18.258C17.8744 23.3384 17.5065 23.186 17.2353 22.9147L13.6388 19.3183C13.2312 18.9106 12.5639 18.8874 12.1513 19.2901C11.941 19.4953 11.8359 19.7668 11.8359 20.0382V24.8369C11.8359 25.1778 12.0108 25.4949 12.2991 25.6769L15.489 27.6905C15.9411 27.9759 16.4648 28.1274 16.9995 28.1274H28.8811C29.7906 28.1274 30.5278 27.3901 30.5278 26.4807V24.3833C30.5278 23.8062 30.06 23.3384 29.4829 23.3384Z" fill="#7FDBD5"/>
<path opacity="0.1" d="M16.4997 25.1233C13.4311 24.0735 12.8558 20.7593 12.6744 19.0195C12.483 19.0558 12.3004 19.1449 12.1513 19.2904C11.941 19.4956 11.8359 19.767 11.8359 20.0385V24.8371C11.8359 25.1781 12.0108 25.4952 12.2991 25.6772L15.489 27.6908C15.9411 27.9762 16.4648 28.1277 16.9995 28.1277H21.5714C19.2736 27.4187 19.0369 25.9913 16.4997 25.1233Z" fill="black"/>
<path opacity="0.1" d="M18.6628 25.2278C18.4686 25.2278 18.3112 25.3852 18.3112 25.5794V26.5753C18.3112 26.7695 18.4686 26.9269 18.6628 26.9269C18.857 26.9269 19.0144 26.7695 19.0144 26.5753V25.5794C19.0144 25.3853 18.857 25.2278 18.6628 25.2278ZM14.7148 23.1094C14.5206 23.1094 14.3633 23.2667 14.3633 23.4609V24.4057C14.3633 24.5999 14.5206 24.7573 14.7148 24.7573C14.909 24.7573 15.0664 24.5999 15.0664 24.4057V23.4609C15.0664 23.2667 14.909 23.1094 14.7148 23.1094ZM28.1948 24.481C28.0006 24.481 27.8432 24.6383 27.8432 24.8325V25.7928C27.8432 25.987 28.0006 26.1444 28.1948 26.1444C28.389 26.1444 28.5464 25.987 28.5464 25.7928V24.8325C28.5464 24.6383 28.389 24.481 28.1948 24.481ZM24.8159 25.2278C24.6217 25.2278 24.4643 25.3852 24.4643 25.5794V28.128H25.1675V25.5794C25.1675 25.3853 25.0101 25.2278 24.8159 25.2278Z" fill="black"/>
<path d="M23.5579 29.5568H19.4819C19.1747 29.5568 18.9258 29.3079 18.9258 29.0007V28.1289H24.114V29.0007C24.114 29.3079 23.865 29.5568 23.5579 29.5568Z" fill="#495059"/>
<path opacity="0.1" d="M24.1139 28.127H18.9258V28.7604H24.1139V28.127Z" fill="black"/>
<path d="M22.8759 29.5566H20.1641V31.6094H22.8759V29.5566Z" fill="#E8E9EA"/>
<path opacity="0.1" d="M22.8759 29.5566H20.1641V30.1066H22.8759V29.5566Z" fill="black"/>
<path d="M24.9019 33.0007H18.1382C17.9626 33.0007 17.8203 32.8584 17.8203 32.6828V32.2045C17.8203 31.8758 18.0867 31.6094 18.4154 31.6094H24.6246C24.9533 31.6094 25.2198 31.8758 25.2198 32.2045V32.6828C25.2198 32.8584 25.0774 33.0007 24.9019 33.0007Z" fill="#BDC0C3"/>
<path d="M27.432 16.1635C27.2549 16.1635 27.0789 16.089 26.9549 15.9437C26.73 15.6804 26.7612 15.2846 27.0245 15.0598L30.475 12.1134L29.1352 9.95809C28.9524 9.66404 29.0425 9.27742 29.3366 9.09461C29.6307 8.91175 30.0173 9.00198 30.2001 9.29612L31.8245 11.9092C31.9882 12.1724 31.9349 12.5157 31.6992 12.717L27.8389 16.0134C27.7208 16.1142 27.576 16.1635 27.432 16.1635Z" fill="#BDC0C3"/>
<path opacity="0.15" d="M27.0245 15.06C26.7612 15.2848 26.73 15.6806 26.9549 15.944C27.0789 16.0892 27.2549 16.1637 27.432 16.1637C27.576 16.1637 27.7207 16.1144 27.8388 16.0136L28.8447 15.1546C28.5123 14.8715 28.1332 14.6386 27.7168 14.4688L27.0245 15.06Z" fill="black"/>
<path d="M31.2923 13.4966C31.9865 13.4966 32.5493 12.9338 32.5493 12.2395C32.5493 11.5452 31.9865 10.9824 31.2923 10.9824C30.598 10.9824 30.0352 11.5452 30.0352 12.2395C30.0352 12.9338 30.598 13.4966 31.2923 13.4966Z" fill="#495059"/>
<path d="M31.2945 12.5969C31.4917 12.5969 31.6516 12.4371 31.6516 12.2399C31.6516 12.0427 31.4917 11.8828 31.2945 11.8828C31.0974 11.8828 30.9375 12.0427 30.9375 12.2399C30.9375 12.4371 31.0974 12.5969 31.2945 12.5969Z" fill="#E8E9EA"/>
<path d="M29.533 18.0705L23.1836 15.7595C24.2003 14.8417 25.6776 14.5018 27.0543 15.0029C28.431 15.504 29.3441 16.7139 29.533 18.0705Z" fill="#287D99"/>
<path opacity="0.15" d="M25.7053 14.7734C24.7698 14.784 23.8713 15.1399 23.1836 15.7607L26.7328 17.0525C25.8681 16.2484 25.4104 15.217 25.7053 14.7734Z" fill="black"/>
<path d="M22.6604 16.7067L29.3267 19.133C29.604 19.234 29.9107 19.091 30.0117 18.8136C30.1126 18.5363 29.9696 18.2296 29.6923 18.1286L23.0259 15.7023C22.7486 15.6013 22.4419 15.7444 22.341 16.0217C22.24 16.2991 22.383 16.6057 22.6604 16.7067Z" fill="#7FDBD5"/>
<path d="M15.1144 14.1391C15.0567 14.1391 14.9982 14.1311 14.9401 14.1143L10.535 12.8425C10.3464 12.7879 10.1941 12.6482 10.1237 12.4649C10.0533 12.2816 10.0729 12.0758 10.1765 11.909L11.8009 9.29599C11.9838 9.00194 12.3703 8.9118 12.6645 9.09457C12.9585 9.27738 13.0488 9.66401 12.8659 9.9581L11.6788 11.8675L15.288 12.9095C15.6207 13.0056 15.8125 13.3532 15.7164 13.6859C15.6372 13.9604 15.3865 14.1391 15.1144 14.1391Z" fill="#BDC0C3"/>
<path opacity="0.15" d="M15.1108 14.1385C15.3829 14.1385 15.6336 13.9599 15.7128 13.6853C15.8089 13.3526 15.6171 13.0051 15.2844 12.909L14.1993 12.5957C13.7905 12.8668 13.4357 13.2067 13.1484 13.5975L14.9365 14.1137C14.9947 14.1305 15.0532 14.1385 15.1108 14.1385Z" fill="black"/>
<path d="M10.7063 13.4966C11.4006 13.4966 11.9634 12.9338 11.9634 12.2395C11.9634 11.5452 11.4006 10.9824 10.7063 10.9824C10.012 10.9824 9.44922 11.5452 9.44922 12.2395C9.44922 12.9338 10.012 13.4966 10.7063 13.4966Z" fill="#495059"/>
<path d="M10.7086 12.5969C10.9058 12.5969 11.0657 12.4371 11.0657 12.2399C11.0657 12.0427 10.9058 11.8828 10.7086 11.8828C10.5114 11.8828 10.3516 12.0427 10.3516 12.2399C10.3516 12.4371 10.5114 12.5969 10.7086 12.5969Z" fill="#E8E9EA"/>
<path d="M12.9805 15.9826L19.33 13.6716C18.3132 12.7539 16.836 12.4139 15.4593 12.915C14.0826 13.4161 13.1694 14.626 12.9805 15.9826Z" fill="#287D99"/>
<path opacity="0.15" d="M14.7067 13.2852C13.7533 13.894 13.1325 14.89 12.9805 15.9811L15.5028 15.0631C14.6975 14.7776 14.5377 13.9955 14.7067 13.2852Z" fill="black"/>
<path d="M19.8524 14.6169L13.1861 17.0432C12.9088 17.1442 12.6021 17.0012 12.5011 16.7238C12.4002 16.4464 12.5432 16.1398 12.8205 16.0388L19.4869 13.6125C19.7642 13.5115 20.0709 13.6545 20.1719 13.9319C20.2728 14.2092 20.1298 14.5159 19.8524 14.6169Z" fill="#7FDBD5"/>
<path opacity="0.1" d="M20.5857 33.0007C19.7518 32.6416 19.7036 31.9372 19.8004 31.6094H18.4154C18.0867 31.6094 17.8203 31.8758 17.8203 32.2045V32.6828C17.8203 32.8584 17.9626 33.0007 18.1382 33.0007H20.5857Z" fill="black"/>
</g>
<defs>
<clipPath id="clip0_184_21420">
<rect width="24" height="24" fill="white" transform="translate(9 9)"/>
</clipPath>
</defs>
</svg>
