<svg width="52" height="52" viewBox="0 0 52 52" fill="none" xmlns="http://www.w3.org/2000/svg">
<g clip-path="url(#clip0_207_9311)">
<path d="M33.7187 1.52343V7.96238C33.7187 8.81561 33.0485 9.48582 32.1953 9.48582H26.1016C25.2483 9.48582 24.5781 8.81561 24.5781 7.96238V1.52343C24.5781 0.67021 25.2483 0 26.1016 0H32.1953C33.0485 0 33.7187 0.67021 33.7187 1.52343Z" fill="#57555C"/>
<path d="M36.7656 1.52343C36.7656 2.37646 36.0954 3.04687 35.2422 3.04687H23.0547C22.2015 3.04687 21.5312 2.37646 21.5312 1.52343C21.5312 0.67021 22.2015 0 23.0547 0H35.2422C36.0954 0 36.7656 0.67021 36.7656 1.52343Z" fill="#FD4E26"/>
<path d="M19.1909 13.2251C19.7533 10.5427 19.5941 7.75323 18.7282 5.1572L18.4069 4.09009C18.2343 3.57537 17.8029 3.19004 17.2717 3.07995C16.7436 2.96691 16.1916 3.1484 15.8286 3.5516L7.47054 12.9396C6.71339 13.7815 6.29678 14.8676 6.29678 15.9983V29.5693C6.29678 30.7907 5.82066 31.9378 4.95779 32.8022L0.44629 37.1106C-0.148763 37.7057 -0.148763 38.6698 0.44629 39.2649L12.8369 51.5539C13.1345 51.8515 13.5243 52.0003 13.914 52.0003C14.3036 52.0003 14.6935 51.8515 14.991 51.5539L19.2995 47.1439C20.1639 46.281 21.3109 45.8049 22.5323 45.8049H35.242L19.1909 13.2251Z" fill="#FEDBAB"/>
<path d="M45.9062 22.9531C45.9062 27.5842 44.0171 31.7889 41.0007 34.8054C37.9843 37.8218 33.7796 39.7109 29.1484 39.7109C19.886 39.7109 12.3906 32.2155 12.3906 22.9531C12.3906 18.3218 14.2797 14.1171 17.2961 11.1008C20.3125 8.08447 24.5171 6.19531 29.1484 6.19531C33.7798 6.19531 37.9844 8.08437 41.0007 11.1008C44.017 14.1172 45.9062 18.3218 45.9062 22.9531Z" fill="#17ACE8"/>
<path d="M29.1484 36.664C21.5878 36.664 15.4375 30.5137 15.4375 22.9531C15.4375 15.3925 21.5878 9.24219 29.1484 9.24219C36.709 9.24219 42.8593 15.3925 42.8593 22.9531C42.8593 30.5137 36.709 36.664 29.1484 36.664Z" fill="#CAE8F9"/>
<path d="M30.6719 16.8594V22.9531C30.6719 23.8061 30.0016 24.4765 29.1484 24.4765H23.0547C22.2015 24.4765 21.5312 23.8061 21.5312 22.9531C21.5312 22.0999 22.2015 21.4297 23.0547 21.4297H27.625V16.8594C27.625 16.0061 28.2952 15.3359 29.1484 15.3359C30.0016 15.3359 30.6719 16.0061 30.6719 16.8594Z" fill="#57555C"/>
<path d="M39.4316 45.8047H34.0996C32.2065 45.8047 30.6719 44.2701 30.6719 42.3769C30.6719 40.4838 32.2065 38.9492 34.0996 38.9492H39.4316C41.3247 38.9492 42.8594 40.4838 42.8594 42.3769C42.8594 44.2701 41.3247 45.8047 39.4316 45.8047Z" fill="#FEDBAB"/>
<path d="M45.5254 32.0937H34.0996C32.2065 32.0937 30.6719 30.5591 30.6719 28.666C30.6719 26.7729 32.2065 25.2383 34.0996 25.2383H45.5254C47.4185 25.2383 48.9531 26.7729 48.9531 28.666C48.9531 30.5591 47.4185 32.0937 45.5254 32.0937Z" fill="#FEDBAB"/>
<path d="M48.5722 25.2383H37.1465C35.2534 25.2383 33.7188 23.7037 33.7188 21.8105C33.7188 19.9174 35.2534 18.3828 37.1465 18.3828H48.5722C50.4654 18.3828 52 19.9174 52 21.8105C52 23.7037 50.4654 25.2383 48.5722 25.2383Z" fill="#FEDBAB"/>
<path d="M42.4785 38.9492H34.0996C32.2065 38.9492 30.6719 37.4146 30.6719 35.5215C30.6719 33.6284 32.2065 32.0938 34.0996 32.0938H42.4785C44.3716 32.0938 45.9062 33.6284 45.9062 35.5215C45.9062 37.4146 44.3716 38.9492 42.4785 38.9492Z" fill="#FEDBAB"/>
</g>
<defs>
<clipPath id="clip0_207_9311">
<rect width="52" height="52" fill="white"/>
</clipPath>
</defs>
</svg>
