<svg width="14" height="14" viewBox="0 0 14 14" fill="none" xmlns="http://www.w3.org/2000/svg">
<path d="M10.5 0H3.5C1.568 0 0 1.56178 0 3.48774V7.67584V8.37619C0 10.3022 1.568 11.8639 3.5 11.8639H4.55C4.739 11.8639 4.991 11.99 5.11 12.1441L6.16 13.5378C6.622 14.1541 7.378 14.1541 7.84 13.5378L8.89 12.1441C9.023 11.969 9.233 11.8639 9.45 11.8639H10.5C12.432 11.8639 14 10.3022 14 8.37619V3.48774C14 1.56178 12.432 0 10.5 0ZM7.7 8.22911H3.5C3.213 8.22911 2.975 7.991 2.975 7.70385C2.975 7.41671 3.213 7.17859 3.5 7.17859H7.7C7.987 7.17859 8.225 7.41671 8.225 7.70385C8.225 7.991 7.987 8.22911 7.7 8.22911ZM10.5 4.72736H3.5C3.213 4.72736 2.975 4.48924 2.975 4.2021C2.975 3.91496 3.213 3.67684 3.5 3.67684H10.5C10.787 3.67684 11.025 3.91496 11.025 4.2021C11.025 4.48924 10.787 4.72736 10.5 4.72736Z" fill="#20539E"/>
<path d="M10.5 0H3.5C1.568 0 0 1.56178 0 3.48774V7.67584V8.37619C0 10.3022 1.568 11.8639 3.5 11.8639H4.55C4.739 11.8639 4.991 11.99 5.11 12.1441L6.16 13.5378C6.622 14.1541 7.378 14.1541 7.84 13.5378L8.89 12.1441C9.023 11.969 9.233 11.8639 9.45 11.8639H10.5C12.432 11.8639 14 10.3022 14 8.37619V3.48774C14 1.56178 12.432 0 10.5 0ZM7.7 8.22911H3.5C3.213 8.22911 2.975 7.991 2.975 7.70385C2.975 7.41671 3.213 7.17859 3.5 7.17859H7.7C7.987 7.17859 8.225 7.41671 8.225 7.70385C8.225 7.991 7.987 8.22911 7.7 8.22911ZM10.5 4.72736H3.5C3.213 4.72736 2.975 4.48924 2.975 4.2021C2.975 3.91496 3.213 3.67684 3.5 3.67684H10.5C10.787 3.67684 11.025 3.91496 11.025 4.2021C11.025 4.48924 10.787 4.72736 10.5 4.72736Z" fill="white" fill-opacity="0.2"/>
</svg>
