<svg width="14" height="15" viewBox="0 0 14 15" fill="none" xmlns="http://www.w3.org/2000/svg">
<g clip-path="url(#clip0_227_9095)">
<path d="M10.8203 2.04215H12.5403L10.8203 0.322266V2.04215Z" fill="#67768B"/>
<path d="M10.4063 2.87201C10.1772 2.87201 9.99142 2.68627 9.99142 2.45705V0.0791016H3.06329C2.83418 0.0791016 2.64844 0.264847 2.64844 0.494065V7.8896C3.08038 7.7092 3.55409 7.60933 4.05077 7.60933C4.29612 7.60933 4.5358 7.63379 4.76769 7.68014C4.73992 7.6245 4.7239 7.56201 4.7239 7.49557C4.7239 7.26646 4.90975 7.08072 5.13886 7.08072H10.1366C10.3657 7.08072 10.5515 7.26646 10.5515 7.49557C10.5515 7.72479 10.3657 7.91054 10.1366 7.91054H5.50202C6.79455 8.4729 7.70063 9.76212 7.70063 11.2592C7.70063 11.8404 7.56391 12.39 7.32124 12.8782H12.3754C12.6046 12.8782 12.7903 12.6924 12.7903 12.4633V2.87201H10.4063ZM8.64271 4.2313C8.64271 4.46052 8.45697 4.64626 8.22775 4.64626H5.13886C4.90975 4.64626 4.7239 4.46052 4.7239 4.2313C4.7239 4.00219 4.90975 3.81634 5.13886 3.81634H8.22775C8.45697 3.81634 8.64271 4.00208 8.64271 4.2313ZM10.1366 6.27845H5.13886C4.90975 6.27845 4.7239 6.0926 4.7239 5.86349C4.7239 5.63427 4.90975 5.44853 5.13886 5.44853H10.1366C10.3657 5.44853 10.5515 5.63427 10.5515 5.86349C10.5515 6.0926 10.3657 6.27845 10.1366 6.27845Z" fill="#67768B"/>
<path d="M6.87045 11.2594C6.87045 9.70442 5.60537 8.43945 4.05041 8.43945C2.49555 8.43945 1.23047 9.70442 1.23047 11.2594C1.23047 12.8142 2.49544 14.0793 4.05041 14.0793C5.60537 14.0793 6.87045 12.8142 6.87045 11.2594ZM3.82546 12.3854C3.74866 12.448 3.65595 12.4785 3.56366 12.4785C3.44745 12.4785 3.33188 12.4298 3.24996 12.3354L2.39418 11.3485C2.24401 11.1753 2.2627 10.9133 2.43584 10.7631C2.60898 10.6131 2.87099 10.6317 3.02117 10.8048L3.61344 11.4879L5.02378 10.3396C5.20152 10.195 5.46288 10.2217 5.60751 10.3994C5.75224 10.5772 5.72543 10.8386 5.54769 10.9833L3.82546 12.3854Z" fill="#67768B"/>
</g>
<defs>
<clipPath id="clip0_227_9095">
<rect width="14" height="14" fill="white" transform="translate(0 0.106445)"/>
</clipPath>
</defs>
</svg>
