<svg width="42" height="42" viewBox="0 0 42 42" fill="none" xmlns="http://www.w3.org/2000/svg">
<circle cx="21" cy="21" r="20.5" fill="#EEF3FA" stroke="#C2D3EC"/>
<g clip-path="url(#clip0_241_12974)">
<path d="M27.5649 10.4492H12.2571L12.0156 32.5176L28.2893 32.2762V29.5876L27.9764 26.7827L28.2893 24.723V11.1736C28.2893 10.7735 27.965 10.4492 27.5649 10.4492Z" fill="#CDE2FF"/>
<path d="M26.8506 31.5518L26.843 30.8275L12.2595 10.4492C11.8595 10.4492 11.5352 10.7735 11.5352 11.1736V32.2762C11.5352 32.6762 11.8595 33.0005 12.2595 33.0005H27.5674C27.9674 33.0005 28.2917 32.6762 28.2917 32.2762H26.1262C26.5263 32.2762 26.8506 31.9519 26.8506 31.5518Z" fill="#9EC8FC"/>
<path d="M28.2905 24.7222L26.8418 20.5581L24.8516 19.709L28.2905 29.5867V24.7222Z" fill="#9EC8FC"/>
<path d="M26.1196 9H10.8118L10.5703 31.0684L26.844 30.827V25.4259L26.2256 20.2757L26.844 18.3079V9.72435C26.844 9.32431 26.5196 9 26.1196 9Z" fill="#EDF6FF"/>
<path d="M26.8422 18.3081L25.3595 16.455C25.1726 16.2191 24.793 16.3512 24.793 16.6522V19.3604C24.793 19.4792 24.8129 19.5972 24.852 19.7094L26.8422 25.4261V18.3081Z" fill="#CDE2FF"/>
<path d="M23.945 29.0154H12.9833C12.7833 29.0154 12.6211 28.8532 12.6211 28.6532C12.6211 28.4532 12.7833 28.291 12.9833 28.291H23.945C24.145 28.291 24.3072 28.4532 24.3072 28.6532C24.3072 28.8532 24.145 29.0154 23.945 29.0154Z" fill="#7E8B96"/>
<path d="M23.945 26.8415H12.9833C12.7833 26.8415 12.6211 26.6794 12.6211 26.4794C12.6211 26.2793 12.7833 26.1172 12.9833 26.1172H23.945C24.145 26.1172 24.3072 26.2793 24.3072 26.4794C24.3072 26.6794 24.145 26.8415 23.945 26.8415Z" fill="#7E8B96"/>
<path d="M23.945 24.6696H12.9833C12.7833 24.6696 12.6211 24.5075 12.6211 24.3075C12.6211 24.1075 12.7833 23.9453 12.9833 23.9453H23.945C24.145 23.9453 24.3072 24.1075 24.3072 24.3075C24.3072 24.5075 24.145 24.6696 23.945 24.6696Z" fill="#7E8B96"/>
<path d="M22.9792 22.4958H12.9833C12.7833 22.4958 12.6211 22.3337 12.6211 22.1337C12.6211 21.9336 12.7833 21.7715 12.9833 21.7715H22.9792C23.1793 21.7715 23.3414 21.9336 23.3414 22.1337C23.3414 22.3337 23.1793 22.4958 22.9792 22.4958Z" fill="#7E8B96"/>
<path d="M23.945 20.324H12.9833C12.7833 20.324 12.6211 20.1618 12.6211 19.9618C12.6211 19.7618 12.7833 19.5996 12.9833 19.5996H23.945C24.145 19.5996 24.3072 19.7618 24.3072 19.9618C24.3072 20.1618 24.145 20.324 23.945 20.324Z" fill="#7E8B96"/>
<path d="M23.945 18.1501H12.9833C12.7833 18.1501 12.6211 17.988 12.6211 17.788C12.6211 17.5879 12.7833 17.4258 12.9833 17.4258H23.945C24.145 17.4258 24.3072 17.5879 24.3072 17.788C24.3072 17.988 24.145 18.1501 23.945 18.1501Z" fill="#7E8B96"/>
<path d="M12.9833 15.977C12.7838 15.977 12.6218 15.8157 12.6211 15.616C12.6204 15.416 12.782 15.2533 12.9821 15.2527L20.1772 15.2285C20.3787 15.2276 20.5399 15.3895 20.5406 15.5895C20.5413 15.7895 20.3797 15.9522 20.1797 15.9529L12.9845 15.977C12.9841 15.977 12.9837 15.977 12.9833 15.977Z" fill="#7E8B96"/>
<path d="M22.0379 12.3552H14.8934C14.6934 12.3552 14.5312 12.193 14.5312 11.993C14.5312 11.793 14.6934 11.6309 14.8934 11.6309H22.0379C22.2379 11.6309 22.4001 11.793 22.4001 11.993C22.4001 12.193 22.2379 12.3552 22.0379 12.3552Z" fill="#7E8B96"/>
<path d="M10.8103 30.1026V9C10.4103 9 10.0859 9.32431 10.0859 9.72435V30.827C10.0859 31.227 10.4103 31.5513 10.8103 31.5513H26.1181C26.5182 31.5513 26.8425 31.227 26.8425 30.827H11.5346C11.1346 30.827 10.8103 30.5027 10.8103 30.1026Z" fill="#CDE2FF"/>
<path d="M26.0852 15.7305L25.8438 16.6303L26.0852 17.681L27.0827 16.9894L26.0852 15.7305Z" fill="#7E8B96"/>
<path d="M25.5195 15.9276V17.5337L26.086 17.6809V15.7303C25.8991 15.4945 25.5195 15.6266 25.5195 15.9276Z" fill="#5F6C75"/>
<path d="M27.083 16.9902L26.0856 17.3342L25.6836 18.4967C25.6872 18.68 26.3258 19.0859 26.3258 19.0859L27.938 18.1643C27.8989 18.052 27.8412 17.9472 27.7674 17.854L27.083 16.9902Z" fill="#E0BBA4"/>
<path d="M26.2105 18.7643C26.1616 18.6241 26.0857 18.4277 26.0821 18.2444V17.334L25.5156 17.5345V18.6366C25.5156 18.7554 25.5356 18.8734 25.5746 18.9856L26.3223 19.0857L26.2105 18.7643Z" fill="#D8AB8C"/>
<path d="M26.2109 18.7643L29.8605 30.2243C29.9404 30.4538 30.3102 30.4535 30.836 30.2704C31.6156 29.999 31.8879 29.5184 31.8879 29.5184L27.9349 18.1641L26.2109 18.7643Z" fill="#FFD064"/>
<path d="M30.1122 29.9386L26.2139 18.7637L25.5781 18.985L29.5311 30.3394C29.6612 30.713 30.2949 30.832 30.9465 30.6051C31.5982 30.3782 32.021 29.8915 31.8909 29.5179C31.8909 29.5179 31.6663 29.7179 31.1405 29.9009C30.6146 30.084 30.1921 30.168 30.1122 29.9386Z" fill="#EBB044"/>
</g>
<defs>
<clipPath id="clip0_241_12974">
<rect width="24" height="24" fill="white" transform="translate(9 9)"/>
</clipPath>
</defs>
</svg>
