<svg width="82" height="82" viewBox="0 0 82 82" fill="none" xmlns="http://www.w3.org/2000/svg">
<g clip-path="url(#clip0_321_1245)">
<path d="M30.5957 53.4828C30.4354 53.4828 30.2757 53.4735 30.1173 53.4546C28.682 53.2833 27.5399 52.3982 26.9013 50.9629C26.6281 50.3485 26.9047 49.629 27.5191 49.3559C28.1331 49.083 28.8528 49.3593 29.1262 49.9735C29.41 50.6117 29.8405 50.9696 30.406 51.0369C31.0702 51.1157 31.8575 50.7797 32.276 50.2361C32.6599 49.7377 32.7986 49.038 32.6382 48.4102C32.5357 48.0093 32.2648 47.4659 31.5566 47.1547C29.447 46.2272 27.0442 47.1159 24.2618 48.1443C19.2224 50.0076 12.9504 52.3265 5.97747 44.0356L3.08969 40.602C2.508 39.9106 2.23124 39.0339 2.31004 38.1337C2.38884 37.2336 2.81406 36.4186 3.50689 35.8388C5.38634 34.2661 7.91938 33.7142 10.2827 34.363L11.7004 34.7521C12.4544 34.9589 13.2619 34.7823 13.8604 34.2787L17.7069 31.0434C18.2215 30.611 18.9894 30.677 19.4222 31.1915C19.8549 31.7061 19.7886 32.4739 19.2742 32.9068L15.4275 36.1422C14.2163 37.1607 12.582 37.5184 11.0557 37.0999L9.63818 36.7107C8.04478 36.2733 6.33687 36.6454 5.06939 37.7059C4.87608 37.8677 4.75756 38.0949 4.73562 38.3461C4.71352 38.5972 4.79071 38.8418 4.95295 39.0347L7.84074 42.4683C13.7116 49.4486 18.426 47.7056 23.4173 45.8605C26.4204 44.7501 29.5257 43.6019 32.5363 44.9253C33.7889 45.4759 34.6629 46.4993 34.9969 47.807C35.3437 49.1639 35.0477 50.6271 34.205 51.7216C33.3667 52.8105 31.9626 53.4828 30.5957 53.4828Z" fill="#FF901D"/>
<path d="M53.4107 34.2592C52.7712 34.2593 52.1291 34.1272 51.5331 33.8613C50.3004 33.3113 49.4389 32.2775 49.1074 30.9502C48.3103 27.7598 49.9654 24.8922 51.566 22.1193C54.2262 17.5106 56.7387 13.1572 50.8477 6.1939L47.9498 2.76862C47.7869 2.57628 47.559 2.45904 47.3077 2.43838C47.0567 2.41692 46.8124 2.4962 46.6205 2.65956C45.3616 3.72989 44.7071 5.35083 44.8696 6.99533L45.0143 8.4582C45.1698 10.0332 44.5415 11.5838 43.3333 12.6059L39.496 15.8523C38.9827 16.287 38.2146 16.2226 37.7803 15.7091C37.3459 15.1958 37.41 14.4277 37.9233 13.9935L41.7605 10.7472C42.3576 10.2422 42.668 9.476 42.5911 8.69763L42.4465 7.23476C42.2054 4.79589 43.1761 2.39226 45.0431 0.804621C45.7314 0.219407 46.6067 -0.0626289 47.5069 0.0116838C48.4075 0.0856763 49.2248 0.506248 49.8084 1.19604L52.7063 4.62148C59.7032 12.8918 56.3604 18.6831 53.6746 23.3366C52.1917 25.9057 50.9111 28.1247 51.4696 30.3603C51.6569 31.1108 52.147 31.4694 52.525 31.6379C53.1169 31.902 53.83 31.8831 54.386 31.5887C54.9922 31.2679 55.4567 30.5494 55.4905 29.8805C55.5191 29.3119 55.239 28.8271 54.6578 28.4397C54.0984 28.0667 53.947 27.3109 54.3199 26.7515C54.6927 26.1921 55.4487 26.0409 56.0081 26.4135C57.3155 27.2848 57.9952 28.5598 57.9223 30.0035C57.8456 31.5203 56.8824 33.0224 55.5252 33.7407C54.8732 34.0855 54.1435 34.2592 53.4107 34.2592Z" fill="#FF901D"/>
<path d="M55.3028 73.7751L47.6446 74.3254L40.4422 81.7202C40.2676 81.8994 40.0278 82.0006 39.7775 82.0006H14.1053C13.2193 82.0006 12.8375 80.8774 13.5398 80.3374L37.0483 62.2616L44.6069 49.6628C45.8739 47.551 48.8033 47.2251 50.5035 49.0067L64.6865 59.8722C66.8302 61.5144 66.963 64.6974 64.9636 66.5126L59.0023 71.9243C57.9638 72.8798 56.679 73.5224 55.3028 73.7751Z" fill="#FED9A8"/>
<path d="M64.6885 59.8714L61.2209 57.2148C61.5938 58.7 61.175 60.3534 59.9339 61.4801L53.9725 66.8918C52.9341 67.8472 51.6493 68.4897 50.2729 68.7425L42.6147 69.2928L30.2383 81.9996H39.7793C40.0296 81.9996 40.2692 81.8985 40.444 81.7192L47.6465 74.3244L55.3047 73.7741C56.6811 73.5214 57.9657 72.8788 59.0044 71.9235L64.9657 66.5118C66.9651 64.6966 66.8323 61.5136 64.6885 59.8714Z" fill="#F4C28C"/>
<path d="M53.8914 53.689L55.3225 55.2284C54.5168 55.3144 53.6912 55.0409 53.1069 54.4124L51.8047 53.0117C52.5533 52.874 53.3446 53.1009 53.8914 53.689Z" fill="#E8D06B"/>
<path d="M72.3302 66.8621L63.2374 74.5094L39.2656 41.7229L43.9846 37.7539L72.3302 66.8621Z" fill="#F7BC14"/>
<path d="M10.4102 28.3083L18.2442 37.6229C23.7996 44.2282 32.5517 47.4739 41.8217 46.3665L47.3183 45.7098L48.9074 40.407C51.5873 31.4639 49.8898 22.2851 44.3343 15.6798L36.5002 6.36523L10.4102 28.3083Z" fill="#FED130"/>
<path d="M44.3368 15.6798L36.5028 6.36523L30.9062 11.0722L39.1662 20.8505C44.7215 27.4558 46.4192 36.6346 43.7393 45.5777L43.5652 46.1584L47.3209 45.7099L48.9099 40.4071C51.5897 31.4641 49.8922 22.2853 44.3368 15.6798Z" fill="#F7BC14"/>
<path d="M38.9677 7.35021L10.9603 30.9058C10.5523 31.2488 9.94343 31.1963 9.60037 30.7884L7.82808 28.681C7.48502 28.2731 7.53755 27.6642 7.94547 27.3211L35.9529 3.76558C36.3608 3.42252 36.9697 3.47505 37.3128 3.88297L39.0851 5.99032C39.4283 6.39824 39.3758 7.00699 38.9677 7.35021Z" fill="#FFB125"/>
<path d="M39.084 5.99032L37.3117 3.88297C36.9686 3.47505 36.3597 3.42252 35.9518 3.76558L31.0039 7.92693L34.0187 11.5116L38.9666 7.35021C39.3747 7.00699 39.4272 6.39824 39.084 5.99032Z" fill="#FF901D"/>
<path d="M30.2828 25.1592L35.2954 27.3561C35.3596 27.3843 35.4338 27.379 35.4934 27.342L40.1448 24.4582C40.295 24.3652 40.4867 24.4846 40.4693 24.6605L39.9289 30.1066C39.922 30.1765 39.9499 30.2453 40.0034 30.2905L44.1833 33.8231C44.3183 33.9371 44.2639 34.1565 44.0912 34.1943L38.7447 35.3633C38.6762 35.3784 38.6193 35.4261 38.5929 35.4911L36.5248 40.5582C36.458 40.7218 36.2325 40.7378 36.1433 40.5852L33.3793 35.8615C33.3439 35.801 33.2808 35.7618 33.2108 35.7566L27.7527 35.3556C27.5763 35.3426 27.4914 35.1332 27.609 35.0012L31.2473 30.9129C31.2939 30.8605 31.3118 30.7884 31.295 30.7202L29.9897 25.4052C29.9479 25.2339 30.1209 25.0883 30.2828 25.1592Z" fill="white"/>
<path d="M79.1377 66.2048L62.0581 80.5696C61.3168 81.1933 60.1942 81.012 59.6868 80.1867L56.8639 75.5955C56.4525 74.9265 56.5929 74.057 57.194 73.5515L73.0571 60.21C73.6581 59.7045 74.5387 59.7151 75.1274 60.2351L79.1669 63.8033C79.893 64.4444 79.8793 65.5812 79.1377 66.2048Z" fill="#FFB125"/>
<path d="M79.1679 63.8032L75.1284 60.2351C74.5398 59.7152 73.6591 59.7045 73.0581 60.2099L68.4297 64.1027L74.8722 69.7934L79.1388 66.2051C79.8803 65.5814 79.8941 64.4446 79.1679 63.8032Z" fill="#FF901D"/>
<path d="M61.8613 66.2593C63.0181 67.5055 64.9663 67.5776 66.212 66.4203L70.065 62.8408C71.3101 61.6841 71.3821 59.7372 70.2258 58.4917C69.069 57.2455 67.1208 57.1735 65.8751 58.3308L62.0221 61.9103C60.777 63.0669 60.705 65.0138 61.8613 66.2593Z" fill="#F4C28C"/>
<path d="M62.0221 61.9103L65.8752 58.3308C67.1209 57.1735 69.069 57.2455 70.2258 58.4917C70.8966 59.2143 71.1532 60.1729 71.0079 61.0763C69.8359 60.0776 68.0757 60.0925 66.9199 61.1662L63.0668 64.7457C62.5441 65.2313 62.229 65.8564 62.1238 66.5101C62.0327 66.4325 61.9446 66.3493 61.8612 66.2595C60.705 65.0139 60.7771 63.0671 62.0221 61.9103Z" fill="#FED9A8"/>
<path d="M58.7721 60.7058C59.9464 61.9707 61.924 62.0439 63.1885 60.8691L66.9735 57.3529C68.2373 56.1788 68.3105 54.2024 67.1367 52.9382C65.9624 51.6732 63.9848 51.6 62.7203 52.7748L58.9353 56.291C57.6715 57.4652 57.5984 59.4413 58.7721 60.7058Z" fill="#F4C28C"/>
<path d="M58.9353 56.291L62.7203 52.7748C63.9849 51.6 65.9624 51.6732 67.1367 52.9382C67.8093 53.6629 68.0717 54.6212 67.9358 55.5287C66.7462 54.4933 64.9425 54.5013 63.761 55.5988L59.976 59.1151C59.4366 59.6162 59.1149 60.2637 59.0137 60.9394C58.9301 60.8667 58.8492 60.789 58.7721 60.7059C57.5984 59.4415 57.6715 57.4653 58.9353 56.291Z" fill="#FED9A8"/>
<path d="M54.4986 56.1667C55.6729 57.4316 57.6505 57.5048 58.915 56.3301L62.6999 52.8138C63.9637 51.6397 64.0369 49.6634 62.8631 48.3991C61.6889 47.1342 59.7113 47.061 58.4468 48.2357L54.6618 51.752C53.398 52.9263 53.325 54.9024 54.4986 56.1667Z" fill="#F4C28C"/>
<path d="M54.662 51.752L58.447 48.2357C59.7116 47.061 61.689 47.1342 62.8633 48.3991C62.9443 48.4864 63.0188 48.5774 63.088 48.6709C62.4013 48.7191 61.7259 48.9928 61.1821 49.4979L57.3971 53.0142C56.2205 54.1072 56.0765 55.8954 57.0092 57.1571C56.0986 57.221 55.1682 56.8879 54.4988 56.1667C53.325 54.9024 53.398 52.9262 54.662 51.752Z" fill="#FED9A8"/>
<path d="M50.3854 51.4558C51.5596 52.7207 53.5373 52.7939 54.8017 51.6191L58.5867 48.1029C59.8505 46.9288 59.9237 44.9524 58.7499 43.6882C57.5756 42.4232 55.598 42.35 54.3336 43.5248L50.5486 47.0411C49.2848 48.2152 49.2117 50.1915 50.3854 51.4558Z" fill="#F4C28C"/>
<path d="M50.5486 47.0411L54.3336 43.5248C55.5982 42.35 57.5756 42.4232 58.7499 43.6882C59.4219 44.4121 59.6844 45.3693 59.5496 46.2758C58.3599 45.2385 56.5548 45.2459 55.3725 46.3442L51.5875 49.8605C51.0473 50.3624 50.7254 51.0109 50.6246 51.6876C50.5418 51.6153 50.4618 51.5383 50.3854 51.456C49.2117 50.1915 49.2848 48.2152 50.5486 47.0411Z" fill="#FED9A8"/>
<path d="M57.6192 53.8476L56.9173 54.4997C55.813 55.5257 54.1088 55.4864 53.11 54.4123L51.3428 52.5114C50.4778 51.5809 49.0001 51.5519 48.0494 52.4467C48.5814 60.6784 37.0508 62.2616 37.0508 62.2616L41.9517 50.2066C42.254 49.3073 42.7769 48.4926 43.4719 47.8383L46.9526 44.5625C48.6448 42.9699 51.2749 43.0205 52.816 44.6757L57.8093 50.039C58.8105 51.1139 58.7253 52.82 57.6192 53.8476Z" fill="#FED9A8"/>
</g>
<defs>
<clipPath id="clip0_321_1245">
<rect width="82" height="82" fill="white"/>
</clipPath>
</defs>
</svg>
