<svg width="42" height="42" viewBox="0 0 42 42" fill="none" xmlns="http://www.w3.org/2000/svg">
<circle cx="21" cy="21" r="20.5" fill="#EEF3FA" stroke="#C2D3EC"/>
<path d="M19.4752 32.357C19.2811 32.3575 19.0944 32.2826 18.9545 32.1481C18.8146 32.0135 18.7324 31.8299 18.7252 31.6359C18.669 30.0562 18.6709 26.2481 19.8484 23.9436C21.195 21.3081 21.0549 18.8248 20.8234 17.1433C20.6595 15.957 19.8377 13.7632 19.2189 12.4877C19.1729 12.3919 19.1463 12.288 19.1407 12.1819C19.1351 12.0758 19.1507 11.9696 19.1864 11.8695C19.2222 11.7695 19.2774 11.6775 19.349 11.599C19.4206 11.5204 19.507 11.4569 19.6033 11.412C19.6994 11.367 19.8034 11.3414 19.9095 11.3367C20.0155 11.3321 20.1214 11.3484 20.2211 11.3849C20.3207 11.4213 20.4122 11.4771 20.4902 11.549C20.5682 11.621 20.6312 11.7077 20.6756 11.8041C21.1989 12.9377 22.1465 15.183 22.3774 17.0278C22.7096 19.6817 22.4501 21.5865 21.3583 24.0966C20.5146 26.0374 20.1892 29.1499 20.2243 31.6001C20.2255 31.6992 20.207 31.7975 20.1699 31.8894C20.1327 31.9812 20.0777 32.0648 20.008 32.1352C19.9384 32.2056 19.8554 32.2615 19.7639 32.2996C19.6724 32.3377 19.5743 32.3572 19.4752 32.357Z" fill="#488DEF"/>
<path d="M22.4872 31.7721L22.5003 31.7706C22.6033 31.7585 22.7027 31.7255 22.7924 31.6735C22.8821 31.6216 22.9602 31.5518 23.0219 31.4685C23.0836 31.3852 23.1276 31.2901 23.1511 31.1891C23.1747 31.0882 23.1773 30.9835 23.1588 30.8815C22.8341 29.094 22.7025 27.7103 22.8453 26.5152C23.0891 24.4735 23.9066 22.9821 24.0864 20.968C24.3056 18.514 23.5837 16.5943 24.8325 13.0403C24.8669 12.942 24.8813 12.8378 24.8748 12.7339C24.8682 12.63 24.8409 12.5284 24.7945 12.4353C24.7481 12.3421 24.6834 12.2591 24.6043 12.1914C24.5253 12.1236 24.4335 12.0724 24.3343 12.0407L24.3138 12.0343C24.1233 11.9723 23.9161 11.9861 23.7355 12.0729C23.5548 12.1596 23.4145 12.3126 23.3437 12.5001C22.1235 15.849 22.7154 18.9566 22.6275 20.8403C22.5226 23.0852 21.6071 24.2608 21.3358 26.4265C21.189 27.5978 21.3281 29.059 21.6493 31.1357C21.6796 31.3295 21.7838 31.5041 21.94 31.6227C22.0963 31.7414 22.2924 31.7949 22.4872 31.7721Z" fill="#CC336E"/>
<path d="M21.6515 24.9012C22.739 24.8538 23.3051 24.8144 24.1038 24.0308C24.2261 23.9119 24.3716 23.8197 24.5313 23.7599C25.8346 23.2664 26.9501 21.2594 30.636 20.2895C31.397 20.1938 32.6763 19.6206 32.5535 18.4109C32.5269 18.1484 32.415 17.3826 31.4167 17.0234C29.537 16.3484 25.5028 15.7731 22.868 16.2083C19.0494 16.8393 19.226 15.2487 16.157 16.0568C14.492 16.4043 11.6981 17.4888 11.7791 21.6745C11.8106 23.3029 13.1771 25.3557 14.7041 25.9476C15.9494 26.4306 16.8041 26.8761 17.7215 26.6543C19.2536 26.284 19.3303 25.0023 21.6515 24.9012Z" fill="#FFB255"/>
<path d="M29.5302 19.1598C29.5056 19.0894 29.4541 19.0316 29.3869 18.9992C29.3197 18.9668 29.2425 18.9624 29.172 18.9869C28.2139 19.3214 27.42 19.2136 26.322 19.0644C25.827 18.997 25.267 18.9228 24.6184 18.8789C25.1911 18.4663 25.8748 18.2356 26.5804 18.2169C26.9764 18.1829 27.3184 18.1531 27.5256 17.8945C27.5487 17.8657 27.5659 17.8326 27.5762 17.7971C27.5864 17.7617 27.5897 17.7245 27.5856 17.6878C27.5815 17.6511 27.5703 17.6155 27.5525 17.5832C27.5347 17.5508 27.5107 17.5223 27.4818 17.4992C27.453 17.4761 27.4199 17.4589 27.3844 17.4486C27.3489 17.4383 27.3118 17.4351 27.2751 17.4392C27.2384 17.4433 27.2028 17.4545 27.1705 17.4723C27.1381 17.4901 27.1096 17.5141 27.0865 17.543C27.0302 17.6135 26.7769 17.6354 26.532 17.6566C25.8615 17.7144 24.8567 17.804 23.7816 18.853C21.1238 18.8812 19.3506 20.0185 17.7743 21.0325C17.3674 21.2941 16.9754 21.5454 16.585 21.7677C16.7759 21.0438 17.1475 20.489 17.5412 19.9115C17.9412 19.3246 18.3552 18.7177 18.5684 17.9159C18.5779 17.8802 18.5802 17.843 18.5754 17.8064C18.5705 17.7697 18.5584 17.7344 18.5399 17.7025C18.5214 17.6705 18.4967 17.6425 18.4674 17.6201C18.438 17.5976 18.4046 17.5812 18.3689 17.5717C18.3332 17.5622 18.2959 17.5598 18.2593 17.5647C18.2227 17.5695 18.1874 17.5816 18.1554 17.6001C18.1234 17.6186 18.0954 17.6433 18.073 17.6726C18.0506 17.702 18.0341 17.7355 18.0246 17.7712C17.836 18.4803 17.4668 19.0216 17.076 19.5946C16.5942 20.3015 16.101 21.0354 15.9424 22.1019C15.0729 22.5493 14.0782 22.6914 13.1181 22.5054C13.0453 22.4917 12.9702 22.5074 12.9088 22.5488C12.8475 22.5903 12.805 22.6543 12.7906 22.7269C12.7761 22.7995 12.7909 22.8748 12.8316 22.9366C12.8723 22.9984 12.9358 23.0417 13.0082 23.057C13.3192 23.1197 13.6356 23.1516 13.9529 23.1522C15.5179 23.1522 16.768 22.3484 18.0779 21.5056C18.5592 21.196 19.0605 20.8754 19.6 20.5799C20.1884 21.0432 20.9025 21.0807 21.5955 21.1158C22.1639 21.1445 22.7517 21.1743 23.28 21.4389C23.3131 21.4557 23.3492 21.4659 23.3862 21.4688C23.4232 21.4717 23.4604 21.4672 23.4957 21.4556C23.5309 21.4441 23.5636 21.4256 23.5917 21.4014C23.6198 21.3771 23.6428 21.3476 23.6594 21.3144C23.6761 21.2812 23.686 21.2451 23.6885 21.208C23.6911 21.171 23.6864 21.1338 23.6745 21.0987C23.6627 21.0635 23.644 21.031 23.6196 21.0031C23.5951 20.9752 23.5654 20.9523 23.532 20.936C22.8979 20.6184 22.221 20.584 21.6239 20.554C21.0752 20.5263 20.5847 20.4993 20.176 20.2844C21.4918 19.6327 22.9555 19.3375 24.421 19.4283C25.1205 19.4688 25.7177 19.55 26.245 19.6216C27.3763 19.7754 28.2711 19.8969 29.3575 19.5179C29.4278 19.4933 29.4856 19.4418 29.5179 19.3746C29.5503 19.3074 29.5547 19.2302 29.5302 19.1598Z" fill="#F48345"/>
<path d="M29.2546 29.0701C29.1588 28.0145 28.6013 27.0974 28.2308 26.7492C28.0418 26.5712 27.8778 26.3684 27.7433 26.1462C27.4433 25.6527 26.5666 25.0387 25.3267 24.8649C25.0829 24.8299 24.8463 24.7566 24.6254 24.6477C22.8269 23.7691 20.2928 24.4854 19.4677 25.1322L19.483 25.121C18.208 25.886 16.1408 25.6085 15.5776 24.9357C15.3898 24.7093 15.1577 24.5237 14.8955 24.3903C13.7725 23.8289 13.7705 22.6752 13.7292 21.8591C13.7195 21.73 13.6858 21.6038 13.6298 21.4871C13.2736 20.7329 14.0798 20.2524 13.9516 19.4752C13.8966 19.1729 13.9178 18.8616 14.0133 18.5696C14.1064 18.3011 14.269 18.062 14.4845 17.8768C14.6999 17.6915 14.9607 17.5667 15.2401 17.5149C15.7861 17.3975 16.3088 16.8866 16.6651 16.5607C16.8578 16.4035 17.0958 16.3122 17.3442 16.3003C18.5315 16.3003 19.613 15.7709 19.4909 14.3913C19.3342 12.6101 17.7805 12.2339 16.7534 12.5662C16.4924 12.6445 16.2227 12.6904 15.9505 12.7027C15.1411 12.7633 14.3663 13.0563 13.7193 13.5464C13.633 13.6194 13.5339 13.6759 13.4271 13.7129C12.3942 14.0683 11.1042 15.0746 10.8335 16.0989C10.8143 16.1725 10.7883 16.2442 10.7558 16.313C10.3808 17.0313 9.60196 18.2769 9.81346 19.6908C9.84354 19.9082 9.82058 20.1296 9.74652 20.3362C9.37152 21.4201 9.42571 23.9701 10.3992 25.2674C10.5033 25.4081 10.5855 25.5636 10.643 25.7289C10.9045 26.4616 11.8786 27.7477 12.9552 28.2026C13.0698 28.2522 13.178 28.3155 13.2773 28.3912C14.3176 29.1525 15.6015 29.5047 16.8847 29.381C16.9711 29.3735 17.0582 29.3791 17.143 29.3977C18.3751 29.6645 19.8878 29.5029 21.0127 28.8093C21.2331 28.6843 21.4848 28.6252 21.7379 28.6389C22.6073 28.6531 22.8925 28.4472 23.5478 28.4675C24.4372 28.4951 25.4791 28.9297 25.907 29.9579C26.2769 30.8474 27.3766 31.0902 27.9728 30.8816C28.5288 30.6877 29.366 30.2996 29.2546 29.0701Z" fill="#FF5082"/>
<path d="M17.6841 25.9036C16.6877 25.9036 15.7377 25.5682 15.3591 25.1161C15.1964 24.919 14.9948 24.7576 14.767 24.6418C13.5482 24.0326 13.4899 22.8022 13.4511 21.9881L13.4457 21.8741C13.4376 21.7801 13.4121 21.6885 13.3707 21.6039C13.1218 21.077 13.3238 20.6386 13.486 20.2861C13.6254 20.0565 13.69 19.7893 13.671 19.5213C13.6092 19.1704 13.6353 18.8097 13.747 18.4713C13.8567 18.1588 14.0467 17.8807 14.2978 17.6648C14.5489 17.4488 14.8524 17.3027 15.1778 17.241C15.609 17.1483 16.0613 16.7321 16.3915 16.4283L16.4719 16.3533C16.717 16.1488 17.0231 16.0313 17.3421 16.0192C17.7911 16.0364 18.2362 15.9302 18.6291 15.7121C18.6925 15.6728 18.769 15.6603 18.8416 15.6774C18.9142 15.6945 18.9771 15.7397 19.0164 15.8031C19.0557 15.8665 19.0681 15.943 19.0511 16.0156C19.034 16.0882 18.9888 16.1511 18.9253 16.1904C18.4436 16.464 17.8958 16.5994 17.3421 16.5817C17.1637 16.5939 16.9931 16.6592 16.8522 16.7692L16.7734 16.8414C16.3956 17.1892 15.8785 17.6655 15.297 17.7905C15.0638 17.8329 14.8461 17.9366 14.6664 18.0911C14.4866 18.2456 14.3512 18.4452 14.2742 18.6693C14.1956 18.915 14.1793 19.1763 14.2268 19.4298C14.2683 19.809 14.1882 20.1915 13.9978 20.522C13.8355 20.8749 13.75 21.0881 13.882 21.3676C13.9535 21.5172 13.9961 21.6789 14.0076 21.8443L14.0132 21.9618C14.0507 22.7658 14.095 23.6771 15.0186 24.1389C15.3154 24.2891 15.5781 24.4988 15.7903 24.755C16.2276 25.2772 18.1716 25.6813 19.3056 24.9009C20.1568 24.3149 22.234 23.6602 23.9895 24.1179C24.0267 24.1258 24.0619 24.1412 24.0929 24.163C24.124 24.1849 24.1503 24.2129 24.1703 24.2452C24.1903 24.2776 24.2035 24.3136 24.2091 24.3512C24.2147 24.3888 24.2127 24.4271 24.2031 24.4639C24.1935 24.5007 24.1766 24.5351 24.1533 24.5652C24.13 24.5952 24.1009 24.6203 24.0677 24.6387C24.0345 24.6572 23.9979 24.6688 23.9601 24.6727C23.9223 24.6766 23.8841 24.6729 23.8478 24.6616C22.2051 24.2347 20.2868 24.908 19.6245 25.3636C19.0462 25.7334 18.3703 25.9215 17.6841 25.9036Z" fill="#CC336E"/>
</svg>
