<?xml version="1.0" encoding="utf-8"?>
<!-- Generator: Adobe Illustrator 27.1.0, SVG Export Plug-In . SVG Version: 6.00 Build 0)  -->
<svg version="1.1" id="Layer_1" xmlns="http://www.w3.org/2000/svg" xmlns:xlink="http://www.w3.org/1999/xlink" x="0px" y="0px"
	 viewBox="0 0 18 16" style="enable-background:new 0 0 18 16;" xml:space="preserve">
<style type="text/css">
	.st0{fill:#5D586C;}
</style>
<path class="st0" d="M12.7,0c-0.8,0-1.6,0.3-2.3,0.7C9.7,1.1,9.1,1.8,8.7,2.5c-0.4-0.7-1-1.4-1.7-1.8C6.3,0.3,5.5,0,4.7,0
	C3.4,0.1,2.2,0.7,1.3,1.7C0.4,2.7,0,4,0,5.3c0,3.4,3.5,7.2,6.4,9.8C7.1,15.7,7.9,16,8.7,16c0.9,0,1.7-0.3,2.3-0.9
	c2.9-2.6,6.4-6.3,6.4-9.8c0-1.4-0.4-2.7-1.3-3.7C15.3,0.7,14,0.1,12.7,0z M10.1,14c-0.4,0.3-0.9,0.5-1.4,0.5c-0.5,0-1-0.2-1.4-0.5
	c-3.7-3.3-5.9-6.4-5.9-8.6c0-1,0.3-1.9,0.9-2.6C2.9,2,3.8,1.6,4.7,1.5C5.6,1.6,6.5,2,7.1,2.7C7.7,3.4,8,4.4,8,5.3
	c0,0.2,0.1,0.4,0.2,0.5C8.3,6,8.5,6.1,8.7,6.1c0.2,0,0.4-0.1,0.5-0.2c0.1-0.1,0.2-0.3,0.2-0.5c0-1,0.3-1.9,0.9-2.6
	c0.6-0.7,1.5-1.2,2.4-1.2c0.9,0.1,1.8,0.5,2.4,1.2C15.7,3.4,16,4.4,16,5.3C16,7.5,13.9,10.7,10.1,14L10.1,14z"/>
</svg>
