<svg width="12" height="14" viewBox="0 0 12 14" fill="none" xmlns="http://www.w3.org/2000/svg">
<path d="M12 2V8C12 8.13261 11.9425 8.25979 11.8402 8.35355C11.7379 8.44732 11.5992 8.5 11.4545 8.5H6.54545C6.40079 8.5 6.26205 8.44732 6.15976 8.35355C6.05747 8.25979 6 8.13261 6 8V7H1.09091V13.5C1.09091 13.6326 1.03344 13.7598 0.931149 13.8536C0.828857 13.9473 0.690118 14 0.545455 14C0.400791 14 0.262053 13.9473 0.15976 13.8536C0.0574675 13.7598 0 13.6326 0 13.5V0.5C0 0.367392 0.0574675 0.240215 0.15976 0.146447C0.262053 0.0526784 0.400791 0 0.545455 0H6.54545C6.69012 0 6.82886 0.0526784 6.93115 0.146447C7.03344 0.240215 7.09091 0.367392 7.09091 0.5V1.5H11.4545C11.5992 1.5 11.7379 1.55268 11.8402 1.64645C11.9425 1.74021 12 1.86739 12 2Z" fill="white"/>
</svg>
