<svg width="36" height="35" viewBox="0 0 36 35" fill="none" xmlns="http://www.w3.org/2000/svg">
<rect x="0.5" y="0.0791016" width="35" height="34.0278" rx="4" fill="url(#paint0_linear_227_8921)"/>
<path d="M24.8064 10.3416V18.3624C24.8064 18.5397 24.7412 18.7097 24.6252 18.835C24.5092 18.9604 24.3518 19.0308 24.1877 19.0308H18.6196C18.4555 19.0308 18.2981 18.9604 18.1821 18.835C18.0661 18.7097 18.0009 18.5397 18.0009 18.3624V17.0256H12.4327V25.7148C12.4327 25.8921 12.3675 26.0621 12.2515 26.1875C12.1355 26.3128 11.9781 26.3832 11.814 26.3832C11.6499 26.3832 11.4925 26.3128 11.3765 26.1875C11.2605 26.0621 11.1953 25.8921 11.1953 25.7148V8.33637C11.1953 8.1591 11.2605 7.98909 11.3765 7.86374C11.4925 7.73839 11.6499 7.66797 11.814 7.66797H18.6196C18.7836 7.66797 18.941 7.73839 19.057 7.86374C19.1731 7.98909 19.2382 8.1591 19.2382 8.33637V9.67318H24.1877C24.3518 9.67318 24.5092 9.7436 24.6252 9.86895C24.7412 9.9943 24.8064 10.1643 24.8064 10.3416Z" fill="white"/>
<defs>
<linearGradient id="paint0_linear_227_8921" x1="0.5" y1="34.1069" x2="34.5143" y2="-0.879237" gradientUnits="userSpaceOnUse">
<stop stop-color="#EA5455"/>
<stop offset="1" stop-color="#EA5455"/>
</linearGradient>
</defs>
</svg>
