<svg width="14" height="15" viewBox="0 0 14 15" fill="none" xmlns="http://www.w3.org/2000/svg">
<g clip-path="url(#clip0_227_9089)">
<path d="M2.89844 14.1064H11.1016C11.7801 14.1064 12.332 13.5545 12.332 12.876V4.20801H9.46094C8.78243 4.20801 8.23047 3.65605 8.23047 2.97754V0.106445H2.89844C2.21993 0.106445 1.66797 0.658406 1.66797 1.33691V12.876C1.66797 13.5545 2.21993 14.1064 2.89844 14.1064ZM4.53906 5.87598H9.46094C9.68764 5.87598 9.87109 6.05943 9.87109 6.28613C9.87109 6.51284 9.68764 6.69629 9.46094 6.69629H4.53906C4.31236 6.69629 4.12891 6.51284 4.12891 6.28613C4.12891 6.05943 4.31236 5.87598 4.53906 5.87598ZM4.53906 7.5166H9.46094C9.68764 7.5166 9.87109 7.70005 9.87109 7.92676C9.87109 8.15347 9.68764 8.33691 9.46094 8.33691H4.53906C4.31236 8.33691 4.12891 8.15347 4.12891 7.92676C4.12891 7.70005 4.31236 7.5166 4.53906 7.5166ZM4.53906 9.15723H9.46094C9.68764 9.15723 9.87109 9.34068 9.87109 9.56738C9.87109 9.79409 9.68764 9.97754 9.46094 9.97754H4.53906C4.31236 9.97754 4.12891 9.79409 4.12891 9.56738C4.12891 9.34068 4.31236 9.15723 4.53906 9.15723ZM4.53906 10.7979H7.82031C8.04702 10.7979 8.23047 10.9813 8.23047 11.208C8.23047 11.4347 8.04702 11.6182 7.82031 11.6182H4.53906C4.31236 11.6182 4.12891 11.4347 4.12891 11.208C4.12891 10.9813 4.31236 10.7979 4.53906 10.7979Z" fill="#67768B"/>
<path d="M9.46094 3.38761H12.0917L9.05078 0.34668V2.97745C9.05078 3.20375 9.23464 3.38761 9.46094 3.38761Z" fill="#67768B"/>
</g>
<defs>
<clipPath id="clip0_227_9089">
<rect width="14" height="14" fill="white" transform="translate(0 0.106445)"/>
</clipPath>
</defs>
</svg>
