<svg width="42" height="42" viewBox="0 0 42 42" fill="none" xmlns="http://www.w3.org/2000/svg">
<circle cx="21" cy="21" r="20.5" fill="#EEF3FA" stroke="#C2D3EC"/>
<g clip-path="url(#clip0_184_21452)">
<path d="M18.0228 19.5253L14.9247 18.0851C15.054 17.1772 14.7106 16.3659 14.0383 16.0533C13.5859 15.843 13.0589 15.8824 12.5543 16.1641C12.0868 16.4252 11.6893 16.8701 11.4351 17.4168C10.8927 18.5837 11.1778 19.8708 12.0707 20.2858C12.7429 20.5984 13.5846 20.338 14.1954 19.6539L17.7244 21.2944C17.7715 21.3163 17.8221 21.3272 17.8724 21.3272C17.9383 21.3272 18.0038 21.3087 18.0612 21.2722C18.1623 21.2079 18.2236 21.0964 18.2239 20.9765L18.226 19.8447C18.2263 19.7076 18.1469 19.5831 18.0228 19.5253Z" fill="#F2CA5A"/>
<path d="M32.914 13.082C32.6451 11.803 31.8256 10.9106 30.7216 10.6951C29.6749 10.4908 28.7724 10.9127 27.9762 11.285C26.9044 11.7863 26.1301 12.1483 25.2236 11.116C23.3673 9.00162 21.2585 9.02229 21 9.03298C20.7416 9.02196 18.6327 9.00172 16.7764 11.1159C15.8699 12.1484 15.0956 11.7863 14.0239 11.2849C13.2277 10.9127 12.3251 10.4905 11.2784 10.695C10.1806 10.9094 9.33824 11.8354 9.08014 13.1115C8.79875 14.5026 9.20061 16.6097 11.2153 18.0791C11.2602 17.8582 11.3329 17.6349 11.4347 17.4158C11.6541 16.9436 11.9807 16.5477 12.3668 16.2803C10.9714 14.6129 11.1509 13.7542 11.3008 13.4543C11.4429 13.1702 11.6136 13.0021 11.8228 12.9402C12.3356 12.7886 13.1233 13.2534 13.7563 13.6267C13.9311 13.7298 14.0962 13.8272 14.2568 13.914C14.6986 14.1529 14.9472 14.8674 15.2104 15.6238C15.5664 16.6473 15.97 17.8073 17.0459 18.1099C17.5342 18.2472 17.5656 18.7126 17.5235 19.8217L17.5232 19.8294C17.523 19.8337 17.5229 19.8379 17.5229 19.8421L17.5208 20.9729C17.5208 20.9811 17.521 20.9893 17.5216 20.9974C17.7168 23.8712 18.1064 24.6867 18.3288 24.9708V31.211C18.3288 32.1797 19.1168 32.9678 20.0855 32.9678H21.9145C22.8832 32.9678 23.6713 32.1797 23.6713 31.211V24.978C24.5607 24.0084 24.5162 22.2886 24.4769 20.7643C24.4451 19.5343 24.4123 18.2624 24.9541 18.11C26.0301 17.8074 26.4336 16.6473 26.7897 15.6239C27.0529 14.8675 27.3015 14.153 27.7432 13.9141C27.9038 13.8272 28.0689 13.7298 28.2438 13.6268C28.8767 13.2535 29.6642 12.7891 30.1772 12.9403C30.3864 13.0021 30.5571 13.1702 30.6992 13.4544C30.8855 13.8268 30.8254 14.3321 30.5209 14.956C30.289 15.431 29.9547 15.8888 29.663 16.2432C30.064 16.5017 30.4206 16.9058 30.6578 17.4158C30.7507 17.6156 30.8187 17.8188 30.8642 18.0206C32.8265 16.5407 33.2022 14.4532 32.914 13.082Z" fill="#F77474"/>
<path d="M30.6568 17.4154C30.1144 16.2485 28.9467 15.6368 28.0536 16.0519C27.3813 16.3645 27.0379 17.176 27.1674 18.0841L23.9607 19.5793C23.8348 19.638 23.7553 19.7656 23.7579 19.9045L23.7782 20.9641C23.7805 21.0822 23.8418 21.1911 23.9415 21.2542C23.9986 21.2904 24.0639 21.3087 24.1295 21.3087C24.1785 21.3087 24.2277 21.2984 24.2736 21.2778L27.8942 19.6497C28.5051 20.3359 29.348 20.5974 30.0213 20.2844C30.9141 19.8694 31.1993 18.5824 30.6568 17.4154Z" fill="#FFAE47"/>
<path d="M32.914 13.082C32.6451 11.803 31.8256 10.9106 30.7217 10.6951C29.6749 10.4908 28.7724 10.9127 27.9762 11.285C26.9045 11.7863 26.1301 12.1483 25.2236 11.1159C24.0147 9.73909 22.6989 9.26777 21.8567 9.10938C22.9748 10.2699 23.4815 12.2386 23.5478 13.1316C23.6675 14.7438 20.8964 12.6402 21.9907 32.6145C21.9955 32.7361 22.0115 32.8522 22.0366 32.9632C22.9485 32.9003 23.6713 32.1388 23.6713 31.2111V24.978C24.5608 24.0085 24.5163 22.2886 24.477 20.7643C24.4452 19.5343 24.4124 18.2624 24.9542 18.11C26.0302 17.8074 26.4337 16.6474 26.7898 15.624C27.0529 14.8675 27.3015 14.153 27.7433 13.9141C27.9039 13.8272 28.069 13.7298 28.2438 13.6268C28.8768 13.2535 29.6643 12.7891 30.1773 12.9404C30.3864 13.0021 30.5572 13.1702 30.6993 13.4544C30.8855 13.8269 30.8255 14.3321 30.5209 14.956C30.2891 15.431 29.9547 15.8888 29.6631 16.2433C30.064 16.5018 30.4207 16.9058 30.6579 17.4158C30.7507 17.6156 30.8188 17.8188 30.8642 18.0207C32.8266 16.5407 33.2022 14.4532 32.914 13.082Z" fill="#E55555"/>
<path d="M25.1084 12.9205C25.0314 12.8187 24.905 12.7668 24.7789 12.7847C24.7558 12.788 22.4586 13.112 20.998 13.112C19.5375 13.112 17.2403 12.788 17.2172 12.7847C17.0909 12.7669 16.9646 12.8188 16.8876 12.9205C16.8106 13.0223 16.7948 13.1578 16.8464 13.2746C16.988 13.5952 18.2468 16.4241 18.8247 17.0505C19.3205 17.5879 19.2788 18.9921 19.242 20.231C19.2035 21.528 19.1723 22.5799 19.6553 23.0483V32.6176C19.6553 32.8117 19.8127 32.969 20.0067 32.969H21.9894C22.1835 32.969 22.3408 32.8117 22.3408 32.6176V23.0481C22.8239 22.5797 22.7927 21.5279 22.7541 20.2308C22.7173 18.992 22.6756 17.5878 23.1715 17.0504C23.7494 16.424 25.0081 13.595 25.1497 13.2745C25.2012 13.1578 25.1855 13.0223 25.1084 12.9205Z" fill="#9B3E2C"/>
<path d="M25.1104 12.9205C25.0334 12.8187 24.907 12.7668 24.7809 12.7847C24.7698 12.7863 24.2377 12.8613 23.5258 12.9391C23.5915 13.0385 23.6033 13.1647 23.5548 13.2746C23.4132 13.5952 22.1544 16.4241 21.5766 17.0505C21.0807 17.5879 21.1225 18.9921 21.1592 20.231C21.1978 21.528 21.2289 22.5799 20.7459 23.0483V32.6176C20.7459 32.8117 20.5886 32.969 20.3945 32.969H21.9914C22.1855 32.969 22.3427 32.8117 22.3427 32.6176V23.0481C22.8258 22.5797 22.7946 21.5279 22.7561 20.2308C22.7192 18.992 22.6776 17.5878 23.1734 17.0504C23.7513 16.424 25.01 13.595 25.1517 13.2745C25.2032 13.1578 25.1874 13.0223 25.1104 12.9205Z" fill="#7A232E"/>
</g>
<defs>
<clipPath id="clip0_184_21452">
<rect width="24" height="24" fill="white" transform="translate(9 9)"/>
</clipPath>
</defs>
</svg>
