<svg width="15" height="16" viewBox="0 0 15 16" fill="none" xmlns="http://www.w3.org/2000/svg">
<path d="M14.4506 6.03537L9.71 0.975001C9.12327 0.35062 8.32854 0 7.5 0C6.67146 0 5.87672 0.35062 5.29 0.975001L0.549382 6.03537C0.374648 6.22067 0.236113 6.44114 0.141809 6.68401C0.0475045 6.92688 -0.000694 7.18731 7.54967e-06 7.45021V13.9988C7.54967e-06 14.5296 0.197551 15.0386 0.549182 15.4139C0.900812 15.7892 1.37773 16 1.87501 16H13.125C13.6223 16 14.0992 15.7892 14.4508 15.4139C14.8024 15.0386 15 14.5296 15 13.9988V7.45021C15.0007 7.18731 14.9525 6.92688 14.8582 6.68401C14.7639 6.44114 14.6254 6.22067 14.4506 6.03537ZM9.375 14.6659H5.625V12.0416C5.625 11.5109 5.82255 11.0019 6.17418 10.6266C6.52581 10.2513 7.00272 10.0404 7.5 10.0404C7.99728 10.0404 8.47419 10.2513 8.82582 10.6266C9.17745 11.0019 9.375 11.5109 9.375 12.0416V14.6659ZM13.75 13.9988C13.75 14.1757 13.6841 14.3454 13.5669 14.4705C13.4497 14.5956 13.2908 14.6659 13.125 14.6659H10.625V12.0416C10.625 11.157 10.2958 10.3087 9.70971 9.68319C9.12366 9.0577 8.3288 8.7063 7.5 8.7063C6.6712 8.7063 5.87634 9.0577 5.29029 9.68319C4.70424 10.3087 4.375 11.157 4.375 12.0416V14.6659H1.87501C1.70925 14.6659 1.55027 14.5956 1.43306 14.4705C1.31585 14.3454 1.25001 14.1757 1.25001 13.9988V7.45021C1.25059 7.27343 1.31637 7.104 1.43313 6.9786L6.17375 1.92023C6.52606 1.54596 7.00292 1.33585 7.5 1.33585C7.99708 1.33585 8.47394 1.54596 8.82625 1.92023L13.5669 6.9806C13.6832 7.1055 13.7489 7.27412 13.75 7.45021V13.9988Z" fill="#4B465C"/>
<path d="M14.4506 6.03537L9.71 0.975001C9.12327 0.35062 8.32854 0 7.5 0C6.67146 0 5.87672 0.35062 5.29 0.975001L0.549382 6.03537C0.374648 6.22067 0.236113 6.44114 0.141809 6.68401C0.0475045 6.92688 -0.000694 7.18731 7.54967e-06 7.45021V13.9988C7.54967e-06 14.5296 0.197551 15.0386 0.549182 15.4139C0.900812 15.7892 1.37773 16 1.87501 16H13.125C13.6223 16 14.0992 15.7892 14.4508 15.4139C14.8024 15.0386 15 14.5296 15 13.9988V7.45021C15.0007 7.18731 14.9525 6.92688 14.8582 6.68401C14.7639 6.44114 14.6254 6.22067 14.4506 6.03537ZM9.375 14.6659H5.625V12.0416C5.625 11.5109 5.82255 11.0019 6.17418 10.6266C6.52581 10.2513 7.00272 10.0404 7.5 10.0404C7.99728 10.0404 8.47419 10.2513 8.82582 10.6266C9.17745 11.0019 9.375 11.5109 9.375 12.0416V14.6659ZM13.75 13.9988C13.75 14.1757 13.6841 14.3454 13.5669 14.4705C13.4497 14.5956 13.2908 14.6659 13.125 14.6659H10.625V12.0416C10.625 11.157 10.2958 10.3087 9.70971 9.68319C9.12366 9.0577 8.3288 8.7063 7.5 8.7063C6.6712 8.7063 5.87634 9.0577 5.29029 9.68319C4.70424 10.3087 4.375 11.157 4.375 12.0416V14.6659H1.87501C1.70925 14.6659 1.55027 14.5956 1.43306 14.4705C1.31585 14.3454 1.25001 14.1757 1.25001 13.9988V7.45021C1.25059 7.27343 1.31637 7.104 1.43313 6.9786L6.17375 1.92023C6.52606 1.54596 7.00292 1.33585 7.5 1.33585C7.99708 1.33585 8.47394 1.54596 8.82625 1.92023L13.5669 6.9806C13.6832 7.1055 13.7489 7.27412 13.75 7.45021V13.9988Z" fill="white" fill-opacity="0.2"/>
</svg>
