<svg width="42" height="42" viewBox="0 0 42 42" fill="none" xmlns="http://www.w3.org/2000/svg">
<circle cx="21" cy="21" r="20.5" fill="#EEF3FA" stroke="#C2D3EC"/>
<g clip-path="url(#clip0_184_21484)">
<path d="M29.4853 12.5147C27.2188 10.2482 24.2053 9 21 9C17.7947 9 14.7812 10.2482 12.5147 12.5147C10.2482 14.7812 9 17.7946 9 21C9 24.2053 10.2482 27.2188 12.5147 29.4853C14.7812 31.7518 17.7947 33 21 33C24.2053 33 27.2188 31.7518 29.4852 29.4853C31.7518 27.2188 33 24.2053 33 21C33 17.7946 31.7518 14.7812 29.4853 12.5147Z" fill="#7A7A7A"/>
<path d="M29.486 12.5147C27.2196 10.2482 24.2061 9 21.0008 9C20.711 9 20.4229 9.01055 20.1367 9.0308C23.0166 9.23438 25.6963 10.4531 27.7579 12.5148C30.0244 14.7812 31.2726 17.7947 31.2726 21C31.2726 24.2053 30.0244 27.2188 27.7579 29.4853C25.6963 31.5469 23.0166 32.7656 20.1367 32.9692C20.4229 32.9895 20.711 33 21.0008 33C24.2061 33 27.2196 31.7518 29.486 29.4853C31.7526 27.2188 33.0008 24.2053 33.0008 21C33.0008 17.7946 31.7525 14.7812 29.486 12.5147Z" fill="#666666"/>
<path d="M21.0009 30.742C26.3818 30.742 30.7439 26.3799 30.7439 20.9989C30.7439 15.618 26.3818 11.2559 21.0009 11.2559C15.6199 11.2559 11.2578 15.618 11.2578 20.9989C11.2578 26.3799 15.6199 30.742 21.0009 30.742Z" fill="#E0E0E0"/>
<path d="M20.9655 24.0234C18.0488 24.0234 17.6133 25.3352 17.6133 26.1172C17.6133 27.596 19.1171 28.7991 20.9655 28.7991C22.8139 28.7991 24.3177 27.596 24.3177 26.1172C24.3177 25.3353 23.8822 24.0234 20.9655 24.0234Z" fill="#EF3A47"/>
<path d="M20.9681 24.0234C20.6428 24.0234 20.3484 24.0398 20.082 24.0699C22.2042 24.3096 22.5482 25.4225 22.5482 26.1172C22.5482 27.3506 21.5017 28.3916 20.082 28.7032C20.3645 28.7653 20.6614 28.7991 20.9681 28.7991C22.8165 28.7991 24.3203 27.596 24.3203 26.1172C24.3203 25.3353 23.8848 24.0234 20.9681 24.0234Z" fill="#CE3043"/>
<path d="M30.7443 20.9991C30.7443 15.618 26.3821 11.2559 21.0011 11.2559C15.62 11.2559 11.2578 15.618 11.2578 20.9991C11.2578 26.3802 15.62 30.7423 21.0011 30.7423C26.3821 30.7423 30.7443 26.3802 30.7443 20.9991ZM21.0011 29.7563C16.1724 29.7563 12.2439 25.8278 12.2439 20.9991C12.2439 16.1703 16.1723 12.2419 21.0011 12.2419C25.8299 12.2419 29.7583 16.1704 29.7583 20.9991C29.7583 25.8278 25.8298 29.7563 21.0011 29.7563Z" fill="#BFBFBF"/>
<path d="M25.9421 21.5781C23.0254 21.5781 22.5898 22.8899 22.5898 23.6719C22.5898 25.1507 24.0936 26.3538 25.9421 26.3538C27.7905 26.3538 29.2943 25.1507 29.2943 23.6719C29.2943 22.8899 28.8588 21.5781 25.9421 21.5781Z" fill="#EF3A47"/>
<path d="M25.9388 21.5781C25.6191 21.5781 25.3291 21.5939 25.0664 21.623C27.2009 21.8594 27.5462 22.9757 27.5462 23.6718C27.5462 24.9092 26.493 25.953 25.0664 26.261C25.3448 26.3211 25.6371 26.3538 25.9388 26.3538C27.7872 26.3538 29.291 25.1507 29.291 23.6719C29.291 22.8899 28.8555 21.5781 25.9388 21.5781Z" fill="#CE3043"/>
<path d="M18.61 14.0762C15.6933 14.0762 15.2578 15.388 15.2578 16.1699C15.2578 17.6487 16.7617 18.8517 18.61 18.8517C20.4584 18.8517 21.9623 17.6487 21.9623 16.1699C21.9622 15.388 21.5267 14.0762 18.61 14.0762Z" fill="#EF3A47"/>
<path d="M18.6075 14.0762C18.2811 14.0762 17.9859 14.0927 17.7188 14.123C19.8384 14.3633 20.1821 15.4755 20.1821 16.1699C20.1821 17.4025 19.137 18.4429 17.7188 18.7553C18.002 18.8177 18.2998 18.8517 18.6075 18.8517C20.456 18.8517 21.9598 17.6487 21.9598 16.1699C21.9597 15.388 21.5243 14.0762 18.6075 14.0762Z" fill="#CE3043"/>
<path d="M17.2165 20.1958C15.1897 18.1691 13.9745 18.7793 13.4304 19.3232C12.4023 20.3513 12.6109 22.2327 13.8953 23.5171C14.506 24.1278 15.2693 24.5178 16.0446 24.6153C16.1717 24.6313 16.2967 24.6392 16.4192 24.6392C17.0758 24.6392 17.6592 24.4118 18.0891 23.982C18.6332 23.4379 19.2431 22.2226 17.2165 20.1958Z" fill="#EF3A47"/>
<path d="M17.2153 20.1958C15.5894 18.57 14.4859 18.6411 13.832 19.0136C14.2963 19.2205 14.8292 19.5904 15.4345 20.1958C17.4613 22.2226 16.8512 23.4378 16.3072 23.9818C16.0757 24.2133 15.7994 24.3855 15.4914 24.4956C15.6735 24.5514 15.8581 24.5919 16.0434 24.6152C16.1705 24.6312 16.2955 24.6391 16.4179 24.6391C17.0746 24.6391 17.658 24.4117 18.0879 23.9819C18.632 23.4378 19.242 22.2225 17.2153 20.1958Z" fill="#CE3043"/>
<path d="M25.2692 15.7334C24.7252 15.1895 23.5099 14.5792 21.4833 16.606C20.821 17.2683 20.3878 17.9007 20.1959 18.4857C19.9548 19.2205 20.0982 19.8797 20.6106 20.3921C21.0405 20.822 21.6238 21.0493 22.2805 21.0493C22.403 21.0493 22.528 21.0414 22.655 21.0254C23.4303 20.9279 24.1936 20.5379 24.8044 19.9272C25.4151 19.3164 25.8051 18.5531 25.9026 17.7778C26.0043 16.9695 25.7793 16.2434 25.2692 15.7334Z" fill="#EF3A47"/>
<path d="M25.2677 15.7332C24.8875 15.353 24.1793 14.9408 23.0955 15.4187C23.2606 15.5116 23.3974 15.6237 23.507 15.7332C24.0171 16.2433 24.242 16.9694 24.1403 17.7777C24.0428 18.553 23.6528 19.3163 23.0421 19.927C22.5744 20.3947 22.0171 20.7324 21.4336 20.9089C21.6951 21.0013 21.9792 21.0491 22.2789 21.0491C22.4014 21.0491 22.5264 21.0412 22.6535 21.0252C23.4288 20.9277 24.192 20.5377 24.8028 19.927C25.4136 19.3162 25.8036 18.553 25.9011 17.7776C26.0028 16.9693 25.7778 16.2432 25.2677 15.7332Z" fill="#CE3043"/>
<path d="M21.0034 27.1943C20.6244 27.1943 20.2013 27.0909 19.7755 26.8025C19.6148 26.6937 19.5728 26.4752 19.6816 26.3145C19.7904 26.1539 20.0088 26.1118 20.1695 26.2206C21.0565 26.8214 21.8083 26.2419 21.8158 26.236C21.968 26.1156 22.1891 26.1414 22.3093 26.2936C22.4298 26.4457 22.404 26.6667 22.2518 26.7871C22.0152 26.9742 21.5562 27.1943 21.0034 27.1943Z" fill="#9B3E2C"/>
<path d="M25.976 24.749C25.5971 24.749 25.174 24.6456 24.7481 24.3572C24.5874 24.2483 24.5454 24.0299 24.6542 23.8692C24.7631 23.7086 24.9815 23.6665 25.1422 23.7753C26.0292 24.3761 26.7809 23.7966 26.7885 23.7907C26.9407 23.6702 27.1616 23.6961 27.282 23.8483C27.4024 24.0005 27.3766 24.2214 27.2244 24.3418C26.9879 24.5288 26.5289 24.749 25.976 24.749Z" fill="#9B3E2C"/>
<path d="M18.6441 17.247C18.265 17.247 17.842 17.1436 17.4161 16.8553C17.2554 16.7464 17.2134 16.528 17.3222 16.3673C17.431 16.2066 17.6494 16.1645 17.8102 16.2734C18.6973 16.8743 19.4489 16.2947 19.4564 16.2888C19.6086 16.1684 19.8296 16.1941 19.95 16.3463C20.0704 16.4985 20.0446 16.7196 19.8924 16.8399C19.6559 17.027 19.1969 17.247 18.6441 17.247Z" fill="#9B3E2C"/>
<path d="M16.1954 22.9974C16.1817 22.9974 16.168 22.9966 16.1542 22.995C15.6573 22.937 14.6555 22.5046 14.4205 21.283C14.3838 21.0925 14.5086 20.9083 14.6991 20.8716C14.8897 20.835 15.0738 20.9597 15.1105 21.1503C15.3082 22.1772 16.2264 22.2959 16.2356 22.2971C16.4283 22.3195 16.5664 22.494 16.5438 22.6867C16.523 22.8656 16.3712 22.9974 16.1954 22.9974Z" fill="#9B3E2C"/>
<path d="M22.5542 19.4076C22.3891 19.4076 22.2419 19.2907 22.2095 19.1226C22.1729 18.932 22.2976 18.7479 22.4882 18.7112C23.5151 18.5135 23.6339 17.5953 23.6349 17.5861C23.6574 17.3933 23.8326 17.255 24.0246 17.2779C24.2174 17.3003 24.3554 17.4748 24.3329 17.6675C24.2749 18.1644 23.8425 19.1662 22.6209 19.4013C22.5986 19.4056 22.5762 19.4076 22.5542 19.4076Z" fill="#9B3E2C"/>
<path d="M27.6115 18.793C26.9642 18.793 26.4375 19.3196 26.4375 19.967C26.4375 20.6143 26.9641 21.141 27.6115 21.141C28.2589 21.141 28.7856 20.6144 28.7856 19.967C28.7855 19.3196 28.2589 18.793 27.6115 18.793Z" fill="#F2CA5A"/>
<path d="M20.8811 21.1699C20.2337 21.1699 19.707 21.6966 19.707 22.344C19.707 22.9913 20.2337 23.518 20.8811 23.518C21.5284 23.518 22.0551 22.9913 22.0551 22.344C22.055 21.6966 21.5285 21.1699 20.8811 21.1699Z" fill="#F2CA5A"/>
<path d="M16.092 25.0156C15.4447 25.0156 14.918 25.5423 14.918 26.1896C14.918 26.837 15.4446 27.3636 16.092 27.3636C16.7393 27.3636 17.266 26.837 17.266 26.1896C17.266 25.5423 16.7394 25.0156 16.092 25.0156Z" fill="#F2CA5A"/>
<path d="M22.5529 12.4785C21.9056 12.4785 21.3789 13.0052 21.3789 13.6526C21.3789 14.2999 21.9055 14.8266 22.5529 14.8266C23.2003 14.8266 23.727 14.3 23.727 13.6526C23.727 13.0052 23.2003 12.4785 22.5529 12.4785Z" fill="#F2CA5A"/>
</g>
<defs>
<clipPath id="clip0_184_21484">
<rect width="24" height="24" fill="white" transform="translate(9 9)"/>
</clipPath>
</defs>
</svg>
