<svg width="42" height="42" viewBox="0 0 42 42" fill="none" xmlns="http://www.w3.org/2000/svg">
<circle cx="21" cy="21" r="20.5" fill="#EEF3FA" stroke="#C2D3EC"/>
<g clip-path="url(#clip0_184_21517)">
<path d="M24.2561 14.7281C24.2049 14.7281 24.153 14.7172 24.1036 14.6942C23.9225 14.6098 23.8441 14.3946 23.9285 14.2136L24.5037 12.9788C24.5047 12.9766 24.5058 12.9743 24.5069 12.972L24.9582 12.0538C25.0463 11.8745 25.263 11.8006 25.4423 11.8887C25.6216 11.9768 25.6955 12.1936 25.6074 12.3729L25.1578 13.2877L24.5842 14.519C24.5229 14.6507 24.3924 14.7281 24.2561 14.7281Z" fill="#EE6161"/>
<path d="M28.0027 19.5381C27.8663 19.5381 27.7357 19.4606 27.6744 19.3288C27.5902 19.1477 27.6688 18.9326 27.8499 18.8483L29.2329 18.2053L30.408 17.6465C30.5885 17.5606 30.8042 17.6374 30.89 17.8178C30.9758 17.9982 30.8991 18.214 30.7187 18.2998L29.5408 18.86L28.1549 19.5043C28.1056 19.5273 28.0537 19.5381 28.0027 19.5381Z" fill="#EE6161"/>
<path d="M26.4408 29.7013C26.3295 29.7013 26.2197 29.65 26.1488 29.5534L25.4588 28.612C25.4563 28.6087 25.454 28.6055 25.4517 28.6021L24.6216 27.386C24.509 27.221 24.5514 26.9959 24.7164 26.8833C24.8814 26.7707 25.1065 26.8132 25.2191 26.9781L26.0458 28.1893L26.7322 29.1257C26.8503 29.2868 26.8154 29.5131 26.6543 29.6312C26.5899 29.6785 26.515 29.7013 26.4408 29.7013Z" fill="#EE6161"/>
<path d="M19.5883 30.6979C19.3885 30.6979 19.2266 30.536 19.2266 30.3362V28.4847C19.2266 28.285 19.3885 28.123 19.5883 28.123C19.788 28.123 19.95 28.285 19.95 28.4847V30.3362C19.95 30.536 19.788 30.6979 19.5883 30.6979Z" fill="#EE6161"/>
<path d="M16.9983 30.6965C16.9516 30.6965 16.904 30.6874 16.8582 30.6681C16.6741 30.5906 16.5876 30.3785 16.6651 30.1944L17.1751 28.983L17.6157 27.9468C17.6939 27.7629 17.9063 27.6774 18.0901 27.7555C18.2739 27.8337 18.3595 28.0461 18.2814 28.2298L17.8413 29.2648L17.3319 30.475C17.2737 30.6133 17.1395 30.6965 16.9983 30.6965Z" fill="#EE6161"/>
<path d="M11.8933 25.0132C11.7634 25.0132 11.6378 24.9429 11.573 24.8199C11.4799 24.6432 11.5478 24.4244 11.7245 24.3313L12.5714 23.8853L13.5997 23.3012C13.7734 23.2025 13.9941 23.2633 14.0928 23.437C14.1915 23.6107 14.1307 23.8315 13.957 23.9301L12.9238 24.5172C12.9204 24.5191 12.917 24.5209 12.9136 24.5227L12.0616 24.9714C12.0078 24.9998 11.9502 25.0132 11.8933 25.0132Z" fill="#EE6161"/>
<path d="M10.8339 22.436C10.6558 22.436 10.5007 22.3044 10.476 22.123C10.449 21.9251 10.5877 21.7428 10.7856 21.7158L12.1479 21.5305L13.3549 21.3778C13.5532 21.3531 13.7341 21.4931 13.7591 21.6913C13.7842 21.8895 13.6438 22.0705 13.4457 22.0955L12.2421 22.2477L10.8831 22.4326C10.8666 22.4349 10.8502 22.436 10.8339 22.436Z" fill="#EE6161"/>
<path d="M17.6785 14.729C17.545 14.729 17.4167 14.6548 17.3537 14.527L16.7487 13.298L15.9963 11.8982C15.9017 11.7223 15.9677 11.5029 16.1437 11.4084C16.3196 11.3139 16.5389 11.3798 16.6335 11.5557L17.3889 12.9613C17.391 12.9651 17.3929 12.9689 17.3948 12.9727L18.0027 14.2075C18.091 14.3867 18.0172 14.6035 17.838 14.6917C17.7866 14.7171 17.7321 14.729 17.6785 14.729Z" fill="#EE6161"/>
<path d="M32.213 21.4425C32.6803 21.4425 33.002 21.8196 32.9287 22.2807L32.7064 23.6768C32.6408 24.0892 32.2844 24.3833 31.8798 24.3833C31.8359 24.3833 31.7915 24.38 31.7467 24.3727C31.2933 24.3009 30.9832 23.877 31.0493 23.4241L29.6888 23.3812C29.5369 23.3764 29.4009 23.4738 29.3561 23.6194C29.1318 24.3481 28.8154 25.0363 28.42 25.6705C28.3366 25.8046 28.3563 25.9782 28.4687 26.0891L29.3016 26.9138C29.4409 26.7368 29.6483 26.6442 29.8576 26.6442C30.0076 26.6442 30.1586 26.6915 30.2868 26.7899C30.6514 26.7899 30.8574 27.208 30.636 27.4969L29.7554 28.6451C29.6165 28.8269 29.4062 28.922 29.194 28.922C29.0436 28.922 28.8926 28.8747 28.7643 28.7763C28.4566 28.5405 28.3968 28.1016 28.6278 27.7925L27.5852 27.1848C27.4526 27.1072 27.2847 27.1298 27.1757 27.2384C26.2276 28.1894 25.0624 28.9244 23.7613 29.3627C23.6137 29.4129 23.5187 29.5561 23.5322 29.7114L23.6451 31.0352C24.0902 30.9455 24.5257 31.2262 24.6274 31.6685C24.7321 32.1247 24.423 32.5824 23.9653 32.6807L22.5677 32.9812C22.5088 32.9937 22.4519 33 22.3965 33C22.0164 33 21.729 32.7155 21.729 32.3041C21.6326 31.8546 21.9157 31.4129 22.3622 31.3111L21.9103 30.0254C21.8597 29.8821 21.7199 29.79 21.5684 29.8006C21.3639 29.8151 21.1575 29.8223 20.9497 29.8223C18.7973 29.8223 16.8263 29.0488 15.2975 27.7655C15.1885 27.6738 15.0337 27.6608 14.9107 27.7327L13.7408 28.418L13.924 28.6152C14.1372 28.8458 14.2428 29.1375 14.2428 29.4283C14.2428 29.75 14.114 30.0707 13.8594 30.3065C13.3742 30.7555 12.6171 30.7266 12.1681 30.2414L10.9166 28.8901C10.703 28.6601 10.5978 28.3683 10.5978 28.0775C10.5978 27.7558 10.7266 27.4351 10.9812 27.1993C11.4659 26.7503 12.2231 26.7792 12.6721 27.2639L12.8553 27.4616L13.6486 26.3172C13.7277 26.2029 13.7292 26.052 13.6515 25.9367C12.7063 24.5348 12.1546 22.8454 12.1546 21.0272C12.1546 20.6752 12.1753 20.3284 12.2158 19.9875C12.2337 19.8327 12.1449 19.6856 11.9993 19.6306L10.7536 19.1638C10.6586 19.5438 10.3176 19.7989 9.94146 19.7989C9.8778 19.7989 9.81269 19.7917 9.74807 19.7762C9.27448 19.7762 8.97596 19.3991 9.08495 18.9381L9.41723 17.5327C9.52478 17.0775 9.9892 16.7775 10.443 16.8918C10.8828 17.0027 11.1544 17.444 11.056 17.8867L12.4092 18.0304C12.5606 18.0468 12.7034 17.9591 12.7589 17.8173C13.013 17.1701 13.3414 16.56 13.7335 15.9982C13.8227 15.8699 13.8141 15.6982 13.7109 15.581L12.8322 14.5827C12.5279 14.9193 12.0104 14.9526 11.6656 14.6575C11.3101 14.3532 11.287 13.801 11.5961 13.4499L12.4353 12.4984C12.6012 12.3103 12.8322 12.2143 13.0646 12.2143C13.2614 12.2143 13.4591 12.2833 13.6183 12.4236C13.9631 12.7274 13.9983 13.2512 13.6998 13.5984L14.8278 14.3633C14.9537 14.4486 15.1205 14.4395 15.2363 14.3406C16.535 13.2295 18.1617 12.4906 19.9509 12.2886C20.1062 12.2712 20.2292 12.1506 20.2489 11.9958L20.4168 10.6764C20.1877 10.6735 19.9808 10.5789 19.8313 10.4275C19.6813 10.2761 19.5892 10.0682 19.5892 9.83866C19.5892 9.37569 19.9644 9 20.4274 9H21.7179C21.9494 9 22.1592 9.09404 22.3106 9.24547C22.4621 9.39739 22.5561 9.60717 22.5561 9.83866C22.5561 10.2978 22.1867 10.6706 21.729 10.6764L21.9007 12.0277C21.92 12.1791 22.0382 12.2982 22.1891 12.3194C23.7569 12.5403 25.1917 13.1745 26.38 14.1087C26.4991 14.2022 26.6655 14.2061 26.788 14.1168L27.876 13.3259C27.6855 13.1248 27.5905 12.8673 27.5905 12.6098C27.5905 12.3431 27.6922 12.0764 27.8953 11.8733C28.2999 11.4687 28.9534 11.4774 29.3474 11.8926L30.5121 13.1219C30.7001 13.3206 30.7937 13.5743 30.7937 13.828C30.7937 14.1 30.6862 14.3715 30.473 14.5736C30.0616 14.9637 29.4115 14.9463 29.0214 14.5345L29.0117 14.5244L28.1634 15.568C28.0684 15.6852 28.0626 15.8511 28.1494 15.9745C29.155 17.4045 29.7448 19.1469 29.7448 21.0272C29.7448 21.1575 29.7419 21.2867 29.7366 21.415C29.7293 21.5708 29.8292 21.7111 29.9787 21.755L31.2557 22.1283C31.3334 21.6769 31.7597 21.3706 32.213 21.4425Z" fill="#F79595"/>
<path d="M19.5896 27.5971C20.6702 27.5971 21.5463 26.721 21.5463 25.6403C21.5463 24.5597 20.6702 23.6836 19.5896 23.6836C18.5089 23.6836 17.6328 24.5597 17.6328 25.6403C17.6328 26.721 18.5089 27.5971 19.5896 27.5971Z" fill="#F37C7C"/>
<path d="M25.6375 21.3005C26.4017 21.3005 27.0212 20.681 27.0212 19.9168C27.0212 19.1527 26.4017 18.5332 25.6375 18.5332C24.8734 18.5332 24.2539 19.1527 24.2539 19.9168C24.2539 20.681 24.8734 21.3005 25.6375 21.3005Z" fill="#F9C6C6"/>
<path d="M25.2827 16.6453H24.2562C24.0565 16.6453 23.8945 16.4833 23.8945 16.2836C23.8945 16.0838 24.0565 15.9219 24.2562 15.9219H25.2827C25.4824 15.9219 25.6444 16.0838 25.6444 16.2836C25.6444 16.4833 25.4824 16.6453 25.2827 16.6453Z" fill="#F37C7C"/>
<path d="M23.676 23.3699H22.9984C22.7987 23.3699 22.6367 23.2079 22.6367 23.0082C22.6367 22.8084 22.7987 22.6465 22.9984 22.6465H23.676C23.8758 22.6465 24.0377 22.8084 24.0377 23.0082C24.0377 23.2079 23.8758 23.3699 23.676 23.3699Z" fill="#F9C6C6"/>
<path d="M25.6821 26.3465H24.8812C24.6815 26.3465 24.5195 26.1845 24.5195 25.9848C24.5195 25.785 24.6815 25.623 24.8812 25.623H25.6821C25.8818 25.623 26.0438 25.785 26.0438 25.9848C26.0438 26.1845 25.8818 26.3465 25.6821 26.3465Z" fill="#F9C6C6"/>
<path d="M15.4075 20.3937C15.4075 17.3662 16.5899 14.614 18.5162 12.5736C17.2929 12.9251 16.1778 13.5356 15.2363 14.3412C15.1205 14.44 14.9537 14.4492 14.8278 14.3638L13.6998 13.5989C13.9983 13.2517 13.9631 12.728 13.6183 12.4241C13.4591 12.2838 13.2614 12.2148 13.0646 12.2148C12.8322 12.2148 12.6012 12.3108 12.4353 12.4989L11.5961 13.4504C11.287 13.8015 11.3101 14.3537 11.6656 14.658C12.0104 14.9532 12.5279 14.9199 12.8322 14.5833L13.7109 15.5815C13.8141 15.6987 13.8227 15.8704 13.7335 15.9987C13.3414 16.5605 13.013 17.1706 12.7589 17.8178C12.7034 17.9596 12.5606 18.0474 12.4092 18.031L11.056 17.8873C11.1544 17.4445 10.8828 17.0033 10.443 16.8923C9.9892 16.778 9.52478 17.078 9.41723 17.5333L9.08495 18.9386C8.97596 19.3997 9.27448 19.7768 9.74807 19.7768C9.81269 19.7922 9.8778 19.7994 9.94146 19.7994C10.3176 19.7994 10.6586 19.5443 10.7536 19.1643L11.9993 19.6311C12.1449 19.6861 12.2337 19.8332 12.2158 19.988C12.1753 20.329 12.1546 20.6757 12.1546 21.0278C12.1546 22.8459 12.7063 24.5353 13.6515 25.9373C13.7292 26.0525 13.7277 26.2035 13.6486 26.3178L12.8553 27.4622L12.6721 27.2645C12.2231 26.7798 11.4659 26.7508 10.9812 27.1998C10.7266 27.4357 10.5978 27.7564 10.5978 28.078C10.5978 28.3688 10.703 28.6606 10.9166 28.8907L12.1681 30.242C12.6171 30.7271 13.3742 30.7561 13.8594 30.3071C14.114 30.0712 14.2428 29.7505 14.2428 29.4289C14.2428 29.1381 14.1372 28.8463 13.924 28.6158L13.7408 28.4185L14.9107 27.7332C15.0337 27.6614 15.1885 27.6744 15.2975 27.766C16.6897 28.9347 18.4498 29.6807 20.3785 29.8046C17.3779 27.7527 15.4075 24.3032 15.4075 20.3937Z" fill="#F37C7C"/>
<path d="M18.3866 22.074C20.1513 22.074 21.5818 20.6435 21.5818 18.8788C21.5818 17.1141 20.1513 15.6836 18.3866 15.6836C16.622 15.6836 15.1914 17.1141 15.1914 18.8788C15.1914 20.6435 16.622 22.074 18.3866 22.074Z" fill="#F9C6C6"/>
<path d="M16.0299 24.0457H15.1898C14.9901 24.0457 14.8281 23.8837 14.8281 23.684C14.8281 23.4842 14.9901 23.3223 15.1898 23.3223H16.0299C16.2296 23.3223 16.3916 23.4842 16.3916 23.684C16.3916 23.8837 16.2296 24.0457 16.0299 24.0457Z" fill="#EE6161"/>
</g>
<defs>
<clipPath id="clip0_184_21517">
<rect width="24" height="24" fill="white" transform="translate(9 9)"/>
</clipPath>
</defs>
</svg>
