<svg width="18" height="18" viewBox="0 0 18 18" fill="none" xmlns="http://www.w3.org/2000/svg">
<path d="M12.207 3C11.5504 3.01079 10.9082 3.2045 10.3451 3.56155C9.78197 3.91861 9.318 4.42637 9 5.03356C8.682 4.42637 8.21803 3.91861 7.65493 3.56155C7.09184 3.2045 6.44956 3.01079 5.79296 3C4.74626 3.04806 3.76011 3.53196 3.04994 4.34599C2.33977 5.16002 1.96332 6.238 2.00282 7.34442C2.00282 10.1464 4.79353 13.2066 7.13409 15.2815C7.65667 15.7456 8.3174 16 9 16C9.6826 16 10.3433 15.7456 10.8659 15.2815C13.2065 13.2066 15.9972 10.1464 15.9972 7.34442C16.0367 6.238 15.6602 5.16002 14.9501 4.34599C14.2399 3.53196 13.2537 3.04806 12.207 3ZM10.1166 14.3386C9.80408 14.6168 9.40861 14.7693 9 14.7693C8.59139 14.7693 8.19592 14.6168 7.88337 14.3386C4.88741 11.6821 3.16902 9.13334 3.16902 7.34442C3.12916 6.56471 3.38265 5.79998 3.8742 5.21701C4.36575 4.63404 5.05548 4.28013 5.79296 4.23246C6.53044 4.28013 7.22017 4.63404 7.71172 5.21701C8.20327 5.79998 8.45676 6.56471 8.4169 7.34442C8.4169 7.50785 8.47834 7.6646 8.58769 7.78016C8.69704 7.89573 8.84535 7.96065 9 7.96065C9.15465 7.96065 9.30296 7.89573 9.41231 7.78016C9.52166 7.6646 9.5831 7.50785 9.5831 7.34442C9.54324 6.56471 9.79673 5.79998 10.2883 5.21701C10.7798 4.63404 11.4696 4.28013 12.207 4.23246C12.9445 4.28013 13.6343 4.63404 14.1258 5.21701C14.6174 5.79998 14.8708 6.56471 14.831 7.34442C14.831 9.13334 13.1126 11.6821 10.1166 14.3362V14.3386Z" fill="#20539E"/>
<path d="M12.207 3C11.5504 3.01079 10.9082 3.2045 10.3451 3.56155C9.78197 3.91861 9.318 4.42637 9 5.03356C8.682 4.42637 8.21803 3.91861 7.65493 3.56155C7.09184 3.2045 6.44956 3.01079 5.79296 3C4.74626 3.04806 3.76011 3.53196 3.04994 4.34599C2.33977 5.16002 1.96332 6.238 2.00282 7.34442C2.00282 10.1464 4.79353 13.2066 7.13409 15.2815C7.65667 15.7456 8.3174 16 9 16C9.6826 16 10.3433 15.7456 10.8659 15.2815C13.2065 13.2066 15.9972 10.1464 15.9972 7.34442C16.0367 6.238 15.6602 5.16002 14.9501 4.34599C14.2399 3.53196 13.2537 3.04806 12.207 3ZM10.1166 14.3386C9.80408 14.6168 9.40861 14.7693 9 14.7693C8.59139 14.7693 8.19592 14.6168 7.88337 14.3386C4.88741 11.6821 3.16902 9.13334 3.16902 7.34442C3.12916 6.56471 3.38265 5.79998 3.8742 5.21701C4.36575 4.63404 5.05548 4.28013 5.79296 4.23246C6.53044 4.28013 7.22017 4.63404 7.71172 5.21701C8.20327 5.79998 8.45676 6.56471 8.4169 7.34442C8.4169 7.50785 8.47834 7.6646 8.58769 7.78016C8.69704 7.89573 8.84535 7.96065 9 7.96065C9.15465 7.96065 9.30296 7.89573 9.41231 7.78016C9.52166 7.6646 9.5831 7.50785 9.5831 7.34442C9.54324 6.56471 9.79673 5.79998 10.2883 5.21701C10.7798 4.63404 11.4696 4.28013 12.207 4.23246C12.9445 4.28013 13.6343 4.63404 14.1258 5.21701C14.6174 5.79998 14.8708 6.56471 14.831 7.34442C14.831 9.13334 13.1126 11.6821 10.1166 14.3362V14.3386Z" fill="white" fill-opacity="0.2"/>
</svg>
