<svg width="36" height="26" viewBox="0 0 36 26" fill="none" xmlns="http://www.w3.org/2000/svg">
<path d="M34.4052 16.104C33.5923 17.9101 32.539 19.5677 31.1181 20.9714C29.2542 22.8101 27.1311 24.1693 24.7112 24.9525C24.2793 25.5795 23.5383 25.9841 22.6911 25.9766C21.3809 25.9614 20.3421 24.9124 20.3653 23.6161C20.3897 22.2221 21.5072 21.2643 22.8096 21.3174C23.2692 21.3359 23.6878 21.466 24.0378 21.683C27.6272 20.2782 30.1612 17.8494 31.5356 14.249C32.1437 12.6533 32.3951 11.0185 32.2899 9.31978C32.1093 6.36701 29.3107 3.77764 26.2074 3.65832C23.3578 3.54767 20.9434 5.32237 20.0419 7.48108C19.8093 8.03648 19.7285 8.65372 19.5878 9.24493C19.4959 9.63219 19.1426 9.90664 18.7362 9.90664H16.9509C16.5444 9.90664 16.1922 9.63219 16.0992 9.24493C15.9585 8.65481 15.8777 8.03648 15.6451 7.48108C14.7436 5.32237 12.3281 3.54767 9.47963 3.65832C6.37639 3.77764 3.57772 6.36701 3.39498 9.31978C3.29198 11.0185 3.54339 12.6533 4.15141 14.249C5.52583 17.8516 8.06312 20.2804 11.6526 21.6852H11.6548C12.0546 21.4313 12.5352 21.2968 13.0458 21.3174C14.3826 21.3728 15.3694 22.3621 15.3494 23.6985C15.3284 24.9818 14.2585 25.9896 12.9273 25.9766C12.1244 25.9679 11.4222 25.5687 11.0047 24.9634C8.57147 24.1802 6.43952 22.8177 4.56783 20.9714C3.14468 19.5688 2.09366 17.9101 1.28075 16.104C0.143338 13.5743 -0.277514 10.8873 0.184316 8.20462C0.899766 4.03039 4.23336 1.00386 8.56261 0.453875C12.296 -0.0223425 15.8478 1.69486 17.8424 4.60424C19.8359 1.69486 23.3877 -0.0223425 27.12 0.453875C31.4504 1.00386 34.7851 4.03039 35.5005 8.20462C35.9623 10.8873 35.5437 13.5743 34.4052 16.104Z" fill="#20539E"/>
</svg>
