<svg width="42" height="42" viewBox="0 0 42 42" fill="none" xmlns="http://www.w3.org/2000/svg">
<circle cx="21" cy="21" r="20.5" fill="#EEF3FA" stroke="#C2D3EC"/>
<path d="M17.1023 18.2823C16.9611 18.2189 16.8375 18.122 16.7422 18C16.647 17.878 16.5829 17.7346 16.5556 17.5822C16.5284 17.4298 16.5387 17.2731 16.5857 17.1257C16.6328 16.9782 16.7151 16.8445 16.8255 16.736C16.936 16.6276 17.0712 16.5477 17.2195 16.5034C17.3678 16.4591 17.5247 16.4517 17.6765 16.4817C17.8284 16.5118 17.9706 16.5785 18.0908 16.6759C18.211 16.7734 18.3056 16.8988 18.3664 17.0411C18.7921 18.0561 20.5801 17.2409 20.1895 16.3137C20.1299 16.1693 20.1068 16.0124 20.1223 15.8569C20.1377 15.7014 20.1913 15.5521 20.2781 15.4222C20.365 15.2923 20.4826 15.1859 20.6204 15.1122C20.7582 15.0386 20.9121 15 21.0683 15C21.2246 15 21.3784 15.0384 21.5163 15.112C21.6541 15.1856 21.7717 15.292 21.8587 15.4218C21.9456 15.5517 21.9993 15.7009 22.0148 15.8564C22.0303 16.0119 22.0073 16.1688 21.9478 16.3133C21.5618 17.2357 23.3238 18.0494 23.7646 17.0561C23.8277 16.9155 23.9239 16.7924 24.0451 16.6972C24.1664 16.6021 24.3089 16.5378 24.4604 16.5099C24.612 16.4821 24.768 16.4915 24.9152 16.5373C25.0623 16.5831 25.1961 16.664 25.305 16.7729C25.414 16.8819 25.4948 17.0157 25.5405 17.1629C25.5863 17.31 25.5956 17.4661 25.5677 17.6176C25.5398 17.7692 25.4755 17.9117 25.3803 18.0328C25.2851 18.154 25.1619 18.2502 25.0212 18.3132C24.0312 18.7516 24.8358 20.5012 25.7498 20.136C25.8947 20.0794 26.0513 20.0592 26.2058 20.0772C26.3603 20.0952 26.508 20.1508 26.6361 20.2392C26.7641 20.3275 26.8685 20.4459 26.9401 20.584C27.0117 20.7221 27.0483 20.8757 27.0467 21.0313C27.0452 21.1868 27.0055 21.3396 26.9311 21.4762C26.8568 21.6129 26.75 21.7292 26.6202 21.815C26.4905 21.9007 26.3416 21.9534 26.1868 21.9682C26.0319 21.9831 25.8758 21.9598 25.7321 21.9003C24.7963 21.5067 24.0789 23.3136 24.9956 23.7204C25.1363 23.7844 25.2593 23.8819 25.3539 24.0042C25.4485 24.1265 25.5118 24.2701 25.5383 24.4224C25.5649 24.5748 25.5539 24.7313 25.5063 24.8784C25.4587 25.0255 25.3759 25.1588 25.2651 25.2667C25.1543 25.3746 25.0189 25.4539 24.8706 25.4976C24.7223 25.5413 24.5655 25.5482 24.414 25.5177C24.2624 25.4872 24.1205 25.4201 24.0007 25.3224C23.8809 25.2246 23.7867 25.0991 23.7264 24.9567C23.3106 23.9586 21.5718 24.7979 21.9174 25.7223C21.9707 25.8677 21.9876 26.024 21.9667 26.1774C21.9459 26.3309 21.8878 26.4769 21.7977 26.6028C21.7075 26.7287 21.5879 26.8307 21.4494 26.8998C21.3108 26.969 21.1575 27.0033 21.0026 26.9997C20.8478 26.996 20.6962 26.9547 20.5611 26.8791C20.4259 26.8036 20.3112 26.6962 20.227 26.5662C20.1428 26.4362 20.0916 26.2877 20.0779 26.1334C20.0642 25.9792 20.0884 25.8239 20.1484 25.6811C20.5773 24.6764 18.7322 24.0393 18.3257 24.9498C18.2612 25.0911 18.163 25.2143 18.0398 25.3089C17.9166 25.4035 17.7722 25.4664 17.619 25.4922C17.4659 25.518 17.3087 25.506 17.1614 25.457C17.014 25.4081 16.8808 25.3238 16.7735 25.2115C16.6662 25.0992 16.5881 24.9624 16.5459 24.8129C16.5037 24.6635 16.4988 24.5059 16.5316 24.3541C16.5643 24.2023 16.6338 24.0609 16.7338 23.9421C16.8339 23.8233 16.9615 23.7309 17.1056 23.6728C18.1307 23.2673 17.2766 21.4929 16.3423 21.8643C15.755 22.0926 15.0628 21.686 15.0471 20.9999C15.0437 20.8416 15.0798 20.6849 15.1522 20.544C15.2247 20.4032 15.3311 20.2827 15.462 20.1934C15.5928 20.1041 15.7438 20.0488 15.9014 20.0327C16.0589 20.0165 16.218 20.04 16.3642 20.1009C17.3592 20.5244 18.083 18.7152 17.1023 18.2823Z" fill="#EF5275"/>
<path d="M21.6792 28.3637L21.0497 29.0017L20.4117 28.3722C20.0147 27.9805 19.4215 28.5805 19.8191 28.9728L20.6329 29.7759L20.6418 31.0981C20.6456 31.6627 21.4893 31.6499 21.4856 31.0924L21.4767 29.7702L22.2798 28.9564C22.6722 28.5586 22.0708 27.967 21.6792 28.3637Z" fill="#7484F6"/>
<path d="M26.7006 25.7612L26.7066 26.6575L25.8103 26.6635C25.2526 26.6672 25.2574 27.5109 25.816 27.5072L26.9593 27.4996L27.9005 28.4283C28.3024 28.8248 28.89 28.2192 28.4932 27.8277L27.5519 26.899L27.5443 25.7556C27.5406 25.1969 26.6969 25.2038 26.7006 25.7612Z" fill="#7484F6"/>
<path d="M28.4126 20.3689L29.0506 20.9985L28.421 21.6364C28.0293 22.0335 28.6293 22.6266 29.0216 22.2291L29.8247 21.4152L31.1469 21.4063C31.7115 21.4025 31.6987 20.5588 31.1413 20.5625L29.8191 20.5714L29.0052 19.7683C28.6075 19.3759 28.0158 19.9773 28.4126 20.3689Z" fill="#7484F6"/>
<path d="M25.8081 15.3463L26.7044 15.3403L26.7104 16.2366C26.7141 16.7943 27.5578 16.7895 27.5541 16.2309L27.5465 15.0876L28.4752 14.1464C28.8717 13.7444 28.2661 13.1569 27.8746 13.5537L26.9459 14.4949L25.8025 14.5026C25.2438 14.5063 25.2507 15.35 25.8081 15.3463Z" fill="#7484F6"/>
<path d="M20.4158 13.6367L21.0453 12.9987L21.6833 13.6283C22.0803 14.02 22.6735 13.42 22.2759 13.0277L21.462 12.2246L21.4532 10.9024C21.4494 10.3377 20.6057 10.3505 20.6094 10.908L20.6183 12.2302L19.8152 13.0441C19.4228 13.4418 20.0242 14.0335 20.4158 13.6367Z" fill="#7484F6"/>
<path d="M15.3932 16.2398L15.3872 15.3435L16.2834 15.3375C16.8412 15.3337 16.8363 14.4901 16.2778 14.4938L15.1344 14.5014L14.1933 13.5727C13.7913 13.1762 13.2038 13.7818 13.6006 14.1733L14.5418 15.102L14.5495 16.2454C14.5532 16.8041 15.3968 16.7972 15.3932 16.2398Z" fill="#7484F6"/>
<path d="M13.6836 21.6323L13.0456 21.0028L13.6751 20.3648C14.0669 19.9678 13.4669 19.3746 13.0745 19.7722L12.2714 20.5861L10.9492 20.5949C10.3846 20.5987 10.3974 21.4424 10.9549 21.4387L12.2771 21.4298L13.091 22.2329C13.4887 22.6253 14.0804 22.0239 13.6836 21.6323Z" fill="#7484F6"/>
<path d="M16.2886 26.6537L15.3923 26.6597L15.3863 25.7635C15.3826 25.2057 14.5389 25.2106 14.5426 25.7691L14.5502 26.9125L13.6216 27.8536C13.225 28.2556 13.8306 28.8431 14.2222 28.4463L15.1509 27.5051L16.2942 27.4974C16.8529 27.4937 16.846 26.6501 16.2886 26.6537Z" fill="#7484F6"/>
<path d="M21.0469 22.1719C21.6941 22.1719 22.2188 21.6472 22.2188 21C22.2188 20.3528 21.6941 19.8281 21.0469 19.8281C20.3997 19.8281 19.875 20.3528 19.875 21C19.875 21.6472 20.3997 22.1719 21.0469 22.1719Z" fill="#F294A8"/>
<path d="M21.0249 27.1874C21.0211 27.1874 21.0174 27.1874 21.0135 27.1873C20.827 27.1852 20.6438 27.1373 20.48 27.0478C20.3163 26.9583 20.1771 26.83 20.0746 26.6741C19.972 26.5182 19.9094 26.3395 19.8921 26.1537C19.8748 25.9679 19.9034 25.7807 19.9754 25.6086C20.303 24.8414 18.8071 24.3313 18.4969 25.0263C18.4198 25.1956 18.3024 25.3434 18.155 25.4568C18.0076 25.5702 17.8347 25.6458 17.6513 25.6769C17.4679 25.7081 17.2797 25.6938 17.1032 25.6353C16.9266 25.5769 16.767 25.4761 16.6385 25.3417C16.5099 25.2073 16.4162 25.0434 16.3656 24.8645C16.3149 24.6855 16.309 24.4968 16.3481 24.315C16.3873 24.1332 16.4704 23.9637 16.5902 23.8215C16.71 23.6792 16.8629 23.5685 17.0354 23.499C17.8261 23.1862 17.118 21.7577 16.4116 22.0386C15.698 22.316 14.8782 21.817 14.8596 21.0042C14.8555 20.8147 14.8988 20.6271 14.9856 20.4585C15.0723 20.2899 15.1997 20.1456 15.3563 20.0387C15.5129 19.9318 15.6937 19.8657 15.8823 19.8463C16.071 19.827 16.2614 19.855 16.4365 19.9279C17.2043 20.2544 17.781 18.7869 17.0265 18.4538L17.0254 18.4533C16.8564 18.3774 16.7084 18.2614 16.5944 18.1154C16.4804 17.9693 16.4037 17.7976 16.371 17.6152C16.3384 17.4328 16.3508 17.2452 16.4071 17.0687C16.4634 16.8922 16.5619 16.7321 16.6941 16.6022C16.8264 16.4724 16.9883 16.3768 17.1658 16.3238C17.3434 16.2707 17.5312 16.2618 17.7129 16.2978C17.8947 16.3338 18.0649 16.4136 18.2089 16.5303C18.3528 16.647 18.466 16.7971 18.5388 16.9675C18.8682 17.7529 20.3109 17.085 20.0166 16.3865C19.9453 16.2136 19.9177 16.0257 19.9362 15.8395C19.9547 15.6534 20.0187 15.4746 20.1226 15.3191C20.2265 15.1635 20.3671 15.0359 20.5321 14.9476C20.697 14.8592 20.8811 14.8128 21.0682 14.8125H21.0688C21.2557 14.8128 21.4397 14.8591 21.6045 14.9473C21.7693 15.0355 21.9099 15.1629 22.0138 15.3182C22.1178 15.4735 22.182 15.6521 22.2007 15.8381C22.2194 16.0241 22.192 16.2118 22.1211 16.3847C21.8299 17.0807 23.2529 17.7469 23.5932 16.9801C23.6686 16.8117 23.7838 16.6642 23.9288 16.5502C24.0739 16.4362 24.2445 16.3591 24.4259 16.3257C24.6074 16.2922 24.7942 16.3034 24.9704 16.3582C25.1466 16.413 25.3068 16.5097 25.4373 16.6402C25.5677 16.7706 25.6646 16.9308 25.7194 17.107C25.7742 17.2831 25.7854 17.47 25.7521 17.6514C25.7187 17.8329 25.6417 18.0035 25.5277 18.1486C25.4137 18.2937 25.2662 18.4089 25.0979 18.4844C24.3332 18.823 24.9922 20.2366 25.6802 19.962C25.8536 19.8939 26.0411 19.8695 26.2261 19.8908C26.4112 19.9122 26.5882 19.9786 26.7416 20.0843C26.895 20.1899 27.0202 20.3317 27.106 20.497C27.1919 20.6623 27.2359 20.8461 27.2341 21.0324C27.2324 21.2187 27.185 21.4017 27.096 21.5654C27.007 21.7291 26.8793 21.8684 26.7239 21.9712C26.5685 22.074 26.3903 22.137 26.2049 22.1549C26.0195 22.1727 25.8325 22.1448 25.6604 22.0735C24.9529 21.7761 24.3791 23.2417 25.0715 23.549C25.2402 23.6255 25.3877 23.7419 25.5012 23.8883C25.6147 24.0347 25.6907 24.2065 25.7228 24.3889C25.7548 24.5714 25.7418 24.7588 25.685 24.9351C25.6281 25.1114 25.5291 25.2711 25.3966 25.4004C25.264 25.5298 25.1019 25.6248 24.9243 25.6773C24.7466 25.7298 24.5589 25.7382 24.3773 25.7016C24.1958 25.6651 24.0258 25.5849 23.8823 25.4678C23.7388 25.3508 23.626 25.2005 23.5537 25.0299C23.2351 24.2649 21.8304 24.9542 22.093 25.6567C22.1561 25.8287 22.1767 26.0134 22.1532 26.1951C22.1297 26.3768 22.0626 26.5501 21.9578 26.7003C21.8529 26.8506 21.7134 26.9733 21.5509 27.0581C21.3885 27.1429 21.2081 27.1872 21.0249 27.1874ZM20.3208 25.7547C20.2728 25.8694 20.2535 25.994 20.2647 26.1178C20.2758 26.2416 20.3171 26.3607 20.3847 26.465C20.4524 26.5692 20.5445 26.6553 20.6531 26.7158C20.7616 26.7763 20.8833 26.8094 21.0075 26.8122C21.1318 26.815 21.2548 26.7875 21.366 26.7319C21.4771 26.6763 21.573 26.5944 21.6454 26.4934C21.7177 26.3923 21.7642 26.2751 21.7809 26.152C21.7977 26.0288 21.784 25.9035 21.7413 25.7868C21.3116 24.6373 23.3885 23.6581 23.8994 24.8847C23.948 24.9988 24.0237 25.0994 24.12 25.1777C24.2162 25.2561 24.3301 25.3097 24.4518 25.3341C24.5735 25.3585 24.6992 25.3528 24.8182 25.3176C24.9372 25.2824 25.0458 25.2187 25.1347 25.132C25.2235 25.0454 25.2898 24.9383 25.328 24.8203C25.3661 24.7022 25.3749 24.5766 25.3535 24.4543C25.3321 24.3321 25.2813 24.2169 25.2054 24.1187C25.1295 24.0206 25.0308 23.9424 24.9178 23.891C23.7822 23.3872 24.6354 21.2358 25.8047 21.7275C25.9201 21.7751 26.0455 21.7936 26.1697 21.7815C26.294 21.7695 26.4134 21.7271 26.5174 21.6581C26.6215 21.5892 26.7071 21.4958 26.7667 21.3861C26.8262 21.2763 26.858 21.1537 26.8592 21.0289C26.8603 20.904 26.8309 20.7808 26.7733 20.67C26.7158 20.5592 26.632 20.4642 26.5292 20.3933C26.4265 20.3224 26.3079 20.2778 26.1839 20.2634C26.0599 20.249 25.9342 20.2653 25.818 20.3107C24.6768 20.7666 23.7352 18.6777 24.9452 18.1418C25.058 18.0911 25.1569 18.0138 25.2332 17.9165C25.3095 17.8192 25.361 17.7047 25.3833 17.5831C25.4057 17.4614 25.3981 17.3362 25.3613 17.2181C25.3245 17.1 25.2595 16.9927 25.1721 16.9052C25.0846 16.8178 24.9772 16.753 24.8591 16.7162C24.741 16.6795 24.6157 16.672 24.4941 16.6944C24.3724 16.7168 24.2581 16.7684 24.1608 16.8448C24.0635 16.9212 23.9862 17.02 23.9356 17.1329C23.3953 18.3503 21.294 17.3898 21.7747 16.2409C21.8223 16.125 21.8407 15.9991 21.8282 15.8743C21.8156 15.7496 21.7725 15.6299 21.7027 15.5258C21.6329 15.4216 21.5386 15.3363 21.4279 15.2773C21.3173 15.2183 21.1939 15.1875 21.0685 15.1875H21.0681C20.9427 15.1877 20.8193 15.2188 20.7087 15.2779C20.5982 15.3371 20.5039 15.4226 20.4342 15.5268C20.3645 15.631 20.3215 15.7508 20.3091 15.8756C20.2966 16.0004 20.3151 16.1263 20.3628 16.2422C20.849 17.3964 18.7152 18.3579 18.1935 17.1136C18.1445 16.9995 18.0684 16.899 17.9719 16.821C17.8753 16.7429 17.7612 16.6895 17.6393 16.6655C17.5175 16.6415 17.3916 16.6476 17.2727 16.6832C17.1537 16.7188 17.0452 16.7829 16.9566 16.87C16.868 16.957 16.802 17.0643 16.7643 17.1827C16.7266 17.301 16.7183 17.4267 16.7401 17.549C16.7619 17.6712 16.8133 17.7863 16.8896 17.8842C16.966 17.9821 17.0651 18.06 17.1784 18.1109C18.3851 18.6443 17.5123 20.7933 16.2908 20.2734C16.1755 20.2254 16.0502 20.2065 15.9259 20.2182C15.8015 20.23 15.682 20.272 15.5777 20.3407C15.4734 20.4094 15.3876 20.5027 15.3277 20.6123C15.2679 20.7218 15.2358 20.8444 15.2344 20.9693C15.2329 21.0942 15.2621 21.2175 15.3194 21.3284C15.3767 21.4394 15.4604 21.5346 15.563 21.6057C15.6657 21.6768 15.7842 21.7216 15.9082 21.7362C16.0322 21.7508 16.158 21.7348 16.2743 21.6896C17.4351 21.2281 18.4331 23.3493 17.1745 23.8472C17.059 23.894 16.9566 23.9683 16.8765 24.0637C16.7963 24.1591 16.7407 24.2727 16.7146 24.3946C16.6884 24.5164 16.6925 24.6428 16.7265 24.7627C16.7604 24.8827 16.8233 24.9924 16.9094 25.0825C16.9956 25.1725 17.1025 25.2401 17.2208 25.2793C17.3391 25.3184 17.4652 25.3281 17.5881 25.3073C17.711 25.2865 17.8269 25.236 17.9257 25.1601C18.0246 25.0842 18.1033 24.9852 18.1551 24.8719C18.6595 23.7422 20.849 24.5174 20.3208 25.7547Z" fill="black"/>
<path d="M21.0469 22.3594C20.778 22.3594 20.5152 22.2797 20.2916 22.1303C20.0681 21.9809 19.8939 21.7686 19.791 21.5202C19.6881 21.2718 19.6612 20.9985 19.7136 20.7348C19.7661 20.4711 19.8955 20.2289 20.0857 20.0388C20.2758 19.8487 20.518 19.7192 20.7817 19.6667C21.0454 19.6143 21.3187 19.6412 21.5671 19.7441C21.8155 19.847 22.0278 20.0212 22.1772 20.2448C22.3265 20.4683 22.4063 20.7311 22.4063 21C22.4058 21.3604 22.2625 21.7059 22.0076 21.9608C21.7528 22.2156 21.4073 22.359 21.0469 22.3594ZM21.0469 20.0156C20.8522 20.0156 20.6619 20.0734 20.5 20.1815C20.3381 20.2897 20.2119 20.4434 20.1374 20.6233C20.0629 20.8032 20.0434 21.0011 20.0814 21.192C20.1194 21.383 20.2132 21.5584 20.3508 21.6961C20.4885 21.8337 20.6639 21.9275 20.8548 21.9655C21.0458 22.0034 21.2437 21.984 21.4236 21.9094C21.6035 21.8349 21.7572 21.7088 21.8654 21.5469C21.9735 21.385 22.0313 21.1947 22.0313 21C22.031 20.739 21.9272 20.4888 21.7426 20.3043C21.5581 20.1197 21.3079 20.0159 21.0469 20.0156Z" fill="black"/>
<path d="M20.4533 31.1003L20.4449 29.8558L19.6863 29.1072C19.1116 28.5401 19.9687 27.6739 20.5423 28.2397L21.0469 28.7376L21.5447 28.233H21.5447C22.1115 27.6589 22.9788 28.5149 22.4122 29.0891L21.6637 29.8476L21.672 31.0922C21.6774 31.9014 20.4588 31.9118 20.4533 31.1003ZM19.9497 28.8403L20.7636 29.6434C20.799 29.6783 20.8191 29.7259 20.8194 29.7756L20.8282 31.0978C20.8304 31.4137 21.299 31.4009 21.297 31.0947L21.2882 29.7725C21.2878 29.7227 21.3073 29.6749 21.3422 29.6395L22.1453 28.8256C22.3631 28.6049 22.0287 28.2764 21.8116 28.4964L21.1821 29.1344C21.1472 29.1698 21.0996 29.1898 21.0499 29.1901C21.0002 29.1905 20.9523 29.1711 20.9169 29.1362L20.279 28.5066C20.0562 28.287 19.7319 28.6254 19.9497 28.8403Z" fill="black"/>
<path d="M27.7677 28.5607L26.8818 27.6866L25.816 27.6937C25.0086 27.6991 25.0022 26.4805 25.8079 26.475L26.5167 26.4702L26.5119 25.7615V25.7614C26.5067 24.9547 27.7252 24.9467 27.7306 25.7533L27.7378 26.819L28.6237 27.6931C29.1997 28.2616 28.3454 29.1306 27.7677 28.5607ZM25.8135 27.3187L26.9569 27.3111C27.0067 27.3107 27.0545 27.3302 27.0899 27.3651L28.0311 28.2938C28.2559 28.5157 28.5783 28.1752 28.3603 27.9601L27.4192 27.0314C27.3838 26.9965 27.3637 26.949 27.3633 26.8992L27.3557 25.7559C27.3536 25.4458 26.8849 25.45 26.8869 25.759L26.893 26.6553C26.8933 26.705 26.8738 26.7528 26.8389 26.7882C26.804 26.8236 26.7564 26.8437 26.7067 26.844L25.8104 26.85C25.4976 26.8522 25.5075 27.3207 25.8135 27.3187Z" fill="black"/>
<path d="M31.1472 21.5926L29.9027 21.601L29.1541 22.3596C28.5869 22.9343 27.7208 22.0771 28.2866 21.5035L28.7844 20.9991L28.2799 20.5012V20.5012C27.7058 19.9344 28.5617 19.0672 29.1359 19.6337L29.8945 20.3822L31.1391 20.3739C31.9483 20.3685 31.9587 21.5871 31.1472 21.5926ZM28.8872 22.0962L29.6903 21.2823C29.7252 21.2469 29.7728 21.2268 29.8225 21.2265L31.1447 21.2176C31.4606 21.2155 31.4478 20.7469 31.1416 20.7489L29.8194 20.7577C29.7696 20.7581 29.7218 20.7386 29.6864 20.7037L28.8725 19.9007C28.6518 19.6828 28.3233 20.0172 28.5433 20.2343L29.1813 20.8638C29.2166 20.8987 29.2367 20.9463 29.237 20.996C29.2374 21.0457 29.2179 21.0936 29.183 21.129L28.5535 21.7669C28.3339 21.9897 28.6723 22.314 28.8872 22.0962Z" fill="black"/>
<path d="M28.6076 14.2778L27.7335 15.1637L27.7406 16.2294C27.7459 17.0369 26.5273 17.0432 26.5218 16.2375L26.5171 15.5288L25.8084 15.5336H25.8083C25.0015 15.5387 24.9936 14.3202 25.8002 14.3148L26.8659 14.3077L27.74 13.4217C28.3085 12.8457 29.1775 13.7001 28.6076 14.2778ZM27.3656 16.2319L27.3579 15.0885C27.3576 15.0388 27.377 14.991 27.412 14.9556L28.3406 14.0144C28.5625 13.7895 28.222 13.4672 28.007 13.6852L27.0783 14.6263C27.0434 14.6617 26.9958 14.6818 26.9461 14.6821L25.8027 14.6898C25.4926 14.6918 25.4968 15.1606 25.8059 15.1585L26.7021 15.1525C26.7518 15.1522 26.7996 15.1717 26.835 15.2066C26.8704 15.2415 26.8905 15.2891 26.8909 15.3388L26.8968 16.235C26.899 16.5479 27.3676 16.5379 27.3656 16.2319Z" fill="black"/>
<path d="M21.6395 10.9006L21.6478 12.1451L22.4064 12.8937C22.9812 13.4609 22.124 14.327 21.5504 13.7612L21.0459 13.2634L20.5481 13.7679H20.5481C19.9812 14.342 19.114 13.4861 19.6806 12.9119L20.4291 12.1533L20.4208 10.9088C20.4154 10.0995 21.634 10.0891 21.6395 10.9006ZM22.143 13.1606L21.3291 12.3575C21.2938 12.3226 21.2737 12.275 21.2734 12.2253L21.2645 10.9031C21.2624 10.5872 20.7937 10.6 20.7958 10.9063L20.8046 12.2284C20.8049 12.2782 20.7855 12.326 20.7506 12.3614L19.9475 13.1753C19.7297 13.396 20.0641 13.7245 20.2812 13.5045L20.9107 12.8665C20.9456 12.8312 20.9932 12.8111 21.0429 12.8108C21.0926 12.8104 21.1404 12.8299 21.1759 12.8648L21.8138 13.4943C22.0366 13.7139 22.3609 13.3756 22.143 13.1606Z" fill="black"/>
<path d="M14.3247 13.44L15.2106 14.3141L16.2763 14.307C17.0837 14.3016 17.0901 15.5202 16.2844 15.5257L15.5757 15.5304L15.5804 16.2392V16.2392C15.5856 17.046 14.3671 17.054 14.3617 16.2473L14.3546 15.1816L13.4686 14.3075C12.8926 13.7391 13.7469 12.87 14.3247 13.44ZM16.2788 14.682L15.1354 14.6896C15.0857 14.6899 15.0378 14.6705 15.0024 14.6356L14.0613 13.7069C13.8364 13.485 13.5141 13.8255 13.732 14.0406L14.6732 14.9693C14.7086 15.0042 14.7287 15.0517 14.729 15.1014L14.7367 16.2448C14.7387 16.5549 15.2075 16.5507 15.2054 16.2416L15.1994 15.3454C15.1991 15.2957 15.2185 15.2479 15.2535 15.2125C15.2884 15.1771 15.3359 15.157 15.3857 15.1567L16.2819 15.1507C16.5948 15.1485 16.5848 14.6799 16.2788 14.682Z" fill="black"/>
<path d="M10.9475 20.4064L12.192 20.3981L12.9406 19.6395C13.5078 19.0647 14.3739 19.9219 13.8081 20.4955L13.3102 21L13.8148 21.4978L13.8148 21.4978C14.3889 22.0647 13.533 22.9319 12.9588 22.3653L12.2002 21.6168L10.9556 21.6251C10.1464 21.6305 10.136 20.4119 10.9475 20.4064ZM13.2075 19.9029L12.4044 20.7167C12.3695 20.7521 12.3219 20.7722 12.2722 20.7725L10.95 20.7814C10.6341 20.7835 10.6469 21.2522 10.9532 21.2501L12.2753 21.2413C12.3251 21.2409 12.3729 21.2604 12.4083 21.2953L13.2222 22.0984C13.4429 22.3162 13.7714 21.9818 13.5514 21.7647L12.9134 21.1352C12.878 21.1003 12.858 21.0527 12.8577 21.003C12.8573 20.9533 12.8767 20.9055 12.9116 20.8701L13.5412 20.2321C13.7608 20.0093 13.4224 19.685 13.2075 19.9029Z" fill="black"/>
<path d="M13.4868 27.7227L14.3609 26.8368L14.3538 25.7711C14.3485 24.9637 15.5671 24.9573 15.5726 25.763L15.5773 26.4717L16.2861 26.467H16.2861C17.0929 26.4618 17.1008 27.6803 16.2942 27.6857L15.2285 27.6928L14.3544 28.5787C13.7859 29.1548 12.9169 28.3004 13.4868 27.7227ZM14.7288 25.7686L14.7365 26.912C14.7368 26.9617 14.7174 27.0096 14.6824 27.0449L13.7538 27.9861C13.5319 28.211 13.8724 28.5333 14.0874 28.3154L15.0161 27.3742C15.051 27.3388 15.0986 27.3187 15.1483 27.3184L16.2917 27.3107C16.6018 27.3087 16.5976 26.8399 16.2885 26.842L15.3923 26.848C15.3426 26.8483 15.2948 26.8289 15.2594 26.7939C15.224 26.759 15.2039 26.7115 15.2036 26.6617L15.1976 25.7655C15.1954 25.4526 14.7268 25.4626 14.7288 25.7686Z" fill="black"/>
</svg>
