<svg width="42" height="42" viewBox="0 0 42 42" fill="none" xmlns="http://www.w3.org/2000/svg">
<circle cx="21" cy="21" r="20.5" fill="#EEF3FA" stroke="#C2D3EC"/>
<g clip-path="url(#clip0_184_21593)">
<path d="M19.6147 9.02539C19.0302 9.02539 18.5547 9.50089 18.5547 10.0854V18.8717C18.5547 18.9863 18.6105 19.0937 18.7041 19.1596C19.4006 19.6497 19.8551 20.4401 19.9509 21.3282C19.9702 21.507 20.1211 21.6425 20.3009 21.6425H20.3226C20.5171 21.6425 20.6746 21.4848 20.6746 21.2904V10.0854C20.6747 9.50089 20.1992 9.02539 19.6147 9.02539Z" fill="#CE3043"/>
<path d="M22.3842 9.02539C21.7998 9.02539 21.3242 9.50089 21.3242 10.0854V21.2904C21.3242 21.4848 21.4819 21.6424 21.6762 21.6424H21.6979C21.8777 21.6424 22.0287 21.5069 22.0479 21.3282C22.1437 20.4401 22.5982 19.6497 23.2947 19.1596C23.3885 19.0937 23.4442 18.9863 23.4442 18.8716V10.0854C23.4442 9.50089 22.9687 9.02539 22.3842 9.02539Z" fill="#CE3043"/>
<path d="M17.2045 17.9746H16.6761C16.514 17.9746 16.3729 18.0852 16.3342 18.2426C16.267 18.5158 16.2344 18.7753 16.2344 19.0359C16.2344 19.2895 16.2651 19.5415 16.3285 19.8063C16.3664 19.9648 16.5079 20.0765 16.6709 20.0765H17.2045C17.9584 20.0765 18.5717 20.7957 18.5717 21.6798V31.9236C18.5717 32.5031 19.0432 32.9746 19.6226 32.9746C20.2021 32.9746 20.6736 32.5032 20.6736 31.9236V21.6798C20.6735 19.6368 19.1173 17.9746 17.2045 17.9746Z" fill="#EF3A47"/>
<path d="M25.6636 18.2426C25.6249 18.0852 25.4838 17.9746 25.3217 17.9746H24.7933C22.8805 17.9746 21.3242 19.6368 21.3242 21.6798V31.9236C21.3242 32.5031 21.7957 32.9746 22.3752 32.9746C22.9546 32.9746 23.4261 32.5032 23.4261 31.9236V21.6798C23.4261 20.7958 24.0394 20.0765 24.7933 20.0765H25.3269C25.4899 20.0765 25.6314 19.9648 25.6693 19.8063C25.7327 19.5415 25.7634 19.2895 25.7634 19.0359C25.7634 18.7753 25.7307 18.5158 25.6636 18.2426Z" fill="#EF3A47"/>
<path d="M17.6714 21.1674C17.3114 20.4904 16.9392 19.7903 16.9392 19.0355C16.9392 18.2806 17.3114 17.5806 17.6714 16.9035C18.1618 15.9811 18.669 15.0272 18.2498 13.9309C17.9446 13.1326 17.382 12.5294 16.6228 12.1865C15.9221 11.87 15.0884 11.7883 14.212 11.9501C12.887 12.1948 11.5913 12.9847 10.6569 14.1172C9.57295 15.431 9 17.1317 9 19.0355C9 20.9393 9.57295 22.6401 10.6569 23.9538C11.5913 25.0863 12.8871 25.8762 14.212 26.1208C14.505 26.1749 14.7932 26.2018 15.0733 26.2018C15.6311 26.2018 16.1564 26.0952 16.6228 25.8845C17.382 25.5415 17.9446 24.9383 18.2499 24.1401C18.669 23.0437 18.1619 22.0899 17.6714 21.1674Z" fill="#F77474"/>
<path d="M17.6711 21.1674C17.3111 20.4904 16.9388 19.7903 16.9388 19.0355C16.9388 18.2806 17.3111 17.5806 17.6711 16.9035C18.1615 15.9811 18.6687 15.0272 18.2495 13.9309C17.9442 13.1326 17.3816 12.5294 16.6224 12.1865C15.9217 11.87 15.088 11.7883 14.2116 11.9501C14.1978 11.9527 14.1839 11.9557 14.1701 11.9583C14.4131 12.0112 14.6459 12.0872 14.8656 12.1865C15.6248 12.5294 16.1873 13.1326 16.4926 13.9309C16.9118 15.0272 16.4046 15.9811 15.9142 16.9035C15.5542 17.5806 15.182 18.2807 15.182 19.0355C15.182 19.7903 15.5542 20.4904 15.9142 21.1674C16.4047 22.0899 16.9118 23.0437 16.4926 24.1401C16.1874 24.9383 15.6248 25.5415 14.8656 25.8845C14.6454 25.9839 14.4116 26.0593 14.168 26.1122C14.1825 26.115 14.1971 26.1181 14.2116 26.1208C14.5047 26.1749 14.7928 26.2018 15.0729 26.2018C15.6307 26.2018 16.156 26.0952 16.6225 25.8845C17.3817 25.5416 17.9442 24.9384 18.2495 24.1401C18.6686 23.0437 18.1615 22.0899 17.6711 21.1674Z" fill="#E55555"/>
<path d="M31.3424 14.1172C30.408 12.9847 29.1122 12.1948 27.7873 11.9501C26.9108 11.7883 26.0771 11.87 25.3765 12.1864C24.6173 12.5294 24.0547 13.1326 23.7494 13.9309C23.3302 15.0272 23.8374 15.981 24.3278 16.9035C24.6878 17.5805 25.0601 18.2807 25.0601 19.0354C25.0601 19.7903 24.6878 20.4903 24.3278 21.1674C23.8374 22.0898 23.3302 23.0437 23.7494 24.14C24.0547 24.9383 24.6173 25.5415 25.3765 25.8844C25.843 26.0951 26.3682 26.2018 26.926 26.2018C27.206 26.2018 27.4943 26.1749 27.7873 26.1208C29.1123 25.8761 30.408 25.0862 31.3424 23.9537C32.4264 22.64 32.9993 20.9393 32.9993 19.0355C32.9993 17.1317 32.4263 15.431 31.3424 14.1172Z" fill="#F77474"/>
<path d="M31.3435 14.117C30.4092 12.9845 29.1133 12.1946 27.7884 11.9499C27.1738 11.8364 26.5805 11.8432 26.0391 11.9661C27.3352 12.2278 28.5969 13.0078 29.5119 14.1169C30.5959 15.4306 31.1688 17.1313 31.1688 19.0351C31.1688 20.9389 30.5959 22.6397 29.5119 23.9534C28.5973 25.062 27.3364 25.8418 26.0408 26.1038C26.3236 26.1679 26.6202 26.2014 26.9271 26.2014C27.2071 26.2014 27.4954 26.1745 27.7884 26.1204C29.1133 25.8758 30.4091 25.0859 31.3435 23.9534C32.4274 22.6396 33.0004 20.9389 33.0004 19.0351C33.0004 17.1313 32.4275 15.4308 31.3435 14.117Z" fill="#E55555"/>
<path d="M17.3003 20.7321C17.298 20.653 17.2956 20.5699 17.2934 20.4842C17.2922 20.4382 17.2821 20.3928 17.2634 20.3508C17.0432 19.8538 16.9406 19.4358 16.9406 19.0352C16.9406 18.6623 17.0277 18.2801 17.2147 17.8323C17.2299 17.7957 17.239 17.7567 17.2412 17.7171C17.254 17.4964 17.291 16.3706 16.7542 15.8757C16.5531 15.6902 16.2972 15.6131 16.0153 15.6527C15.1752 15.7705 15.1313 16.5083 15.105 16.9491C15.0968 17.0861 15.0832 17.3139 15.0419 17.3683C15.0412 17.3686 15.0405 17.3688 15.0396 17.3691C14.9678 17.3912 14.7722 17.3473 14.6294 17.3153C14.4171 17.2676 14.1975 17.2184 13.9825 17.247C13.6666 17.2891 13.4465 17.4917 13.3628 17.8175C13.235 18.3142 13.6681 18.619 13.9842 18.8414C14.2718 19.0437 14.4582 19.1874 14.4308 19.335C14.3969 19.5185 14.1916 19.6996 13.9931 19.8746C13.6666 20.1626 13.1201 20.6445 13.6139 21.3071C13.8207 21.5848 14.1318 21.6972 14.4901 21.6233C14.7375 21.5724 14.9677 21.4463 15.1707 21.335C15.1969 21.3207 15.2269 21.3043 15.2574 21.2879C15.4286 21.7665 15.8569 22.105 16.3176 22.105C16.3454 22.105 16.3733 22.1038 16.4011 22.1013C16.6783 22.0765 16.9193 21.9284 17.0798 21.6844C17.2378 21.4442 17.3119 21.1237 17.3003 20.7321Z" fill="#FFC89F"/>
<path d="M16.9778 19.458C16.9775 19.4564 16.9772 19.4548 16.9769 19.4532C16.9693 19.4084 16.9629 19.3638 16.9576 19.3198C16.9573 19.3175 16.9571 19.3152 16.9569 19.3129C16.9517 19.268 16.9476 19.2235 16.945 19.1793C16.9449 19.1772 16.9448 19.1752 16.9447 19.1731C16.9421 19.1273 16.9406 19.0818 16.9406 19.0365C16.9406 18.7747 16.9846 18.5077 17.0749 18.2172C17.0762 18.2131 17.0773 18.209 17.0786 18.2049C17.0909 18.1661 17.1041 18.1266 17.1181 18.0868C17.1209 18.0788 17.1236 18.0708 17.1265 18.0628C17.14 18.025 17.1542 17.9868 17.1692 17.9482C17.1722 17.9402 17.1754 17.9324 17.1785 17.9244C17.1904 17.8942 17.2017 17.8645 17.2145 17.8337C17.2298 17.7971 17.2389 17.7581 17.2411 17.7185C17.2539 17.4978 17.2909 16.372 16.7541 15.8771C16.6707 15.8002 16.5777 15.7422 16.4775 15.7031C16.3354 16.115 16.1242 16.5127 15.9158 16.9047C15.5558 17.5817 15.1836 18.2819 15.1836 19.0366C15.1836 19.7915 15.5558 20.4915 15.9158 21.1686C16.079 21.4755 16.2439 21.7859 16.376 22.1039C16.3843 22.1034 16.3926 22.1035 16.401 22.1028C16.6781 22.0779 16.9191 21.9298 17.0797 21.6858C17.2376 21.4456 17.3118 21.1252 17.3002 20.7336C17.2978 20.6545 17.2955 20.5714 17.2933 20.4857C17.2921 20.4397 17.2819 20.3943 17.2632 20.3523C17.1875 20.1814 17.1261 20.02 17.0775 19.8652C17.0773 19.8647 17.0772 19.8642 17.077 19.8636C17.0332 19.7233 17.0003 19.5888 16.9778 19.458Z" fill="#F7B081"/>
<path d="M28.0077 19.8747C27.8092 19.6996 27.6038 19.5185 27.5699 19.3351C27.5426 19.1875 27.729 19.0438 28.0165 18.8414C28.3327 18.6189 28.7657 18.3142 28.6379 17.8175C28.5542 17.4917 28.3341 17.2891 28.0183 17.247C27.8035 17.2183 27.5837 17.2676 27.3713 17.3153C27.2285 17.3474 27.0328 17.3912 26.9612 17.3691C26.9602 17.3688 26.9595 17.3686 26.9589 17.3684C26.9175 17.3139 26.9039 17.0861 26.8957 16.9491C26.8695 16.5083 26.8255 15.7705 25.9855 15.6527C25.7034 15.6131 25.4476 15.6901 25.2465 15.8757C24.7097 16.3706 24.7467 17.4964 24.7595 17.7171C24.7618 17.7567 24.7708 17.7957 24.7861 17.8323C24.973 18.28 25.0601 18.6622 25.0601 19.0352C25.0601 19.4357 24.9576 19.8538 24.7374 20.3507C24.7188 20.3928 24.7086 20.4381 24.7073 20.4841C24.7051 20.5699 24.7027 20.6529 24.7004 20.7319C24.6888 21.1237 24.7629 21.4441 24.9209 21.6843C25.0814 21.9283 25.3225 22.0764 25.5996 22.1012C25.6276 22.1037 25.6554 22.1049 25.6831 22.1049C26.1438 22.1049 26.5721 21.7663 26.7433 21.2878C26.7738 21.3042 26.8039 21.3206 26.83 21.3349C27.033 21.4461 27.2632 21.5722 27.5106 21.6232C27.8689 21.6971 28.18 21.5847 28.3868 21.3071C28.8806 20.6445 28.3342 20.1626 28.0077 19.8747Z" fill="#FFC89F"/>
</g>
<defs>
<clipPath id="clip0_184_21593">
<rect width="24" height="24" fill="white" transform="translate(9 9)"/>
</clipPath>
</defs>
</svg>
