<svg width="25" height="25" viewBox="0 0 25 25" fill="none" xmlns="http://www.w3.org/2000/svg">
<circle cx="12.293" cy="12.5" r="11.5" fill="#EEF3FA" stroke="#C2D3EC"/>
<g clip-path="url(#clip0_248_15976)">
<path d="M12.2946 9.03125C15.3055 9.03125 17.808 10.8884 18.9786 12.078C19.2095 12.3127 19.2095 12.6883 18.9786 12.923C17.808 14.1126 15.3055 15.9697 12.2946 15.9697C9.2838 15.9697 6.78127 14.1126 5.61073 12.923C5.37976 12.6883 5.37976 12.3127 5.61073 12.078C6.78127 10.8884 9.2838 9.03125 12.2946 9.03125Z" fill="#D1EFF2"/>
<path d="M12.2935 15.9698C14.2095 15.9698 15.7628 14.4166 15.7628 12.5005C15.7628 10.5845 14.2095 9.03125 12.2935 9.03125C10.3775 9.03125 8.82422 10.5845 8.82422 12.5005C8.82422 14.4166 10.3775 15.9698 12.2935 15.9698Z" fill="#76B7EB"/>
<path opacity="0.1" d="M10.4985 9.53125C9.49493 10.1392 8.82422 11.2415 8.82422 12.5006C8.82422 14.4166 10.3774 15.9698 12.2935 15.9698C13.121 15.9698 13.8807 15.6799 14.4771 15.1963C9.20369 16.4765 8.82422 11.4167 10.4985 9.53125Z" fill="black"/>
<path d="M12.2933 14.1999C13.2319 14.1999 13.9929 13.439 13.9929 12.5003C13.9929 11.5617 13.2319 10.8008 12.2933 10.8008C11.3547 10.8008 10.5938 11.5617 10.5938 12.5003C10.5938 13.439 11.3547 14.1999 12.2933 14.1999Z" fill="#38648C"/>
<path d="M13.9588 12.3923C14.4021 12.3923 14.7614 12.0329 14.7614 11.5897C14.7614 11.1464 14.4021 10.7871 13.9588 10.7871C13.5156 10.7871 13.1562 11.1464 13.1562 11.5897C13.1562 12.0329 13.5156 12.3923 13.9588 12.3923Z" fill="white"/>
<path opacity="0.15" d="M5.73438 11.9563C6.89878 11.2373 9.49878 9.74121 12.2961 9.74121C15.0935 9.74121 17.6935 11.2373 18.8579 11.9563C17.6412 10.766 15.2061 9.03125 12.2961 9.03125C9.3861 9.03125 6.95101 10.766 5.73438 11.9563Z" fill="black"/>
<g opacity="0.1">
<path opacity="0.1" d="M14.4303 14.4372C14.3858 14.4372 14.3409 14.4224 14.3037 14.3921L14.0585 14.1927C13.9724 14.1227 13.9594 13.9962 14.0294 13.9101C14.0994 13.824 14.226 13.811 14.312 13.881L14.5572 14.0804C14.6433 14.1504 14.6563 14.2769 14.5863 14.363C14.5466 14.4119 14.4887 14.4372 14.4303 14.4372Z" fill="black"/>
<path opacity="0.1" d="M14.9252 13.5038C14.9058 13.5038 14.886 13.5009 14.8665 13.495L14.5642 13.4028C14.4581 13.3705 14.3983 13.2582 14.4307 13.1521C14.463 13.046 14.5752 12.9862 14.6814 13.0185L14.9837 13.1107C15.0898 13.1431 15.1496 13.2553 15.1173 13.3614C15.0908 13.448 15.0112 13.5038 14.9252 13.5038Z" fill="black"/>
<path opacity="0.1" d="M12.041 15.443C12.0348 15.443 12.0285 15.4428 12.0222 15.4422C11.9118 15.432 11.8305 15.3341 11.8407 15.2236L11.8698 14.9089C11.88 14.7985 11.9779 14.7174 12.0883 14.7274C12.1988 14.7376 12.2801 14.8354 12.2698 14.9459L12.2408 15.2606C12.2311 15.3648 12.1436 15.443 12.041 15.443Z" fill="black"/>
<path opacity="0.1" d="M9.62659 13.3847C9.53702 13.3847 9.45538 13.3243 9.43213 13.2336C9.40456 13.1261 9.46936 13.0166 9.57682 12.9891L9.88298 12.9106C9.99058 12.8831 10.0999 12.9479 10.1275 13.0553C10.155 13.1628 10.0902 13.2723 9.98276 13.2998L9.6766 13.3783C9.65988 13.3826 9.64312 13.3847 9.62659 13.3847Z" fill="black"/>
<path opacity="0.1" d="M10.9944 10.6381C10.9277 10.6381 10.8623 10.6049 10.8242 10.5442L10.6559 10.2767C10.5968 10.1828 10.625 10.0587 10.7189 9.99964C10.8128 9.94055 10.9369 9.96876 10.996 10.0627L11.1643 10.3302C11.2234 10.4241 11.1951 10.5481 11.1012 10.6072C11.068 10.6281 11.031 10.6381 10.9944 10.6381Z" fill="black"/>
<path opacity="0.1" d="M13.4195 10.5413C13.3882 10.5413 13.3564 10.534 13.3267 10.5185C13.2283 10.4671 13.1902 10.3457 13.2416 10.2474L13.388 9.96727C13.4393 9.86891 13.5607 9.83093 13.659 9.8822C13.7573 9.93357 13.7954 10.0549 13.7441 10.1533L13.5977 10.4334C13.5619 10.502 13.4919 10.5413 13.4195 10.5413Z" fill="black"/>
</g>
</g>
<defs>
<clipPath id="clip0_248_15976">
<rect width="13.7143" height="13.7143" fill="white" transform="translate(5.4375 5.64258)"/>
</clipPath>
</defs>
</svg>
