<svg width="42" height="42" viewBox="0 0 42 42" fill="none" xmlns="http://www.w3.org/2000/svg">
<circle cx="21" cy="21" r="20.5" fill="#EEF3FA" stroke="#C2D3EC"/>
<g clip-path="url(#clip0_184_21326)">
<path d="M21 14.9297C26.269 14.9297 30.6484 18.1797 32.6969 20.2614C33.1011 20.6723 33.1011 21.3294 32.6969 21.7402C30.6484 23.822 26.269 27.072 21 27.072C15.731 27.072 11.3516 23.822 9.30315 21.7403C8.89895 21.3294 8.89895 20.6723 9.30315 20.2615C11.3516 18.1797 15.731 14.9297 21 14.9297Z" fill="#D1EFF2"/>
<path d="M21.0009 27.0722C24.354 27.0722 27.0722 24.354 27.0722 21.0009C27.0722 17.6479 24.354 14.9297 21.0009 14.9297C17.6479 14.9297 14.9297 17.6479 14.9297 21.0009C14.9297 24.354 17.6479 27.0722 21.0009 27.0722Z" fill="#76B7EB"/>
<path opacity="0.1" d="M17.8597 15.8027C16.1034 16.8667 14.9297 18.7957 14.9297 20.9991C14.9297 24.3521 17.6478 27.0702 21.0008 27.0702C22.4491 27.0702 23.7786 26.5628 24.8221 25.7165C15.5938 27.9569 14.9297 19.1023 17.8597 15.8027Z" fill="black"/>
<path d="M21.0016 23.9738C22.6442 23.9738 23.9758 22.6422 23.9758 20.9996C23.9758 19.357 22.6442 18.0254 21.0016 18.0254C19.3589 18.0254 18.0273 19.357 18.0273 20.9996C18.0273 22.6422 19.3589 23.9738 21.0016 23.9738Z" fill="#38648C"/>
<path d="M23.9162 20.8129C24.6919 20.8129 25.3208 20.1841 25.3208 19.4084C25.3208 18.6327 24.6919 18.0039 23.9162 18.0039C23.1405 18.0039 22.5117 18.6327 22.5117 19.4084C22.5117 20.1841 23.1405 20.8129 23.9162 20.8129Z" fill="white"/>
<path opacity="0.15" d="M9.51562 20.0484C11.5533 18.7902 16.1033 16.1721 20.9987 16.1721C25.894 16.1721 30.444 18.7902 32.4817 20.0484C30.3526 17.9655 26.0912 14.9297 20.9987 14.9297C15.9061 14.9297 11.6447 17.9655 9.51562 20.0484Z" fill="black"/>
<g opacity="0.1">
<path opacity="0.1" d="M24.7335 24.392C24.6556 24.392 24.5771 24.3662 24.5119 24.3132L24.0829 23.9642C23.9322 23.8417 23.9095 23.6203 24.032 23.4696C24.1544 23.3189 24.3759 23.2962 24.5265 23.4187L24.9556 23.7677C25.1062 23.8902 25.129 24.1116 25.0065 24.2623C24.937 24.3477 24.8357 24.392 24.7335 24.392Z" fill="black"/>
<path opacity="0.1" d="M25.6073 22.7571C25.5734 22.7571 25.5389 22.7522 25.5047 22.7417L24.9757 22.5804C24.7899 22.5238 24.6853 22.3274 24.7419 22.1416C24.7986 21.9559 24.9949 21.8514 25.1807 21.9079L25.7098 22.0692C25.8955 22.1258 26.0001 22.3223 25.9435 22.508C25.8973 22.6596 25.7579 22.7571 25.6073 22.7571Z" fill="black"/>
<path opacity="0.1" d="M20.5551 26.1484C20.5443 26.1484 20.5333 26.1479 20.5223 26.1469C20.329 26.129 20.1867 25.9578 20.2046 25.7644L20.2556 25.2137C20.2734 25.0203 20.4447 24.8786 20.638 24.896C20.8313 24.9138 20.9735 25.0851 20.9556 25.2784L20.9047 25.8292C20.8878 26.0115 20.7346 26.1484 20.5551 26.1484Z" fill="black"/>
<path opacity="0.1" d="M16.3319 22.5477C16.1751 22.5477 16.0323 22.4421 15.9916 22.2833C15.9433 22.0952 16.0567 21.9036 16.2448 21.8554L16.7806 21.7181C16.9689 21.67 17.1603 21.7833 17.2084 21.9714C17.2566 22.1594 17.1432 22.351 16.9552 22.3992L16.4194 22.5366C16.3901 22.544 16.3608 22.5477 16.3319 22.5477Z" fill="black"/>
<path opacity="0.1" d="M18.7285 17.7436C18.6117 17.7436 18.4974 17.6855 18.4306 17.5792L18.1361 17.1111C18.0327 16.9468 18.0821 16.7297 18.2464 16.6263C18.4107 16.5229 18.6278 16.5723 18.7312 16.7367L19.0258 17.2048C19.1292 17.3691 19.0798 17.5862 18.9154 17.6896C18.8573 17.7262 18.7925 17.7436 18.7285 17.7436Z" fill="black"/>
<path opacity="0.1" d="M22.9725 17.5724C22.9176 17.5724 22.862 17.5595 22.8099 17.5323C22.6379 17.4424 22.5712 17.23 22.6611 17.0579L22.9172 16.5677C23.0071 16.3956 23.2195 16.3291 23.3916 16.4188C23.5636 16.5088 23.6303 16.7211 23.5404 16.8932L23.2843 17.3835C23.2216 17.5036 23.0992 17.5724 22.9725 17.5724Z" fill="black"/>
</g>
</g>
<defs>
<clipPath id="clip0_184_21326">
<rect width="24" height="24" fill="white" transform="translate(9 9)"/>
</clipPath>
</defs>
</svg>
