<svg width="42" height="42" viewBox="0 0 42 42" fill="none" xmlns="http://www.w3.org/2000/svg">
<circle cx="21" cy="21" r="20.5" fill="#EEF3FA" stroke="#C2D3EC"/>
<g clip-path="url(#clip0_184_21348)">
<path d="M17.2699 22.2457C17.2591 22.2465 17.0274 22.2541 16.4849 22.2722C16.0439 22.2869 15.8445 22.8217 16.1529 23.1249C16.2485 23.2189 16.374 23.2708 16.5089 23.2671C16.7688 23.2626 17.0824 23.2472 17.5254 23.2171C18.3005 23.1643 18.9716 23.4753 19.4668 24.1162C20.6512 25.649 20.7608 29.0902 19.7755 32.4904C19.7015 32.7457 19.8938 33.0006 20.1597 33.0006H20.8514C21.0199 33.0006 21.1703 32.8952 21.2275 32.7368C21.5769 31.7691 22.7769 28.295 22.203 24.0576C21.8412 21.386 20.8831 19.3953 19.64 18.7324C18.8646 18.3189 17.841 18.2203 16.6799 18.4473C16.4078 18.5004 16.2228 18.7468 16.2496 19.0203C16.277 19.3008 16.5141 19.5043 16.7862 19.4987C17.0929 19.4948 17.5426 19.5109 17.9151 19.6952C18.2213 19.8468 18.5934 20.1701 18.6273 20.85C18.6584 21.4755 18.2469 22.1789 17.2699 22.2457Z" fill="#F28B74"/>
<path d="M31.9424 31.1396C30.7241 28.5005 26.1502 28.7436 25.1189 26.7185C24.7149 25.9245 24.8959 24.6266 25.8974 23.8277C30.4648 20.186 30.1528 12.9091 24.7009 10.0116C22.9316 9.0712 20.9207 8.77372 19.0383 9.1727C17.3715 9.52667 15.8416 10.4496 14.6132 11.8415C13.7737 12.7929 13.3337 14.0464 13.3732 15.3708C13.4421 17.4016 11.5307 18.3865 11.9163 19.9439C12.0548 20.5034 12.4713 20.9884 13.1568 21.3868L13.2897 23.0897C13.3997 24.4996 14.4932 25.6195 15.8891 25.754C16.2605 25.7895 16.638 25.8035 17.0165 25.796C17.7844 29.7375 11.5271 27.9635 10.061 31.1396C9.85449 31.5866 9.76349 32.0846 9.78949 32.6195C9.79999 32.8325 9.97548 33 10.189 33H18.4715C18.656 33 18.8164 32.874 18.8601 32.6947C19.249 31.0981 20.8554 23.7909 17.5778 24.0145C17.1208 24.0456 16.7948 24.0615 16.5208 24.0663C15.7602 24.0772 15.174 23.4496 15.2031 22.7166C15.2303 22.0324 15.8002 21.4939 16.4845 21.4711L17.22 21.4465C17.7901 21.4048 17.8341 21.0432 17.8265 20.8892C17.8109 20.5773 17.7233 20.2976 16.8492 20.2976C16.8313 20.2976 16.8131 20.2977 16.7945 20.298C16.0967 20.3063 15.5193 19.7908 15.4515 19.0976C15.3844 18.4116 15.8457 17.7943 16.5245 17.6616C17.8681 17.399 19.075 17.5249 20.0146 18.0259C21.8704 19.0157 22.7104 21.8569 22.9939 23.9496C23.3686 26.7172 23.065 29.7809 22.1621 32.4745C22.0755 32.733 22.269 32.9999 22.5416 32.9999H31.8145C32.028 32.9999 32.2035 32.8324 32.214 32.6194C32.2399 32.0846 32.1489 31.5866 31.9424 31.1396Z" fill="#F5D7B7"/>
</g>
<defs>
<clipPath id="clip0_184_21348">
<rect width="24" height="24" fill="white" transform="translate(9 9)"/>
</clipPath>
</defs>
</svg>
