<svg width="42" height="42" viewBox="0 0 42 42" fill="none" xmlns="http://www.w3.org/2000/svg">
<circle cx="21" cy="21" r="20.5" fill="#EEF3FA" stroke="#C2D3EC"/>
<g clip-path="url(#clip0_184_21614)">
<path d="M33 21C33 27.6275 27.6275 33 21 33C14.3725 33 9 27.6275 9 21C9 14.3725 14.3725 9 21 9C27.6275 9 33 14.3725 33 21Z" fill="#F5D7B7"/>
<path d="M28.2396 21.0026C28.2396 24.9983 25.0003 28.2377 21.0046 28.2377C17.0089 28.2377 13.7695 24.9983 13.7695 21.0026C13.7695 17.0069 17.0089 13.7676 21.0046 13.7676C25.0003 13.7676 28.2396 17.0069 28.2396 21.0026Z" fill="#FD919E"/>
<path d="M26.414 13.185L23.0297 16.5695H21.4301C20.5291 16.5695 19.7673 17.2758 19.7428 18.1766C19.717 19.1111 20.467 19.8765 21.3957 19.8765H22.1249V20.5713C22.1249 21.4723 22.8311 22.2339 23.732 22.2586C24.6663 22.2844 25.4319 21.5344 25.4319 20.6057V18.9716L28.8164 15.5871C29.4797 14.9239 29.4797 13.8482 28.8164 13.185C28.1529 12.5217 27.0775 12.5217 26.414 13.185Z" fill="#D3E6F8"/>
<path d="M13.185 26.4142L16.5695 23.03V21.4303C16.5695 20.5293 17.2758 19.7675 18.1766 19.7428C19.1111 19.7172 19.8765 20.4672 19.8765 21.3959V22.1248H20.5713C21.4723 22.1248 22.2339 22.8314 22.2586 23.732C22.2844 24.6665 21.5344 25.4321 20.6057 25.4321H18.9716L15.5871 28.8164C14.9239 29.4799 13.8482 29.4799 13.185 28.8164C12.5217 28.1531 12.5217 27.0777 13.185 26.4142Z" fill="#D3E6F8"/>
<path d="M23.7794 22.6073C23.7606 22.6073 23.7416 22.6071 23.7228 22.6066C22.6498 22.5772 21.7771 21.6643 21.7771 20.5715V20.2246H21.396C20.8509 20.2246 20.3414 20.0095 19.9614 19.6188C19.5814 19.2282 19.3804 18.7128 19.3953 18.1673C19.4247 17.0946 20.3376 16.2219 21.4304 16.2219H22.8858L26.1684 12.9393C26.555 12.5527 27.0688 12.3398 27.6154 12.3398C28.1621 12.3398 28.6761 12.5527 29.0627 12.9393C29.8604 13.7373 29.8604 15.0355 29.0627 15.8335L25.78 19.1159V20.6059C25.78 21.151 25.5649 21.6605 25.1743 22.0405C24.7973 22.4073 24.3038 22.6073 23.7794 22.6073ZM27.6156 13.0355C27.2547 13.0355 26.9155 13.1761 26.6605 13.4313H26.6603L23.276 16.8156C23.2108 16.8808 23.1222 16.9175 23.03 16.9175H21.4304C20.7108 16.9175 20.11 17.4866 20.0907 18.1863C20.081 18.5425 20.2121 18.879 20.4601 19.1338C20.708 19.3885 21.0405 19.5289 21.396 19.5289H22.1252C22.3172 19.5289 22.473 19.6847 22.473 19.8768V20.5715C22.473 21.2912 23.042 21.8919 23.7418 21.9112C24.098 21.9207 24.4343 21.7898 24.6892 21.5418C24.944 21.2939 25.0844 20.9615 25.0844 20.6059V18.9719C25.0844 18.8797 25.1211 18.7912 25.1863 18.7259L28.5708 15.3414C29.0973 14.8147 29.0973 13.9578 28.5708 13.4311C28.3156 13.1761 27.9764 13.0355 27.6156 13.0355ZM26.4146 13.1852H26.415H26.4146Z" fill="#4C4372"/>
<path d="M14.3863 29.6621C13.8398 29.6621 13.3258 29.4493 12.9393 29.0627C12.5527 28.6762 12.3398 28.1621 12.3398 27.6155C12.3398 27.069 12.5527 26.555 12.9393 26.1685L16.2219 22.8858V21.4305C16.2219 20.3376 17.0946 19.4248 18.1673 19.3954C18.7124 19.38 19.2282 19.5815 19.6188 19.9615C20.0095 20.3415 20.2246 20.851 20.2246 21.396V21.7771H20.5715C21.6643 21.7771 22.5772 22.6499 22.6066 23.7226C22.6216 24.2683 22.4205 24.7837 22.0405 25.1743C21.6603 25.565 21.151 25.7801 20.6059 25.7801H19.1159L15.8335 29.0627C15.447 29.4493 14.9329 29.6621 14.3863 29.6621ZM18.2235 20.0903C18.211 20.0903 18.1988 20.0903 18.1863 20.0908C17.4868 20.11 16.9175 20.7108 16.9175 21.4305V23.0301C16.9175 23.1223 16.8808 23.2108 16.8156 23.276L13.4313 26.6605C13.1761 26.9155 13.0357 27.2547 13.0357 27.6157C13.0357 27.9764 13.1761 28.3156 13.4313 28.5709C13.6863 28.8261 14.0255 28.9665 14.3865 28.9665C14.7475 28.9665 15.0864 28.8261 15.3417 28.5709L18.7262 25.1863C18.7914 25.1211 18.8797 25.0847 18.9721 25.0847H20.6062C20.9617 25.0847 21.2941 24.9443 21.5421 24.6893C21.79 24.4345 21.9211 24.098 21.9114 23.7418C21.8922 23.0423 21.2912 22.473 20.5717 22.473H19.877C19.685 22.473 19.5292 22.3172 19.5292 22.1252V21.3963C19.5292 21.0407 19.3888 20.7083 19.134 20.4603C18.8879 20.2208 18.5658 20.0903 18.2235 20.0903ZM13.1852 26.4144H13.1859H13.1852Z" fill="#4C4372"/>
</g>
<defs>
<clipPath id="clip0_184_21614">
<rect width="24" height="24" fill="white" transform="translate(9 9)"/>
</clipPath>
</defs>
</svg>
