<svg width="42" height="42" viewBox="0 0 42 42" fill="none" xmlns="http://www.w3.org/2000/svg">
<circle cx="21" cy="21" r="20.5" fill="#EEF3FA" stroke="#C2D3EC"/>
<g clip-path="url(#clip0_184_21359)">
<path d="M22.8641 20.4787C22.5178 20.2673 22.3066 19.8908 22.3066 19.485V11.0547H19.6955V19.485C19.6955 19.8879 19.4819 20.2687 19.1379 20.4787L16.4334 22.1298C16.2837 22.2212 16.2364 22.4166 16.3278 22.5663L17.3574 24.2528C17.4488 24.4025 17.6442 24.4497 17.7939 24.3584L20.4984 22.7072C20.61 22.6391 20.7173 22.5654 20.8201 22.4866C20.9271 22.4046 21.0763 22.4048 21.1832 22.4869C21.2856 22.5656 21.3924 22.6393 21.5036 22.7072L24.2081 24.3584C24.3578 24.4497 24.5532 24.4025 24.6446 24.2528L25.6742 22.5663C25.7656 22.4166 25.7183 22.2212 25.5686 22.1298L22.8641 20.4787Z" fill="#F5D7B7"/>
<path opacity="0.1" d="M19.6955 19.4844C19.6955 19.8874 19.4819 20.2682 19.1379 20.4782L16.4334 22.1293C16.2837 22.2207 16.2364 22.4161 16.3278 22.5657L17.3574 24.2523C17.4488 24.4019 17.6442 24.4492 17.7939 24.3578L20.4984 22.7067C20.5431 22.6794 20.5867 22.6505 20.6301 22.6214C20.6648 21.555 20.6746 20.4987 20.6746 19.4844C20.6746 18.4622 20.306 17.5248 19.6955 16.7969V19.4844H19.6955Z" fill="black"/>
<path d="M16.4853 16.2754C15.5992 16.2754 14.7968 16.6346 14.2161 17.2153C10.4131 21.0183 9 26.9028 9 30.9908C9 31.494 9.192 31.9972 9.57595 32.3812C9.95991 32.7652 10.4632 32.9572 10.9664 32.9572C11.9162 32.9572 15.4082 33.3519 17.5602 31.7386C17.6956 31.6428 17.8252 31.5351 17.9465 31.4138C18.344 31.0163 18.6048 30.5337 18.7289 30.0247C19.6129 26.8085 19.6945 22.5991 19.6945 19.4846C19.6945 17.7122 18.2577 16.2754 16.4853 16.2754Z" fill="#F28B74"/>
<path d="M11.9889 26.509C12.5264 26.509 12.9622 26.1621 12.9622 25.734C12.9622 25.306 12.5264 24.959 11.9889 24.959C11.4514 24.959 11.0156 25.306 11.0156 25.734C11.0156 26.1621 11.4514 26.509 11.9889 26.509Z" fill="white"/>
<path d="M17.2623 26.509C17.7998 26.509 18.2356 26.1621 18.2356 25.734C18.2356 25.306 17.7998 24.959 17.2623 24.959C16.7248 24.959 16.2891 25.306 16.2891 25.734C16.2891 26.1621 16.7248 26.509 17.2623 26.509Z" fill="white"/>
<path d="M12.5586 25.3124C12.3644 25.3124 12.207 25.155 12.207 24.9609V24.6172C12.207 24.423 12.3644 24.2656 12.5586 24.2656C12.7528 24.2656 12.9102 24.423 12.9102 24.6172V24.9609C12.9102 25.155 12.7528 25.3124 12.5586 25.3124Z" fill="#495059"/>
<path d="M16.6992 25.3124C16.5051 25.3124 16.3477 25.155 16.3477 24.9609V24.6172C16.3477 24.423 16.5051 24.2656 16.6992 24.2656C16.8934 24.2656 17.0508 24.423 17.0508 24.6172V24.9609C17.0508 25.155 16.8934 25.3124 16.6992 25.3124Z" fill="#495059"/>
<path d="M14.6279 25.5768C14.317 25.5768 14.0215 25.4422 13.817 25.2076C13.6894 25.0612 13.7047 24.8391 13.8511 24.7115C13.9975 24.584 14.2195 24.5992 14.3471 24.7456C14.418 24.827 14.5204 24.8737 14.6279 24.8737C14.7355 24.8737 14.8378 24.827 14.9087 24.7456C15.0363 24.5992 15.2584 24.584 15.4048 24.7115C15.5512 24.8391 15.5664 25.0612 15.4389 25.2076C15.2343 25.4422 14.9387 25.5768 14.6279 25.5768Z" fill="#495059"/>
<path opacity="0.1" d="M19.0278 28.7584C12.0612 32.3334 10.2951 25.8857 11.1623 21.5957C9.62588 24.7622 9 28.274 9 30.9919C9 31.4952 9.192 31.9984 9.57595 32.3824C9.95991 32.7663 10.4632 32.9583 10.9664 32.9583C11.9162 32.9583 15.4082 33.3531 17.5602 31.7398C17.6956 31.644 17.8252 31.5362 17.9465 31.415C18.344 31.0174 18.6048 30.5349 18.7289 30.0258C18.841 29.6179 18.9401 29.1939 19.0278 28.7584Z" fill="black"/>
<path opacity="0.1" d="M24.6453 24.2522L25.6749 22.5657C25.7663 22.416 25.719 22.2206 25.5694 22.1292L22.8648 20.4781C22.5185 20.2667 22.3073 19.8902 22.3073 19.4844V16.7969C21.6967 17.5248 21.3281 18.4622 21.3281 19.4844C21.3281 20.4986 21.338 21.5549 21.3727 22.6212C21.416 22.6504 21.4596 22.6794 21.5043 22.7067L24.2089 24.3578C24.3585 24.4492 24.554 24.4019 24.6453 24.2522Z" fill="black"/>
<path d="M25.5138 16.2754C26.4 16.2754 27.2023 16.6346 27.7831 17.2153C31.5861 21.0183 32.9992 26.9028 32.9992 30.9908C32.9992 31.494 32.8072 31.9972 32.4232 32.3812C32.0393 32.7652 31.536 32.9572 31.0328 32.9572C30.083 32.9572 26.591 33.3519 24.439 31.7386C24.3035 31.6428 24.174 31.5351 24.0527 31.4138C23.6552 31.0163 23.3943 30.5337 23.2703 30.0247C22.3863 26.8085 22.3047 22.5991 22.3047 19.4846C22.3047 17.7122 23.7415 16.2754 25.5138 16.2754Z" fill="#F28B74"/>
<path d="M30.0123 26.509C30.5498 26.509 30.9856 26.1621 30.9856 25.734C30.9856 25.306 30.5498 24.959 30.0123 24.959C29.4748 24.959 29.0391 25.306 29.0391 25.734C29.0391 26.1621 29.4748 26.509 30.0123 26.509Z" fill="white"/>
<path d="M24.735 26.509C25.2725 26.509 25.7083 26.1621 25.7083 25.734C25.7083 25.306 25.2725 24.959 24.735 24.959C24.1975 24.959 23.7617 25.306 23.7617 25.734C23.7617 26.1621 24.1975 26.509 24.735 26.509Z" fill="white"/>
<path d="M25.3008 25.3105C25.1066 25.3105 24.9492 25.1531 24.9492 24.9589V24.6152C24.9492 24.4211 25.1066 24.2637 25.3008 24.2637C25.4949 24.2637 25.6523 24.4211 25.6523 24.6152V24.9589C25.6523 25.1531 25.4949 25.3105 25.3008 25.3105Z" fill="#495059"/>
<path d="M27.3701 25.5749C27.0593 25.5749 26.7637 25.4403 26.5592 25.2056C26.4316 25.0592 26.4469 24.8372 26.5933 24.7096C26.7396 24.582 26.9616 24.5972 27.0893 24.7437C27.1602 24.8251 27.2626 24.8718 27.3701 24.8718C27.4776 24.8718 27.58 24.8251 27.6509 24.7437C27.7785 24.5973 28.0006 24.582 28.147 24.7096C28.2934 24.8372 28.3086 25.0592 28.181 25.2056C27.9765 25.4403 27.6809 25.5749 27.3701 25.5749Z" fill="#495059"/>
<path d="M30.0553 25.2972C29.8611 25.2972 29.7037 25.1397 29.7037 24.9456C29.7037 24.8711 29.6431 24.8105 29.5686 24.8105C29.4942 24.8105 29.4336 24.8712 29.4336 24.9456C29.4336 25.1397 29.2762 25.2972 29.082 25.2972C28.8879 25.2972 28.7305 25.1397 28.7305 24.9456C28.7305 24.4834 29.1065 24.1074 29.5686 24.1074C30.0308 24.1074 30.4068 24.4835 30.4068 24.9456C30.4068 25.1397 30.2494 25.2972 30.0553 25.2972Z" fill="#495059"/>
<path opacity="0.1" d="M31.034 32.9575C31.5372 32.9575 32.0404 32.7655 32.4244 32.3816C32.8084 31.9976 33.0003 31.4944 33.0003 30.9911C33.0003 30.4495 32.9747 29.8756 32.9228 29.2799C27.4859 31.3273 23.3713 26.1774 22.3594 22.8711C22.4486 25.284 22.6808 27.876 23.2715 30.025C23.3955 30.534 23.6563 31.0166 24.0539 31.4141C24.1751 31.5354 24.3047 31.6432 24.4401 31.739C26.5922 33.3523 30.0842 32.9575 31.034 32.9575Z" fill="black"/>
<g opacity="0.1">
<path opacity="0.1" d="M22.3063 13.1465H19.6953V13.8496H22.3063V13.1465Z" fill="black"/>
<path opacity="0.1" d="M22.3063 14.8594H19.6953V15.5625H22.3063V14.8594Z" fill="black"/>
<path opacity="0.1" d="M22.3063 16.5723H19.6953V17.2754H22.3063V16.5723Z" fill="black"/>
<path opacity="0.1" d="M22.3063 18.2871H19.6953V18.9902H22.3063V18.2871Z" fill="black"/>
</g>
<path d="M22.7722 11.0602L22.568 11.3768C22.4041 11.6309 22.1225 11.7844 21.8202 11.7844H20.179C19.8767 11.7844 19.5951 11.6309 19.4313 11.3768L19.227 11.0602C19.1043 10.8699 19.0391 10.6484 19.0391 10.422V9.63947C19.0391 9.28631 19.3254 9 19.6785 9H22.3207C22.6738 9 22.9602 9.28631 22.9602 9.63947V10.422C22.9602 10.6484 22.8949 10.87 22.7722 11.0602Z" fill="#F28B74"/>
<path opacity="0.1" d="M19.0391 9.63947V10.422C19.0391 10.6484 19.1043 10.87 19.227 11.0602L19.4313 11.3768C19.5951 11.6309 19.8767 11.7844 20.179 11.7844H21.1505C20.1872 11.3483 20.0797 9.74981 20.0678 9H19.6785C19.3254 9 19.0391 9.28631 19.0391 9.63947Z" fill="black"/>
</g>
<defs>
<clipPath id="clip0_184_21359">
<rect width="24" height="24" fill="white" transform="translate(9 9)"/>
</clipPath>
</defs>
</svg>
