<svg width="42" height="42" viewBox="0 0 42 42" fill="none" xmlns="http://www.w3.org/2000/svg">
<circle cx="21" cy="21" r="20.5" fill="#EEF3FA" stroke="#C2D3EC"/>
<g clip-path="url(#clip0_184_21291)">
<path d="M14.3518 24.9208L12.3206 19.0716C12.1843 18.6791 11.8144 18.416 11.3989 18.416H10.9898C9.89566 18.416 8.97944 19.3114 9.00035 20.4053C9.02065 21.4654 9.88629 22.3184 10.9512 22.3184L12.467 26.6726C12.5762 26.9863 12.8719 27.1965 13.2041 27.1965H31.2439C31.675 27.1965 32.0244 26.847 32.0244 26.416V25.2453H14.808C14.6023 25.2453 14.4192 25.115 14.3518 24.9208Z" fill="#B7E546"/>
<path d="M30.4641 25.2461V26.4168C30.4641 26.8479 30.1146 27.1973 29.6836 27.1973H31.2446C31.6756 27.1973 32.025 26.8479 32.025 26.4168V25.2461H30.4641Z" fill="#ABD641"/>
<path d="M32.5105 25.2461H14.8062C14.6006 25.2461 14.4175 25.1159 14.35 24.9217L13.7852 23.2949H32.5105C32.7799 23.2949 32.9983 23.5133 32.9983 23.7827V24.7583C32.9983 25.0277 32.7799 25.2461 32.5105 25.2461Z" fill="#9EC63D"/>
<path d="M32.5141 23.2949H30.9531C31.2225 23.2949 31.4409 23.5133 31.4409 23.7827V24.7583C31.4409 25.0277 31.2225 25.2461 30.9531 25.2461H32.5141C32.7835 25.2461 33.0019 25.0277 33.0019 24.7583V23.7827C33.0019 23.5133 32.7835 23.2949 32.5141 23.2949Z" fill="#92B738"/>
<path d="M12.707 20.1895H19.761C20.5164 20.1895 21.2039 20.6255 21.526 21.3088L22.4618 23.2944H13.7853L12.707 20.1895Z" fill="#87A733"/>
<path d="M14.1501 30.3192H13.4354C13.3287 30.3192 13.2422 30.2328 13.2422 30.1261V27.1973H14.8032L14.3409 30.1559C14.3262 30.25 14.2452 30.3192 14.1501 30.3192Z" fill="#995E34"/>
<path d="M30.2859 30.3192H31.0006C31.1073 30.3192 31.1938 30.2328 31.1938 30.1261V27.1973H29.6328L30.0951 30.1559C30.1098 30.25 30.1908 30.3192 30.2859 30.3192Z" fill="#995E34"/>
<path d="M32.0246 11.6836H26.1709C25.6321 11.6836 25.1953 12.1204 25.1953 12.6592V16.9519C25.1953 17.4907 25.6321 17.9275 26.1709 17.9275H29.7481C29.8009 17.9275 29.8522 17.9446 29.8945 17.9763L31.3904 19.0982C31.5512 19.2189 31.7806 19.1041 31.7806 18.9031V18.1714C31.7806 18.0367 31.8899 17.9275 32.0245 17.9275C32.5634 17.9275 33.0001 17.4907 33.0001 16.9519V12.6592C33.0002 12.1204 32.5634 11.6836 32.0246 11.6836Z" fill="#E6F7FE"/>
<path d="M32.0258 11.6836H31.576C31.4907 12.9259 30.8433 14.3145 29.7012 15.4567C28.352 16.8059 26.659 17.4648 25.2695 17.3217C25.4153 17.6771 25.7643 17.9275 26.1721 17.9275H29.7493C29.8021 17.9275 29.8534 17.9446 29.8957 17.9763L31.3916 19.0983C31.5524 19.2189 31.7818 19.1041 31.7818 18.9031V18.1714C31.7818 18.0367 31.891 17.9275 32.0257 17.9275C32.5645 17.9275 33.0013 17.4908 33.0013 16.9519V12.6592C33.0014 12.1204 32.5646 11.6836 32.0258 11.6836Z" fill="#D3EFFD"/>
<path d="M30.4652 16.7188H26.7578C26.5636 16.7188 26.4062 16.5614 26.4062 16.3672C26.4062 16.173 26.5636 16.0156 26.7578 16.0156H30.4652C30.6594 16.0156 30.8167 16.173 30.8167 16.3672C30.8167 16.5614 30.6593 16.7188 30.4652 16.7188Z" fill="#E175A5"/>
<path d="M31.4378 13.5957H27.7305C27.5363 13.5957 27.3789 13.4383 27.3789 13.2441C27.3789 13.0499 27.5363 12.8926 27.7305 12.8926H31.4378C31.632 12.8926 31.7894 13.0499 31.7894 13.2441C31.7894 13.4383 31.632 13.5957 31.4378 13.5957Z" fill="#E175A5"/>
<path d="M31.4407 15.1563H26.7578C26.5636 15.1563 26.4062 14.9989 26.4062 14.8047C26.4062 14.6105 26.5636 14.4531 26.7578 14.4531H31.4407C31.6349 14.4531 31.7923 14.6105 31.7923 14.8047C31.7923 14.9989 31.6349 15.1563 31.4407 15.1563Z" fill="#E175A5"/>
</g>
<defs>
<clipPath id="clip0_184_21291">
<rect width="24" height="24" fill="white" transform="translate(9 9)"/>
</clipPath>
</defs>
</svg>
