<svg width="42" height="42" viewBox="0 0 42 42" fill="none" xmlns="http://www.w3.org/2000/svg">
<circle cx="21" cy="21" r="20.5" fill="#EEF3FA" stroke="#C2D3EC"/>
<g clip-path="url(#clip0_184_21631)">
<path d="M21.001 32.7156C23.7219 32.7156 25.9277 30.6945 25.9277 25.0127C25.9277 22.2917 23.7219 20.0859 21.001 20.0859C18.28 20.0859 16.0742 22.2917 16.0742 25.0127C16.0742 30.6945 18.28 32.7156 21.001 32.7156Z" fill="#F7EF87"/>
<path d="M16.539 23.8566C16.2108 23.7655 15.879 23.9858 15.8343 24.3235C15.8044 24.5484 15.7891 24.7779 15.7891 25.0108C15.7891 27.7368 16.2932 29.8063 17.2873 31.1617C18.169 32.3637 19.4532 32.999 21.0011 32.999C22.549 32.999 23.8332 32.3637 24.7148 31.1617C25.1529 30.5645 25.4956 29.8285 25.7422 28.959C23.4219 26.1434 18.9515 24.5263 16.539 23.8566Z" fill="#EFD176"/>
<path d="M27.8561 19.4817C29.0084 19.4817 29.9426 18.5475 29.9426 17.3951C29.9426 16.2428 29.0084 15.3086 27.8561 15.3086C26.7037 15.3086 25.7695 16.2428 25.7695 17.3951C25.7695 18.5475 26.7037 19.4817 27.8561 19.4817Z" fill="#FFBF9E"/>
<path d="M14.1451 19.4817C15.2975 19.4817 16.2317 18.5475 16.2317 17.3951C16.2317 16.2428 15.2975 15.3086 14.1451 15.3086C12.9928 15.3086 12.0586 16.2428 12.0586 17.3951C12.0586 18.5475 12.9928 19.4817 14.1451 19.4817Z" fill="#FFD4BE"/>
<path d="M27.7821 17.2071C27.7821 13.6237 24.7449 10.7188 20.9985 10.7188C17.252 10.7188 14.2148 13.6237 14.2148 17.2071C14.2148 20.7905 17.252 23.1977 20.9985 23.1977C24.7449 23.1977 27.7821 20.7905 27.7821 17.2071Z" fill="#FFD4BE"/>
<path d="M23.4446 22.829C16.047 21.4761 16.3491 14.1152 18.2633 11.2676C15.8791 12.2736 14.2148 14.5539 14.2148 17.2064C14.2148 20.7899 17.252 23.197 20.9985 23.197C21.861 23.197 22.6857 23.0691 23.4446 22.829Z" fill="#FFBF9E"/>
<path d="M17.4021 19.5934C18.1355 19.5934 18.73 19.12 18.73 18.536C18.73 17.952 18.1355 17.4785 17.4021 17.4785C16.6687 17.4785 16.0742 17.952 16.0742 18.536C16.0742 19.12 16.6687 19.5934 17.4021 19.5934Z" fill="#EDA1AB"/>
<path d="M24.5974 19.5934C25.3308 19.5934 25.9253 19.12 25.9253 18.536C25.9253 17.952 25.3308 17.4785 24.5974 17.4785C23.864 17.4785 23.2695 17.952 23.2695 18.536C23.2695 19.12 23.864 19.5934 24.5974 19.5934Z" fill="#EDA1AB"/>
<path d="M18.1735 17.8179C17.8092 17.8179 17.4629 17.6603 17.2233 17.3853C17.0957 17.2389 17.1109 17.0169 17.2573 16.8893C17.4036 16.7617 17.6257 16.777 17.7533 16.9233C17.8594 17.0451 18.0125 17.1149 18.1735 17.1149C18.3344 17.1149 18.4875 17.0451 18.5936 16.9233C18.7211 16.777 18.9432 16.7617 19.0895 16.8893C19.2359 17.0168 19.2512 17.2389 19.1236 17.3853C18.884 17.6603 18.5377 17.8179 18.1735 17.8179Z" fill="#4E5660"/>
<path d="M23.8258 17.8179C23.4616 17.8179 23.1152 17.6602 22.8756 17.3853C22.748 17.2389 22.7633 17.0168 22.9097 16.8892C23.056 16.7617 23.2781 16.777 23.4056 16.9233C23.5117 17.045 23.6648 17.1148 23.8257 17.1148C23.9867 17.1148 24.1397 17.045 24.2458 16.9233C24.3734 16.777 24.5955 16.7617 24.7418 16.8892C24.8882 17.0168 24.9034 17.2389 24.7759 17.3853C24.5364 17.6602 24.19 17.8179 23.8258 17.8179Z" fill="#4E5660"/>
<path d="M21.5282 18.0904C21.5282 17.7784 21.291 17.5254 20.9985 17.5254C20.7059 17.5254 20.4688 17.7783 20.4688 18.0904C20.4688 18.4024 20.7059 18.6554 20.9985 18.6554C21.291 18.6554 21.5282 18.4024 21.5282 18.0904Z" fill="#4E5660"/>
<path d="M24.7156 31.1628C25.602 29.9543 26.0986 28.1776 26.1958 25.8743C26.2111 25.5104 25.8758 25.2307 25.521 25.3134C21.4189 26.2702 18.215 28.3704 16.5352 29.7733C16.7431 30.2978 16.994 30.7618 17.2882 31.1628C18.1698 32.3648 19.454 33.0001 21.0019 33.0001C22.5498 33.0001 23.834 32.3648 24.7156 31.1628Z" fill="#EAB65F"/>
<path d="M17.9792 26.7155C17.8893 26.7155 17.7993 26.6812 17.7306 26.6126L17.4819 26.3638C17.3446 26.2265 17.3446 26.0039 17.4819 25.8666C17.6192 25.7294 17.8418 25.7294 17.979 25.8666L18.2278 26.1154C18.3651 26.2527 18.3651 26.4753 18.2278 26.6126C18.1592 26.6812 18.0692 26.7155 17.9792 26.7155Z" fill="#EB9C32"/>
<path d="M19.6016 30.471C19.5116 30.471 19.4216 30.4366 19.353 30.368C19.2157 30.2307 19.2157 30.0081 19.353 29.8708L19.6443 29.5795C19.7816 29.4422 20.0042 29.4422 20.1415 29.5795C20.2788 29.7168 20.2788 29.9394 20.1415 30.0767L19.8501 30.368C19.7815 30.4366 19.6916 30.471 19.6016 30.471Z" fill="#EB9C32"/>
<path d="M23.0084 30.4674C22.9184 30.4674 22.8284 30.433 22.7598 30.3644L22.4741 30.0787C22.3368 29.9413 22.3368 29.7188 22.4741 29.5815C22.6114 29.4442 22.834 29.4442 22.9712 29.5815L23.257 29.8672C23.3943 30.0046 23.3943 30.2271 23.257 30.3644C23.1884 30.433 23.0984 30.4674 23.0084 30.4674Z" fill="#EB9C32"/>
<path d="M23.6367 28.1837C23.5468 28.1837 23.4568 28.1494 23.3881 28.0808C23.2508 27.9435 23.2508 27.7209 23.3881 27.5836L23.6285 27.3432C23.7658 27.2059 23.9883 27.2059 24.1257 27.3432C24.263 27.4805 24.263 27.7031 24.1257 27.8404L23.8853 28.0808C23.8167 28.1494 23.7267 28.1837 23.6367 28.1837Z" fill="#EB9C32"/>
<path d="M23.1875 24.8245C23.0975 24.8245 23.0075 24.7902 22.9389 24.7215C22.8016 24.5841 22.8016 24.3616 22.9389 24.2243L23.027 24.1362C23.1643 23.9989 23.3869 23.9989 23.5242 24.1362C23.6615 24.2735 23.6615 24.4961 23.5242 24.6334L23.4361 24.7215C23.3674 24.7901 23.2774 24.8245 23.1875 24.8245Z" fill="#EFD176"/>
<path d="M21.7613 12.4374C20.7298 12.4374 19.8906 11.5983 19.8906 10.5668C19.8906 9.70289 20.5935 9 21.4574 9C21.6516 9 21.809 9.15736 21.809 9.35156C21.809 9.54577 21.6516 9.70312 21.4574 9.70312C20.9812 9.70312 20.5938 10.0906 20.5938 10.5668C20.5938 11.2106 21.1175 11.7343 21.7613 11.7343C21.9554 11.7343 22.1128 11.8917 22.1128 12.0859C22.1128 12.2801 21.9554 12.4374 21.7613 12.4374Z" fill="#4E5660"/>
</g>
<defs>
<clipPath id="clip0_184_21631">
<rect width="24" height="24" fill="white" transform="translate(9 9)"/>
</clipPath>
</defs>
</svg>
