<svg width="19" height="19" viewBox="0 0 19 19" fill="none" xmlns="http://www.w3.org/2000/svg">
<circle cx="9.62" cy="9.50086" r="8.62" fill="#EEF3FA" stroke="#C2D3EC"/>
<g clip-path="url(#clip0_248_15916)">
<path d="M13.2099 10.8023C13.1196 10.2772 13.0344 9.78139 13.0634 9.41019C13.1588 8.19324 12.6268 7.5331 12.1637 7.19358C12.1308 7.16953 12.0897 7.15955 12.0496 7.16596C11.8146 7.20324 11.2211 7.31744 10.7865 7.572C10.7196 7.61116 10.6928 7.69423 10.724 7.76511C10.7578 7.84183 10.788 7.9208 10.8138 7.99977C10.8681 8.16623 10.9081 8.34502 10.9326 8.53109C10.9502 8.66516 10.9073 8.7992 10.8148 8.89882C10.7212 8.99969 10.5888 9.05299 10.4509 9.04542C10.2312 9.03312 10.0505 8.86425 10.0211 8.64386C10.0008 8.49115 9.97184 8.3599 9.93509 8.2537C9.88259 8.10197 9.8133 7.97055 9.72921 7.863C9.72847 7.86209 9.72775 7.86114 9.72699 7.86023C9.72482 7.85757 9.72272 7.85482 9.72063 7.85212L9.71903 7.85002C9.71826 7.84905 9.7175 7.84808 9.7167 7.84711C9.52262 7.60839 9.29303 7.53593 9.13724 7.50218C9.00945 7.4745 8.83509 7.45178 8.61898 7.43462C8.55087 7.42929 8.48739 7.46985 8.46378 7.53403C8.31759 7.9317 8.26803 8.28143 8.26742 8.28574C8.23735 8.51146 8.04309 8.68168 7.81554 8.68168C7.79519 8.68168 7.77454 8.68033 7.75421 8.67761C7.50444 8.64434 7.32838 8.41374 7.36169 8.16366C7.36304 8.15364 7.39559 7.9145 7.48737 7.58734C7.48777 7.58593 7.48815 7.58447 7.48849 7.58314C7.49153 7.57097 7.49284 7.55877 7.4929 7.54675C7.49962 7.53582 7.50546 7.5242 7.50932 7.51141V7.51139C7.50939 7.5112 7.50943 7.51106 7.50949 7.51087L7.51177 7.50324C7.51609 7.48874 7.51814 7.47407 7.51816 7.45968C7.51818 7.39396 7.47536 7.33327 7.40915 7.31353C7.33595 7.29172 7.25951 7.32754 7.22792 7.39453C7.22139 7.39455 7.21475 7.39457 7.20829 7.39461C7.16945 7.3948 7.13217 7.40981 7.104 7.43654C6.54474 7.9678 6.21038 8.85204 6.23141 9.74409C6.23164 9.75322 6.23202 9.76237 6.23244 9.77156C6.23286 9.78095 6.23335 9.79033 6.23333 9.79975C6.23253 10.3985 6.43018 11.0725 6.80493 11.749C7.16382 12.3968 7.65922 13.0045 8.23756 13.5063C8.71883 13.9239 9.24555 14.2524 9.76076 14.4562C10.192 14.6268 10.6124 14.7125 11.0153 14.7125C11.1471 14.7125 11.277 14.7033 11.4048 14.6849C12.1564 14.5769 12.6812 14.3052 13.009 13.8545C13.5961 13.0473 13.3909 11.8546 13.2099 10.8023Z" fill="#EF3A47"/>
<path d="M6.57826 8.16317C6.54496 8.41326 6.72104 8.64386 6.97078 8.67712C6.99111 8.67985 7.01176 8.6812 7.03211 8.6812C7.19614 8.6812 7.34249 8.5925 7.42288 8.45856C7.37148 8.37279 7.34749 8.26979 7.36172 8.16315C7.36305 8.15313 7.39561 7.914 7.48739 7.58684C7.48779 7.58542 7.48818 7.58397 7.48851 7.58263C7.49156 7.57046 7.49287 7.55827 7.49293 7.54624C7.49965 7.53532 7.50548 7.52369 7.50935 7.51091V7.51089C7.50941 7.5107 7.50946 7.51055 7.50952 7.51036L7.5118 7.50273C7.51611 7.48823 7.51816 7.47357 7.51818 7.45918C7.51821 7.39345 7.47539 7.33276 7.40918 7.31302C7.33598 7.29121 7.25954 7.32703 7.22795 7.39402C7.22142 7.39405 7.21478 7.39407 7.20831 7.39411C7.16947 7.3943 7.13219 7.4093 7.10402 7.43604C6.89528 7.63432 6.71793 7.88181 6.57862 8.16051C6.57845 8.16173 6.57831 8.16275 6.57826 8.16317Z" fill="#CE3043"/>
<path d="M8.93302 7.84655C8.9338 7.8475 8.93458 7.84847 8.93534 7.84947L8.93695 7.85156C8.93904 7.85426 8.94113 7.85701 8.94331 7.85967C8.94407 7.86058 8.94479 7.86151 8.94553 7.86244C9.02964 7.96996 9.09889 8.10141 9.1514 8.25314C9.18815 8.35933 9.21711 8.49059 9.23746 8.64329C9.26683 8.86369 9.44756 9.03256 9.66717 9.04486C9.80515 9.05242 9.93756 8.99913 10.0312 8.89826C10.0521 8.87575 10.0703 8.85139 10.086 8.82575C10.0526 8.77151 10.0298 8.70982 10.0209 8.64329C10.0006 8.49059 9.97161 8.35933 9.93486 8.25314C9.88236 8.10141 9.81307 7.96998 9.72898 7.86244C9.72824 7.86153 9.72752 7.86058 9.72676 7.85967C9.72459 7.85701 9.7225 7.85426 9.7204 7.85156L9.7188 7.84947C9.71804 7.84849 9.71728 7.84752 9.71647 7.84655C9.52239 7.60783 9.2928 7.53537 9.13701 7.50162C9.00922 7.47394 8.83486 7.45122 8.61875 7.43406C8.55168 7.42882 8.48927 7.46821 8.46484 7.53068C8.60781 7.57501 8.78118 7.65982 8.93302 7.84655Z" fill="#CE3043"/>
<path d="M13.2089 10.8022C13.1186 10.2772 13.0333 9.78139 13.0624 9.41019C13.1578 8.19324 12.6257 7.5331 12.1626 7.19358C12.1298 7.16953 12.0887 7.15955 12.0486 7.16596C11.9319 7.18447 11.7268 7.22196 11.4968 7.28616C11.9271 7.64797 12.3663 8.29533 12.2789 9.41019C12.2498 9.78139 12.3351 10.2773 12.4254 10.8022C12.6064 11.8546 12.8116 13.0473 12.2245 13.8545C11.8967 14.3052 11.372 14.5769 10.6204 14.6849C10.6193 14.6851 10.6183 14.6852 10.6172 14.6853C10.7512 14.7033 10.8837 14.7125 11.0143 14.7125C11.1461 14.7125 11.276 14.7033 11.4039 14.6849C12.1555 14.5769 12.6802 14.3052 13.008 13.8545C13.595 13.0473 13.3899 11.8546 13.2089 10.8022Z" fill="#CE3043"/>
<path d="M9.67275 12.4682C9.23162 12.1674 8.91152 11.8273 8.67974 11.501H9.06841C9.15263 11.501 9.22091 11.4328 9.22091 11.3485C9.22091 11.2643 9.15263 11.196 9.06841 11.196H8.48466C8.38496 11.0222 8.30928 10.8578 8.25239 10.7122C8.04369 10.1784 8.03162 9.7723 8.03153 9.76826C8.02967 9.68417 7.96015 9.61756 7.87596 9.61917C7.79176 9.6209 7.72488 9.69053 7.72661 9.77477C7.72695 9.79153 7.73667 10.16 7.91211 10.67C7.80195 10.9868 7.73088 11.5546 7.72773 11.5801C7.7174 11.6637 7.7768 11.7398 7.86036 11.7502C7.86672 11.751 7.87302 11.7514 7.87925 11.7514C7.95514 11.7514 8.02088 11.6948 8.03041 11.6175C8.04219 11.5223 8.07021 11.3289 8.10778 11.1379C8.15203 11.227 8.2022 11.3195 8.25892 11.4142C8.26323 11.4232 8.26837 11.4317 8.27429 11.4396C8.4074 11.6582 8.57558 11.8876 8.78809 12.1134C8.77492 12.2612 8.75301 12.5921 8.79785 12.791C8.81383 12.8619 8.87674 12.9101 8.9465 12.9101C8.95759 12.9101 8.96888 12.9088 8.98016 12.9063C9.06233 12.8878 9.11391 12.8061 9.0954 12.724C9.07697 12.6423 9.07401 12.5152 9.07735 12.3922C9.20569 12.5048 9.34629 12.6148 9.50094 12.7203C9.5272 12.7382 9.55713 12.7468 9.58671 12.7468C9.63542 12.7468 9.68331 12.7235 9.71283 12.6802C9.76028 12.6105 9.74236 12.5157 9.67275 12.4682Z" fill="#F2CA5A"/>
<path d="M12.6176 9.91076C12.5354 9.79563 12.3049 9.63204 12.1921 9.55569C12.1385 9.2883 12.0489 9.02716 11.9246 8.77629C11.9216 8.76894 11.9181 8.76186 11.9141 8.75512C11.8388 8.60601 11.7513 8.46061 11.6517 8.31978C11.3157 7.84502 10.9632 7.5899 10.9483 7.57929C10.8799 7.53029 10.7846 7.54601 10.7356 7.61452C10.6865 7.68301 10.7023 7.77828 10.7708 7.82729C10.7789 7.8331 11.2837 8.20226 11.6293 8.87025C11.6057 9.06129 11.3402 9.36638 11.1469 9.53223C11.083 9.58701 11.0756 9.68323 11.1303 9.74717C11.1605 9.7824 11.2032 9.80053 11.2462 9.80053C11.2813 9.80053 11.3166 9.78849 11.3453 9.76389C11.3513 9.75878 11.4932 9.63682 11.6351 9.469C11.6981 9.39455 11.7511 9.3227 11.7944 9.25356C11.9081 9.58037 11.9724 9.95869 11.9375 10.3837C11.9306 10.4676 11.9931 10.5413 12.077 10.5481C12.0813 10.5485 12.0855 10.5487 12.0897 10.5487C12.1682 10.5487 12.235 10.4883 12.2415 10.4086C12.2535 10.2628 12.2549 10.1175 12.2463 9.97334C12.3049 10.0204 12.3509 10.0621 12.3695 10.088C12.3993 10.1297 12.4461 10.1519 12.4937 10.1519C12.5244 10.1519 12.5553 10.1427 12.5822 10.1235C12.6507 10.0745 12.6666 9.9793 12.6176 9.91076Z" fill="#F2CA5A"/>
<path d="M8.01624 6.26217C7.99067 6.21245 7.93995 6.1807 7.88403 6.17948C7.25726 6.16543 6.69236 6.18159 6.58545 6.18499C6.16556 6.19831 5.83475 6.55076 5.84804 6.97067C5.85449 7.17413 5.93967 7.36287 6.08792 7.50214C6.23019 7.63578 6.41425 7.70854 6.60861 7.70854C6.61696 7.70854 6.62533 7.70839 6.6337 7.70814C6.82856 7.70199 7.09217 7.69831 7.33887 7.69831C7.40724 7.69831 7.46723 7.65281 7.48573 7.58698C7.5557 7.33745 7.6409 7.10393 7.73904 6.89292C7.81907 6.72079 7.90912 6.56093 8.00665 6.41781C8.03813 6.37162 8.04183 6.3119 8.01624 6.26217Z" fill="#F77474"/>
<path d="M8.00592 6.41782C8.03739 6.37162 8.04111 6.31188 8.01552 6.26217C7.98995 6.21245 7.93923 6.18071 7.88331 6.17948C7.64772 6.1742 7.42091 6.17318 7.22384 6.17416C7.00072 6.48132 6.73589 7.17323 6.69531 7.70634C6.88202 7.70129 7.11681 7.69833 7.33815 7.69833C7.40651 7.69833 7.46651 7.65284 7.485 7.58701C7.55497 7.33747 7.64018 7.10396 7.73832 6.89294C7.81833 6.7208 7.90837 6.56095 8.00592 6.41782Z" fill="#E55555"/>
<path d="M11.5847 6.09374C11.459 5.94101 11.3183 5.80508 11.1655 5.68858L11.3469 5.08642C11.3883 4.94897 11.3737 4.80362 11.3057 4.67717C11.2378 4.55069 11.1247 4.45825 10.9873 4.41687C10.8498 4.37543 10.7044 4.39008 10.578 4.458C10.4515 4.52592 10.3591 4.63902 10.3177 4.77649L10.1776 5.24181C10.1726 5.2408 10.1676 5.23978 10.1626 5.23879V4.82649C10.1626 4.53014 9.92154 4.28906 9.62519 4.28906C9.32887 4.28906 9.08777 4.53014 9.08777 4.82649V5.25538C9.08439 5.25624 9.08103 5.25715 9.07767 5.25804L8.93267 4.77651C8.84721 4.49278 8.54683 4.33148 8.26311 4.41687C8.12566 4.45827 8.01253 4.55071 7.94459 4.67717C7.87667 4.80364 7.86205 4.949 7.90345 5.08642L8.12059 5.80747C7.86296 6.05694 7.6417 6.3785 7.46211 6.76474C7.15252 7.43057 7.06127 8.09477 7.05752 8.12277C7.00199 8.53964 7.29563 8.92394 7.71207 8.97941C7.74569 8.98391 7.77988 8.98617 7.8137 8.98617C8.19349 8.98617 8.51773 8.70215 8.56778 8.32654C8.56822 8.32334 8.61448 8.00304 8.74768 7.64025C8.74789 7.63972 8.74808 7.63917 8.74829 7.63862C8.75516 7.61994 8.76232 7.60113 8.76966 7.58228L8.7739 7.57136C8.78147 7.55215 8.7892 7.53283 8.79683 7.51447C8.79707 7.51394 8.79734 7.51328 8.79762 7.51261C8.80527 7.49426 8.81321 7.47588 8.82135 7.45745L8.82752 7.44355C8.83591 7.42478 8.84445 7.40601 8.85334 7.38731C9.17488 6.71058 9.5138 6.71058 9.62517 6.71058C9.81896 6.71058 9.98109 6.74646 10.1209 6.82028C10.1686 6.84549 10.2261 6.84357 10.272 6.81527C10.6052 6.61009 11.0188 6.44997 11.5011 6.3393C11.5526 6.32748 11.5943 6.28985 11.6113 6.23983C11.6284 6.18983 11.6183 6.13456 11.5847 6.09374Z" fill="#9B3E2C"/>
<path d="M10.6732 6.4408C10.406 6.22233 10.0531 6.06836 9.58872 6.06836C7.98702 6.06836 7.73292 8.82756 7.73292 8.82756C7.73292 8.82756 7.72992 8.89167 7.72656 8.98009C7.75575 8.98345 7.78518 8.98548 7.81439 8.98548C8.19419 8.98548 8.51843 8.70146 8.56847 8.32582C8.56891 8.32263 8.61517 8.00232 8.74837 7.63954C8.74858 7.63901 8.74877 7.63846 8.74899 7.63791C8.75585 7.61923 8.76302 7.60042 8.77035 7.58157L8.7746 7.57064C8.78216 7.55143 8.7899 7.53212 8.79753 7.51375C8.79776 7.51323 8.79803 7.51257 8.79831 7.51189C8.80596 7.49355 8.81391 7.47517 8.82204 7.45674L8.82823 7.44283C8.83662 7.42407 8.84516 7.4053 8.85406 7.3866C9.17559 6.70986 9.51452 6.70986 9.62589 6.70986C9.81968 6.70986 9.98181 6.74575 10.1216 6.81956C10.1693 6.84478 10.2268 6.84285 10.2727 6.81456C10.4298 6.7179 10.6048 6.63136 10.7963 6.55513C10.7601 6.51775 10.7193 6.47956 10.6732 6.4408Z" fill="#7A232E"/>
<path d="M13.0207 6.61831C12.9878 6.19957 12.6204 5.88553 12.2014 5.91837C12.0713 5.9286 10.9388 6.03184 10.079 6.576C9.97575 6.51506 9.86562 6.46178 9.75045 6.41706C9.73498 6.41104 9.7186 6.40762 9.70201 6.40688C9.67342 6.40559 9.64916 6.40502 9.62573 6.40502C9.19301 6.40502 8.85043 6.68334 8.57839 7.25586C8.53726 7.34242 8.49827 7.43566 8.46249 7.53298C8.44603 7.57776 8.45146 7.62767 8.4772 7.66785C8.50294 7.70802 8.54599 7.73385 8.59358 7.73763C8.79614 7.75371 8.95692 7.77444 9.07143 7.79923C9.19136 7.8252 9.3458 7.87573 9.47767 8.03706L9.47797 8.03742C9.48145 8.04196 9.48498 8.04648 9.4886 8.05096C9.55151 8.13169 9.60432 8.23308 9.64559 8.35236C9.67566 8.43928 9.69988 8.55054 9.71755 8.68306C9.76624 9.04839 10.067 9.32839 10.4332 9.34889C10.4476 9.3497 10.462 9.35012 10.4764 9.35012C10.6891 9.3501 10.8915 9.26223 11.0372 9.10517C11.1916 8.93873 11.2632 8.71459 11.2337 8.49019C11.2068 8.28554 11.1627 8.0883 11.1025 7.90403C11.0882 7.85986 11.0725 7.81571 11.0557 7.77188C11.4641 7.57174 12.0333 7.46132 12.3218 7.43754C12.7401 7.40415 13.0536 7.03663 13.0207 6.61831Z" fill="#F77474"/>
<path d="M12.8674 6.62175C12.8674 6.62169 12.8673 6.62165 12.8673 6.62158C11.7639 6.72628 10.9882 7.04016 10.5743 7.2513C10.3739 7.35358 10.2734 7.58338 10.3338 7.80016C10.429 8.14183 10.5881 8.86797 10.6711 9.32615C10.8097 9.28963 10.9366 9.21438 11.0367 9.10645C11.1912 8.94001 11.2628 8.71588 11.2333 8.49147C11.2064 8.28682 11.1622 8.08959 11.1021 7.90531C11.0877 7.86114 11.072 7.817 11.0553 7.77317C11.4636 7.57302 12.0328 7.4626 12.3214 7.43883C12.7397 7.40542 13.0532 7.03792 13.0203 6.6196V6.61958C13.0202 6.61816 13.02 6.61677 13.0199 6.61537C12.9725 6.61467 12.9219 6.61662 12.8674 6.62175Z" fill="#E55555"/>
<path d="M9.13629 7.81663C9.30542 7.39524 9.80085 6.71933 10.079 6.57724C9.97575 6.51629 9.86563 6.46301 9.75045 6.4183C9.73498 6.41227 9.71861 6.40885 9.70202 6.40811C9.67342 6.40682 9.64916 6.40625 9.62573 6.40625C9.19301 6.40625 8.85043 6.68457 8.57839 7.2571C8.53726 7.34366 8.49827 7.43689 8.46249 7.53421C8.44603 7.57899 8.45146 7.62891 8.4772 7.66908C8.50294 7.70925 8.54599 7.73508 8.59358 7.73886C8.79614 7.75494 8.95692 7.77567 9.07144 7.80046C9.09206 7.80496 9.11385 7.81025 9.13629 7.81663Z" fill="#E55555"/>
</g>
<defs>
<clipPath id="clip0_248_15916">
<rect width="10.4229" height="10.4229" fill="white" transform="translate(4.41016 4.28906)"/>
</clipPath>
</defs>
</svg>
