<?xml version="1.0" encoding="utf-8"?>
<!-- Generator: Adobe Illustrator 27.1.0, SVG Export Plug-In . SVG Version: 6.00 Build 0)  -->
<svg version="1.1" id="Layer_1" xmlns="http://www.w3.org/2000/svg" xmlns:xlink="http://www.w3.org/1999/xlink" x="0px" y="0px"
	 viewBox="0 0 19 16" style="enable-background:new 0 0 19 16;" xml:space="preserve">
<style type="text/css">
	.st0{fill:#4B465C;}
</style>
<path class="st0" d="M14.5,0H3.8c-1,0-2,0.4-2.7,1.1C0.4,1.7,0,2.7,0,3.6v5.8c0,1,0.4,1.9,1.1,2.6c0.7,0.7,1.7,1.1,2.7,1.1h4.6v1.5
	h-3c-0.2,0-0.4,0.1-0.5,0.2c-0.1,0.1-0.2,0.3-0.2,0.5c0,0.2,0.1,0.4,0.2,0.5C4.9,15.9,5.1,16,5.3,16H13c0.2,0,0.4-0.1,0.5-0.2
	c0.1-0.1,0.2-0.3,0.2-0.5c0-0.2-0.1-0.4-0.2-0.5c-0.1-0.1-0.3-0.2-0.5-0.2h-3v-1.5h4.6c1,0,2-0.4,2.7-1.1c0.7-0.7,1.1-1.6,1.1-2.6
	V3.6c0-1-0.4-1.9-1.1-2.6C16.5,0.4,15.5,0,14.5,0z M16.8,9.5c0,0.6-0.2,1.1-0.7,1.5c-0.4,0.4-1,0.6-1.6,0.6H3.8
	c-0.6,0-1.2-0.2-1.6-0.6c-0.4-0.4-0.7-1-0.7-1.5V3.6c0-0.6,0.2-1.1,0.7-1.5s1-0.6,1.6-0.6h10.7c0.6,0,1.2,0.2,1.6,0.6
	c0.4,0.4,0.7,1,0.7,1.5V9.5z M15.2,6.5c0,0.2-0.1,0.4-0.2,0.5c-0.1,0.1-0.3,0.2-0.5,0.2h-2.3l-1.3,1.9c-0.1,0.1-0.2,0.2-0.3,0.2
	c-0.1,0.1-0.2,0.1-0.4,0.1c0,0,0,0,0,0c-0.1,0-0.3,0-0.4-0.1S9.7,9.2,9.6,9.1L7.9,5.8L7.1,6.9C7,7,6.9,7.1,6.8,7.2S6.6,7.3,6.5,7.3
	H3.8c-0.2,0-0.4-0.1-0.5-0.2C3.1,6.9,3,6.7,3,6.5C3,6.4,3.1,6.2,3.3,6c0.1-0.1,0.3-0.2,0.5-0.2h2.3L7.4,4c0.1-0.1,0.2-0.2,0.3-0.3
	C7.8,3.7,7.9,3.6,8,3.6c0.1,0,0.3,0,0.4,0.1C8.5,3.8,8.6,3.9,8.7,4l1.7,3.2l0.8-1.1C11.2,6,11.3,6,11.5,5.9c0.1-0.1,0.2-0.1,0.4-0.1
	h2.7c0.2,0,0.4,0.1,0.5,0.2C15.2,6.2,15.2,6.4,15.2,6.5z"/>
</svg>
