<svg width="45" height="45" viewBox="0 0 45 45" fill="none" xmlns="http://www.w3.org/2000/svg">
<path d="M36.7893 11.9442C35.5766 5.00968 29.5648 0 22.4984 0C15.432 0 9.4202 5.00968 8.20748 11.9442C7.3901 16.7431 8.97204 21.5947 12.4526 24.9433C14.6049 27.0047 15.9066 29.9275 15.9066 32.959V34.2773L18.5433 37.002H22.4984H26.4535L29.0902 34.2773V32.959C29.0902 29.9309 30.3896 27.0069 32.5443 24.9433C36.0248 21.5947 37.6067 16.7431 36.7893 11.9442Z" fill="#FED843"/>
<path d="M1.38672 5.80078L3.25069 3.93681L7.13181 7.81793L5.26784 9.6819L1.38672 5.80078Z" fill="#FED843"/>
<path d="M0 13.1836H5.36133V15.8203H0V13.1836Z" fill="#FED843"/>
<path d="M1.41797 23.1699L5.29524 19.2927L7.15921 21.1566L3.28194 25.0339L1.41797 23.1699Z" fill="#FED843"/>
<path d="M22.498 34.2773H15.9062V38.4082C15.9062 42.0469 18.8594 45 22.498 45C26.1367 45 29.0898 42.0469 29.0898 38.4082V34.2773H22.498Z" fill="#EDF5FF"/>
<path d="M37.8594 7.82227L41.7404 3.94121L43.6046 5.80537L39.7235 9.68643L37.8594 7.82227Z" fill="#FED843"/>
<path d="M39.6406 13.1836H45.002V15.8203H39.6406V13.1836Z" fill="#FED843"/>
<path d="M37.832 21.1602L39.6962 19.296L43.5745 23.1743L41.7104 25.0385L37.832 21.1602Z" fill="#FED843"/>
</svg>
