<svg width="16" height="18" viewBox="0 0 16 18" fill="none" xmlns="http://www.w3.org/2000/svg">
<path d="M5.75781 0V1.50155H7.25801V2.25231C7.78306 2.17724 8.23311 2.17724 8.7582 2.25231V1.50155H10.2584V0H5.75781Z" fill="#20539E"/>
<path d="M5.75781 0V1.50155H7.25801V2.25231C7.78306 2.17724 8.23311 2.17724 8.7582 2.25231V1.50155H10.2584V0H5.75781Z" fill="white" fill-opacity="0.2"/>
<path d="M13.1075 4.95485L13.6326 4.42933L14.2326 5.02995L15.2828 3.97887L13.0325 1.72656L11.9824 2.77765L12.5825 3.37824L11.9074 4.05393C8.30694 1.87669 3.65637 3.00285 1.55613 6.60653C-0.544116 10.2102 0.580984 14.7148 4.10642 16.8921C7.63186 19.0693 12.2824 17.9432 14.3827 14.3395C16.2579 11.2613 15.7328 7.35732 13.1075 4.95485ZM8.00688 15.6909C5.08153 15.6909 2.75626 13.3635 2.75626 10.4355C2.75626 7.50749 5.08153 5.18008 8.00688 5.18008V10.4355H13.2575C13.2575 13.3634 10.9322 15.6909 8.00688 15.6909Z" fill="#20539E"/>
<path d="M13.1075 4.95485L13.6326 4.42933L14.2326 5.02995L15.2828 3.97887L13.0325 1.72656L11.9824 2.77765L12.5825 3.37824L11.9074 4.05393C8.30694 1.87669 3.65637 3.00285 1.55613 6.60653C-0.544116 10.2102 0.580984 14.7148 4.10642 16.8921C7.63186 19.0693 12.2824 17.9432 14.3827 14.3395C16.2579 11.2613 15.7328 7.35732 13.1075 4.95485ZM8.00688 15.6909C5.08153 15.6909 2.75626 13.3635 2.75626 10.4355C2.75626 7.50749 5.08153 5.18008 8.00688 5.18008V10.4355H13.2575C13.2575 13.3634 10.9322 15.6909 8.00688 15.6909Z" fill="white" fill-opacity="0.2"/>
</svg>
