<svg width="25" height="25" viewBox="0 0 25 25" fill="none" xmlns="http://www.w3.org/2000/svg">
<g clip-path="url(#clip0_214_8678)">
<path d="M9.60547 0.5V2.50206H11.6075V3.50306C12.3082 3.40298 12.9088 3.40298 13.6096 3.50306V2.50206H15.6116V0.5H9.60547Z" fill="#67768B"/>
<path d="M19.415 7.1071L20.1157 6.40641L20.9165 7.20724L22.318 5.80579L19.3149 2.80273L17.9134 4.20418L18.7143 5.00496L17.8134 5.90588C13.0085 3.00291 6.80212 4.50444 3.99928 9.30933C1.19644 14.1142 2.69792 20.1203 7.40273 23.0233C12.1075 25.9263 18.3138 24.4248 21.1167 19.6199C23.6193 15.5157 22.9186 10.3104 19.415 7.1071ZM12.608 21.4217C8.70404 21.4217 5.60089 18.3186 5.60089 14.4146C5.60089 10.5106 8.70404 7.40741 12.608 7.40741V14.4145H19.6152C19.6152 18.3185 16.512 21.4217 12.608 21.4217Z" fill="#67768B"/>
</g>
<defs>
<clipPath id="clip0_214_8678">
<rect width="24" height="24" fill="white" transform="translate(0.597656 0.5)"/>
</clipPath>
</defs>
</svg>
