<svg width="42" height="42" viewBox="0 0 42 42" fill="none" xmlns="http://www.w3.org/2000/svg">
<circle cx="21" cy="21" r="20.5" fill="#EEF3FA" stroke="#C2D3EC"/>
<g clip-path="url(#clip0_184_21658)">
<path d="M28.5547 13.9122C29.0521 14.2849 29.4995 14.7201 29.8859 15.2069C30.9985 14.2369 32.1735 12.7351 32.1735 11.2311C32.1739 10.7545 32.1211 10.2793 32.0161 9.81445C31.9192 9.34702 31.5117 9.00895 31.0345 9C30.7226 9.01641 30.4333 9.16739 30.2415 9.41381C30.0498 9.66023 29.9744 9.97781 30.0351 10.2841C30.0814 10.5976 30.1047 10.9141 30.1046 11.231C30.1046 12.0213 29.7783 12.8122 28.5547 13.9122Z" fill="#802D40"/>
<path d="M12.0306 15.1303C12.4033 14.6315 12.8432 14.1865 13.3376 13.8079C12.2103 12.7631 11.897 11.9955 11.897 11.2311C11.897 10.9141 11.9203 10.5977 11.9666 10.2842C12.0273 9.97786 11.9519 9.66028 11.7601 9.41386C11.5683 9.16744 11.279 9.01641 10.9671 9C10.4899 9.00895 10.0824 9.34702 9.98558 9.81441C9.88058 10.2793 9.82775 10.7544 9.82813 11.231C9.82808 12.6968 10.944 14.159 12.0306 15.1303Z" fill="#802D40"/>
<path d="M23.8415 26.7852C24.6194 27.0192 25.1487 27.7396 25.1393 28.552C25.1393 30.3623 23.4841 32.1726 22.2427 32.1726H19.76C18.5186 32.1726 16.8634 30.3623 16.8634 28.552C16.8541 27.7397 17.3833 27.0192 18.1612 26.7852H23.8415Z" fill="#802D40"/>
<path d="M31.3459 18.9307C31.3459 12.7238 24.3115 11.4824 21.0011 11.4824C16.8632 11.4824 10.6562 12.7238 10.6562 18.9307C10.6562 23.7353 15.1176 26.059 18.4774 26.8642C18.934 26.9672 19.292 27.3214 19.3999 27.7768C19.648 29.093 19.7667 30.4302 19.7542 31.7694C19.7627 32.4518 20.3186 33.0004 21.0011 32.9997C21.6835 33.0004 22.2395 32.4518 22.2479 31.7694C22.2354 30.4302 22.3541 29.0929 22.6023 27.7768C22.7102 27.3214 23.0682 26.9672 23.5248 26.8641C26.8846 26.059 31.3459 23.7353 31.3459 18.9307Z" fill="#D75E72"/>
<path d="M21.0021 25.5524C18.775 25.5524 12.3125 23.9223 12.3125 18.9318C12.3125 13.8911 17.7568 13.1387 21.0021 13.1387C21.8915 13.1387 29.6918 13.3011 29.6918 18.9318C29.6918 23.9224 23.2293 25.5524 21.0021 25.5524Z" fill="#CC4B4C"/>
<path d="M29.6174 19.8299C28.9016 24.1209 23.0878 25.5526 21.0023 25.5526C19.0492 25.5526 13.8437 24.2988 12.5898 20.6285L12.7264 20.5871C14.3815 19.7595 15.2092 19.3457 17.2781 19.3457C18.9332 19.3457 20.5885 20.5871 22.2436 20.5871C23.8988 20.5871 25.1402 19.3457 27.2091 19.3457C27.9134 19.3963 28.6085 19.5354 29.2781 19.7595L29.6174 19.8299Z" fill="#F3D55B"/>
</g>
<defs>
<clipPath id="clip0_184_21658">
<rect width="24" height="24" fill="white" transform="translate(9 9)"/>
</clipPath>
</defs>
</svg>
