<svg width="14" height="14" viewBox="0 0 14 14" fill="none" xmlns="http://www.w3.org/2000/svg">
<path fill-rule="evenodd" clip-rule="evenodd" d="M12.6968 1.4049C12.5326 1.23995 12.3375 1.10902 12.1226 1.0196C11.9077 0.930178 11.6773 0.884027 11.4446 0.883789H2.55457C2.08322 0.883789 1.63117 1.07103 1.29788 1.40433C0.964586 1.73762 0.777344 2.18966 0.777344 2.66101V11.551C0.777344 12.0224 0.964586 12.4744 1.29788 12.8077C1.63117 13.141 2.08322 13.3282 2.55457 13.3282H11.4446C11.9153 13.3262 12.3661 13.1383 12.699 12.8054C13.0318 12.4726 13.2197 12.0217 13.2218 11.551V2.66101C13.2196 2.18939 13.0309 1.73781 12.6968 1.4049ZM7.4429 5.32879H10.1107V6.21934H7.4429V5.32879ZM5.22234 9.77379C5.22234 10.01 5.12852 10.2365 4.96151 10.4035C4.79449 10.5705 4.56798 10.6643 4.33179 10.6643H3.44512C3.20893 10.6643 2.98242 10.5705 2.8154 10.4035C2.64839 10.2365 2.55457 10.01 2.55457 9.77379V8.88323C2.55457 8.64704 2.64839 8.42053 2.8154 8.25352C2.98242 8.0865 3.20893 7.99268 3.44512 7.99268H4.33568C4.57187 7.99268 4.79838 8.0865 4.96539 8.25352C5.13241 8.42053 5.22623 8.64704 5.22623 8.88323L5.22234 9.77379ZM4.05568 5.8849C3.97122 5.96679 3.85832 6.01279 3.74068 6.01323C3.62319 6.01199 3.51058 5.96611 3.42568 5.8849L2.5429 4.97879L3.1729 4.3449L3.74457 4.92435L4.76345 3.90157L5.39346 4.53157L4.05568 5.8849ZM10.1107 10.6605H7.4429V9.77379H10.1107V10.6605ZM11.4446 8.88323H7.4429V7.99657H11.4446V8.88323ZM11.4446 4.43823H7.4429V3.55157H11.4446V4.43823Z" fill="#67768B"/>
</svg>
