<svg width="26" height="26" viewBox="0 0 26 26" fill="none" xmlns="http://www.w3.org/2000/svg">
<path fill-rule="evenodd" clip-rule="evenodd" d="M9.89154 6.01857C9.60198 4.55454 8.31747 3.49954 6.82486 3.49984L4.32451 3.49984C3.97929 3.49984 3.69943 3.77966 3.69943 4.12484L3.69943 6.62482C3.69913 8.11721 4.75428 9.40153 6.21853 9.69105L6.23353 10.1198C6.25853 10.8448 6.33354 11.5548 6.45481 12.2498L1.82416 12.2498C1.6167 12.2498 1.42277 12.3528 1.30654 12.5246C1.1903 12.6964 1.16691 12.9147 1.24408 13.1073L3.74443 19.3572C3.83944 19.5943 4.06911 19.7497 4.32451 19.7497L9.9503 19.7497C9.98155 19.7497 10.0128 19.7472 10.0441 19.7422C13.6219 23.835 19.0951 25.735 24.4398 24.7397C24.6942 24.6922 24.893 24.4929 24.9399 24.2385C25.9327 18.8941 24.034 13.4223 19.9442 9.84105C19.9489 9.81085 19.9514 9.78036 19.9517 9.7498L19.9517 4.12484C19.9516 3.86947 19.7962 3.63984 19.5591 3.54484L13.3083 1.04486C13.1157 0.967691 12.8974 0.991087 12.7255 1.1073C12.5537 1.22352 12.4507 1.41742 12.4506 1.62485L12.4506 6.25607C11.7468 6.13232 11.0342 6.05857 10.3204 6.03357L9.89154 6.01857ZM8.68387 6.38125L6.58107 8.48373C5.64775 8.36138 4.94977 7.56617 4.9496 6.62499L4.9496 4.75001L6.82486 4.75001C7.76617 4.75018 8.5615 5.44806 8.68387 6.38125ZM13.7008 6.52875L13.7008 2.54877L18.7015 4.54876L18.7015 8.85873C17.1893 7.78589 15.4949 6.99643 13.7008 6.52875ZM6.72487 13.5C7.19508 15.2943 7.9872 16.9885 9.0627 18.4999L4.74959 18.4999L2.74931 13.5L6.72487 13.5ZM9.57526 7.2586L10.2766 7.2836C10.9792 7.30735 11.6768 7.3836 12.3682 7.5111C19.9142 8.90859 24.9474 16.0498 23.7847 23.5822C23.2347 23.6672 22.6796 23.7197 22.122 23.7385C14.3072 24.0085 7.75251 17.891 7.48247 10.0761L7.45871 9.37484L9.57526 7.2586ZM16.2011 12.2498C14.1298 12.2498 12.4506 13.9287 12.4506 15.9998C12.4506 18.0708 14.1298 19.7498 16.2011 19.7498C18.2725 19.7498 19.9517 18.0708 19.9517 15.9998C19.9517 13.9287 18.2725 12.2498 16.2011 12.2498ZM16.2011 13.5C17.582 13.5 18.7015 14.6192 18.7015 15.9999C18.7015 17.3806 17.582 18.4999 16.2011 18.4999C14.8202 18.4999 13.7008 17.3806 13.7008 15.9999C13.7008 14.6192 14.8202 13.5 16.2011 13.5Z" fill="#F28B74"/>
<path fill-rule="evenodd" clip-rule="evenodd" d="M9.89154 6.01857C9.60198 4.55454 8.31747 3.49954 6.82486 3.49984L4.32451 3.49984C3.97929 3.49984 3.69943 3.77966 3.69943 4.12484L3.69943 6.62482C3.69913 8.11721 4.75428 9.40153 6.21853 9.69105L6.23353 10.1198C6.25853 10.8448 6.33354 11.5548 6.45481 12.2498L1.82416 12.2498C1.6167 12.2498 1.42277 12.3528 1.30654 12.5246C1.1903 12.6964 1.16691 12.9147 1.24408 13.1073L3.74443 19.3572C3.83944 19.5943 4.06911 19.7497 4.32451 19.7497L9.9503 19.7497C9.98155 19.7497 10.0128 19.7472 10.0441 19.7422C13.6219 23.835 19.0951 25.735 24.4398 24.7397C24.6942 24.6922 24.893 24.4929 24.9399 24.2385C25.9327 18.8941 24.034 13.4223 19.9442 9.84105C19.9489 9.81085 19.9514 9.78036 19.9517 9.7498L19.9517 4.12484C19.9516 3.86947 19.7962 3.63984 19.5591 3.54484L13.3083 1.04486C13.1157 0.967691 12.8974 0.991087 12.7255 1.1073C12.5537 1.22352 12.4507 1.41742 12.4506 1.62485L12.4506 6.25607C11.7468 6.13232 11.0342 6.05857 10.3204 6.03357L9.89154 6.01857ZM8.68387 6.38125L6.58107 8.48373C5.64775 8.36138 4.94977 7.56617 4.9496 6.62499L4.9496 4.75001L6.82486 4.75001C7.76617 4.75018 8.5615 5.44806 8.68387 6.38125ZM13.7008 6.52875L13.7008 2.54877L18.7015 4.54876L18.7015 8.85873C17.1893 7.78589 15.4949 6.99643 13.7008 6.52875ZM6.72487 13.5C7.19508 15.2943 7.9872 16.9885 9.0627 18.4999L4.74959 18.4999L2.74931 13.5L6.72487 13.5ZM9.57526 7.2586L10.2766 7.2836C10.9792 7.30735 11.6768 7.3836 12.3682 7.5111C19.9142 8.90859 24.9474 16.0498 23.7847 23.5822C23.2347 23.6672 22.6796 23.7197 22.122 23.7385C14.3072 24.0085 7.75251 17.891 7.48247 10.0761L7.45871 9.37484L9.57526 7.2586ZM16.2011 12.2498C14.1298 12.2498 12.4506 13.9287 12.4506 15.9998C12.4506 18.0708 14.1298 19.7498 16.2011 19.7498C18.2725 19.7498 19.9517 18.0708 19.9517 15.9998C19.9517 13.9287 18.2725 12.2498 16.2011 12.2498ZM16.2011 13.5C17.582 13.5 18.7015 14.6192 18.7015 15.9999C18.7015 17.3806 17.582 18.4999 16.2011 18.4999C14.8202 18.4999 13.7008 17.3806 13.7008 15.9999C13.7008 14.6192 14.8202 13.5 16.2011 13.5Z" fill="white" fill-opacity="0.2"/>
<path d="M6.82486 3.49984L6.82491 3.74984L6.82486 3.74984L6.82486 3.49984ZM3.69943 4.12484L3.94943 4.12484L3.69943 4.12484ZM3.69943 6.62482L3.94943 6.62482L3.94943 6.62487L3.69943 6.62482ZM6.21853 9.69105L6.26702 9.4458L6.46144 9.48424L6.46838 9.68231L6.21853 9.69105ZM6.23353 10.1198L6.48338 10.1111L6.48338 10.1112L6.23353 10.1198ZM6.45481 12.2498L6.70109 12.2068L6.75221 12.4998L6.45481 12.4998L6.45481 12.2498ZM1.82416 12.2498L1.82411 11.9998L1.82416 11.9998L1.82416 12.2498ZM1.24408 13.1073L1.47614 13.0143L1.4762 13.0144L1.24408 13.1073ZM3.74443 19.3572L3.51238 19.4502L3.51232 19.4501L3.74443 19.3572ZM4.32451 19.7497L4.32451 19.9997L4.32446 19.9997L4.32451 19.7497ZM9.9503 19.7497L9.9503 19.9997L9.9503 19.7497ZM10.0441 19.7422L10.0046 19.4954L10.1412 19.4735L10.2323 19.5777L10.0441 19.7422ZM24.4398 24.7397L24.4857 24.9855L24.4856 24.9855L24.4398 24.7397ZM24.9399 24.2385L24.694 24.1932L24.6941 24.1928L24.9399 24.2385ZM19.9442 9.84105L19.7795 10.0291L19.676 9.93848L19.6972 9.80251L19.9442 9.84105ZM19.9517 9.7498L20.2017 9.7498L20.2017 9.75212L19.9517 9.7498ZM19.9517 4.12484L20.2017 4.12478L20.2017 4.12484L19.9517 4.12484ZM19.5591 3.54484L19.652 3.31272L19.6521 3.31278L19.5591 3.54484ZM13.3083 1.04486L13.2154 1.27698L13.2153 1.27692L13.3083 1.04486ZM12.4506 1.62485L12.2006 1.62485L12.2006 1.62479L12.4506 1.62485ZM12.4506 6.25607L12.7006 6.25607L12.7006 6.55386L12.4074 6.50229L12.4506 6.25607ZM10.3204 6.03357L10.3291 5.78373L10.3291 5.78373L10.3204 6.03357ZM9.89154 6.01857L9.8828 6.26842L9.68474 6.26149L9.64629 6.06708L9.89154 6.01857ZM6.58107 8.48373L6.75784 8.66052L6.67072 8.74762L6.54858 8.73161L6.58107 8.48373ZM4.9496 6.62499L4.6996 6.62504L4.6996 6.62499L4.9496 6.62499ZM4.9496 4.75001L4.6996 4.75001L4.6996 4.50001L4.9496 4.50001L4.9496 4.75001ZM6.82486 4.75001L6.82486 4.50001L6.8249 4.50001L6.82486 4.75001ZM13.7008 2.54877L13.4508 2.54877L13.4508 2.17954L13.7936 2.31665L13.7008 2.54877ZM18.7015 4.54876L18.7943 4.31664L18.9515 4.37949L18.9515 4.54876L18.7015 4.54876ZM18.7015 8.85873L18.9515 8.85873L18.9515 9.34263L18.5568 9.06263L18.7015 8.85873ZM13.7008 6.52875L13.6377 6.77066L13.4508 6.72194L13.4508 6.52875L13.7008 6.52875ZM6.72487 13.5L6.72487 13.25L6.9178 13.25L6.9667 13.4366L6.72487 13.5ZM9.0627 18.4999L9.26639 18.355L9.54742 18.7499L9.0627 18.7499L9.0627 18.4999ZM4.74959 18.4999L4.74959 18.7499L4.58034 18.7499L4.51748 18.5928L4.74959 18.4999ZM2.74931 13.5L2.5172 13.5928L2.38004 13.25L2.74931 13.25L2.74931 13.5ZM10.2766 7.2836L10.2682 7.53346L10.2677 7.53345L10.2766 7.2836ZM12.3682 7.5111L12.4135 7.26525L12.4137 7.26528L12.3682 7.5111ZM23.7847 23.5822L24.0318 23.6204L24.0039 23.8013L23.8229 23.8293L23.7847 23.5822ZM22.122 23.7385L22.1134 23.4886L22.1136 23.4886L22.122 23.7385ZM7.48247 10.0761L7.23262 10.0847L7.23261 10.0845L7.48247 10.0761ZM7.45871 9.37484L7.20886 9.3833L7.20518 9.27481L7.28195 9.19805L7.45871 9.37484ZM16.2011 12.2498L16.2011 11.9998L16.2011 12.2498ZM16.2011 19.7498L16.2011 19.9998L16.2011 19.7498ZM9.64629 6.06708C9.3799 4.72019 8.19815 3.74957 6.82491 3.74984L6.82481 3.24984C8.43678 3.24952 9.82406 4.38889 10.1368 5.97007L9.64629 6.06708ZM6.82486 3.74984L4.32451 3.74984L4.32451 3.24984L6.82486 3.24984L6.82486 3.74984ZM4.32451 3.74984C4.11732 3.74984 3.94943 3.91777 3.94943 4.12484L3.44943 4.12484C3.44943 3.64155 3.84125 3.24984 4.32451 3.24984L4.32451 3.74984ZM3.94943 4.12484L3.94943 6.62482L3.44943 6.62482L3.44943 4.12484L3.94943 4.12484ZM3.94943 6.62487C3.94915 7.99784 4.91988 9.17943 6.26702 9.4458L6.17003 9.9363C4.58868 9.62362 3.44911 8.23658 3.44943 6.62477L3.94943 6.62487ZM6.46838 9.68231L6.48338 10.1111L5.98368 10.1285L5.96868 9.69979L6.46838 9.68231ZM6.48338 10.1112C6.50798 10.8245 6.58179 11.5231 6.70109 12.2068L6.20853 12.2928C6.0853 11.5865 6.00908 10.865 5.98368 10.1284L6.48338 10.1112ZM6.45481 12.4998L1.82416 12.4998L1.82416 11.9998L6.45481 11.9998L6.45481 12.4998ZM1.82422 12.4998C1.69971 12.4998 1.58335 12.5616 1.51361 12.6647L1.09947 12.3845C1.2622 12.144 1.53368 11.9999 1.82411 11.9998L1.82422 12.4998ZM1.51361 12.6647C1.44387 12.7678 1.42983 12.8987 1.47614 13.0143L1.01203 13.2003C0.903976 12.9307 0.936738 12.6251 1.09947 12.3845L1.51361 12.6647ZM1.4762 13.0144L3.97655 19.2644L3.51232 19.4501L1.01197 13.2001L1.4762 13.0144ZM3.97649 19.2642C4.03349 19.4064 4.1713 19.4997 4.32457 19.4997L4.32446 19.9997C3.96693 19.9997 3.64539 19.7821 3.51238 19.4502L3.97649 19.2642ZM4.32451 19.4997L9.9503 19.4997L9.9503 19.9997L4.32451 19.9997L4.32451 19.4997ZM9.9503 19.4997C9.96816 19.4997 9.98621 19.4983 10.0046 19.4954L10.0836 19.9891C10.0394 19.9962 9.99495 19.9997 9.9503 19.9997L9.9503 19.4997ZM10.2323 19.5777C13.752 23.6039 19.1362 25.4731 24.3941 24.4939L24.4856 24.9855C19.054 25.997 13.4919 24.0661 9.85584 19.9068L10.2323 19.5777ZM24.394 24.4939C24.5466 24.4655 24.6659 24.3459 24.694 24.1932L25.1858 24.2837C25.1202 24.64 24.8418 24.919 24.4857 24.9855L24.394 24.4939ZM24.6941 24.1928C25.6708 18.9352 23.803 13.5523 19.7795 10.0291L20.1089 9.65296C24.2651 13.2924 26.1946 18.853 25.1857 24.2841L24.6941 24.1928ZM19.6972 9.80251C19.7 9.7843 19.7015 9.76591 19.7017 9.74748L20.2017 9.75212C20.2013 9.7948 20.1978 9.8374 20.1912 9.87958L19.6972 9.80251ZM19.7017 9.7498L19.7017 4.12484L20.2017 4.12484L20.2017 9.7498L19.7017 9.7498ZM19.7017 4.1249C19.7017 3.9717 19.6084 3.83391 19.4662 3.77691L19.6521 3.31278C19.984 3.44576 20.2016 3.76725 20.2017 4.12478L19.7017 4.1249ZM19.4663 3.77697L13.2154 1.27698L13.4011 0.812735L19.652 3.31272L19.4663 3.77697ZM13.2153 1.27692C13.0997 1.23061 12.9687 1.24465 12.8656 1.31439L12.5855 0.900215C12.826 0.737518 13.1317 0.704771 13.4013 0.812796L13.2153 1.27692ZM12.8656 1.31439C12.7625 1.38413 12.7007 1.50047 12.7006 1.62491L12.2006 1.62479C12.2007 1.33437 12.3449 1.06291 12.5855 0.900215L12.8656 1.31439ZM12.7006 1.62485L12.7006 6.25607L12.2006 6.25607L12.2006 1.62485L12.7006 1.62485ZM12.4074 6.50229C11.7152 6.38059 11.0141 6.30802 10.3116 6.28342L10.3291 5.78373C11.0543 5.80912 11.7784 5.88405 12.4939 6.00985L12.4074 6.50229ZM10.3116 6.28342L9.8828 6.26842L9.90028 5.76873L10.3291 5.78373L10.3116 6.28342ZM8.86063 6.55804L6.75784 8.66052L6.40431 8.30694L8.5071 6.20446L8.86063 6.55804ZM6.54858 8.73161C5.49085 8.59295 4.69979 7.69174 4.6996 6.62504L5.1996 6.62495C5.19974 7.44061 5.80464 8.12981 6.61357 8.23585L6.54858 8.73161ZM4.6996 6.62499L4.6996 4.75001L5.1996 4.75001L5.1996 6.62499L4.6996 6.62499ZM4.9496 4.50001L6.82486 4.50001L6.82486 5.00001L4.9496 5.00001L4.9496 4.50001ZM6.8249 4.50001C7.89168 4.5002 8.79305 5.2911 8.93175 6.34874L8.43599 6.41375C8.32994 5.60501 7.64067 5.00016 6.82481 5.00001L6.8249 4.50001ZM13.4508 6.52875L13.4508 2.54877L13.9508 2.54877L13.9508 6.52875L13.4508 6.52875ZM13.7936 2.31665L18.7943 4.31664L18.6086 4.78089L13.6079 2.7809L13.7936 2.31665ZM18.9515 4.54876L18.9515 8.85873L18.4515 8.85873L18.4515 4.54876L18.9515 4.54876ZM18.5568 9.06263C17.0693 8.0073 15.4026 7.23072 13.6377 6.77066L13.7638 6.28683C15.5873 6.76215 17.3093 7.56449 18.8461 8.65484L18.5568 9.06263ZM6.9667 13.4366C7.42924 15.2017 8.20843 16.8682 9.26639 18.355L8.859 18.6449C7.76595 17.1088 6.96091 15.387 6.48303 13.5633L6.9667 13.4366ZM9.0627 18.7499L4.74959 18.7499L4.74959 18.2499L9.0627 18.2499L9.0627 18.7499ZM4.51748 18.5928L2.5172 13.5928L2.98143 13.4071L4.98171 18.4071L4.51748 18.5928ZM2.74931 13.25L6.72487 13.25L6.72487 13.75L2.74931 13.75L2.74931 13.25ZM9.58417 7.00876L10.2855 7.03376L10.2677 7.53345L9.56635 7.50845L9.58417 7.00876ZM10.2851 7.03375C11.0002 7.05792 11.7101 7.13553 12.4135 7.26525L12.3228 7.75696C11.6435 7.63168 10.9582 7.55679 10.2682 7.53346L10.2851 7.03375ZM12.4137 7.26528C20.093 8.68745 25.215 15.9547 24.0318 23.6204L23.5377 23.5441C24.6798 16.1449 19.7354 9.12974 12.3226 7.75692L12.4137 7.26528ZM23.8229 23.8293C23.2631 23.9158 22.6981 23.9693 22.1304 23.9884L22.1136 23.4886C22.6611 23.4702 23.2062 23.4187 23.7466 23.3352L23.8229 23.8293ZM22.1306 23.9883C14.1778 24.2631 7.50742 18.0376 7.23262 10.0847L7.73232 10.0675C7.99759 17.7444 14.4365 23.7539 22.1134 23.4886L22.1306 23.9883ZM7.23261 10.0845L7.20886 9.3833L7.70857 9.36638L7.73232 10.0676L7.23261 10.0845ZM7.28195 9.19805L9.3985 7.08181L9.75202 7.43539L7.63548 9.55163L7.28195 9.19805ZM16.2011 12.4998C14.2678 12.4998 12.7006 14.0668 12.7006 15.9998L12.2006 15.9998C12.2006 13.7906 13.9917 11.9998 16.2011 11.9998L16.2011 12.4998ZM12.7006 15.9998C12.7006 17.9327 14.2678 19.4998 16.2011 19.4998L16.2011 19.9998C13.9917 19.9998 12.2006 18.209 12.2006 15.9998L12.7006 15.9998ZM16.2011 19.4998C18.1344 19.4998 19.7017 17.9327 19.7017 15.9998L20.2017 15.9998C20.2017 18.209 18.4105 19.9998 16.2011 19.9998L16.2011 19.4998ZM19.7017 15.9998C19.7017 14.0668 18.1344 12.4998 16.2011 12.4998L16.2011 11.9998C18.4105 11.9998 20.2017 13.7906 20.2017 15.9998L19.7017 15.9998ZM16.2011 13.25C17.72 13.25 18.9515 14.4811 18.9515 15.9999L18.4515 15.9999C18.4515 14.7573 17.444 13.75 16.2011 13.75L16.2011 13.25ZM18.9515 15.9999C18.9515 17.5187 17.72 18.7499 16.2011 18.7499L16.2011 18.2499C17.444 18.2499 18.4515 17.2425 18.4515 15.9999L18.9515 15.9999ZM16.2011 18.7499C14.6822 18.7499 13.4508 17.5187 13.4508 15.9999L13.9508 15.9999C13.9508 17.2425 14.9582 18.2499 16.2011 18.2499L16.2011 18.7499ZM13.4508 15.9999C13.4508 14.4811 14.6822 13.25 16.2011 13.25L16.2011 13.75C14.9582 13.75 13.9508 14.7573 13.9508 15.9999L13.4508 15.9999Z" fill="#F28B74"/>
<path d="M6.82486 3.49984L6.82491 3.74984L6.82486 3.74984L6.82486 3.49984ZM3.69943 4.12484L3.94943 4.12484L3.69943 4.12484ZM3.69943 6.62482L3.94943 6.62482L3.94943 6.62487L3.69943 6.62482ZM6.21853 9.69105L6.26702 9.4458L6.46144 9.48424L6.46838 9.68231L6.21853 9.69105ZM6.23353 10.1198L6.48338 10.1111L6.48338 10.1112L6.23353 10.1198ZM6.45481 12.2498L6.70109 12.2068L6.75221 12.4998L6.45481 12.4998L6.45481 12.2498ZM1.82416 12.2498L1.82411 11.9998L1.82416 11.9998L1.82416 12.2498ZM1.24408 13.1073L1.47614 13.0143L1.4762 13.0144L1.24408 13.1073ZM3.74443 19.3572L3.51238 19.4502L3.51232 19.4501L3.74443 19.3572ZM4.32451 19.7497L4.32451 19.9997L4.32446 19.9997L4.32451 19.7497ZM9.9503 19.7497L9.9503 19.9997L9.9503 19.7497ZM10.0441 19.7422L10.0046 19.4954L10.1412 19.4735L10.2323 19.5777L10.0441 19.7422ZM24.4398 24.7397L24.4857 24.9855L24.4856 24.9855L24.4398 24.7397ZM24.9399 24.2385L24.694 24.1932L24.6941 24.1928L24.9399 24.2385ZM19.9442 9.84105L19.7795 10.0291L19.676 9.93848L19.6972 9.80251L19.9442 9.84105ZM19.9517 9.7498L20.2017 9.7498L20.2017 9.75212L19.9517 9.7498ZM19.9517 4.12484L20.2017 4.12478L20.2017 4.12484L19.9517 4.12484ZM19.5591 3.54484L19.652 3.31272L19.6521 3.31278L19.5591 3.54484ZM13.3083 1.04486L13.2154 1.27698L13.2153 1.27692L13.3083 1.04486ZM12.4506 1.62485L12.2006 1.62485L12.2006 1.62479L12.4506 1.62485ZM12.4506 6.25607L12.7006 6.25607L12.7006 6.55386L12.4074 6.50229L12.4506 6.25607ZM10.3204 6.03357L10.3291 5.78373L10.3291 5.78373L10.3204 6.03357ZM9.89154 6.01857L9.8828 6.26842L9.68474 6.26149L9.64629 6.06708L9.89154 6.01857ZM6.58107 8.48373L6.75784 8.66052L6.67072 8.74762L6.54858 8.73161L6.58107 8.48373ZM4.9496 6.62499L4.6996 6.62504L4.6996 6.62499L4.9496 6.62499ZM4.9496 4.75001L4.6996 4.75001L4.6996 4.50001L4.9496 4.50001L4.9496 4.75001ZM6.82486 4.75001L6.82486 4.50001L6.8249 4.50001L6.82486 4.75001ZM13.7008 2.54877L13.4508 2.54877L13.4508 2.17954L13.7936 2.31665L13.7008 2.54877ZM18.7015 4.54876L18.7943 4.31664L18.9515 4.37949L18.9515 4.54876L18.7015 4.54876ZM18.7015 8.85873L18.9515 8.85873L18.9515 9.34263L18.5568 9.06263L18.7015 8.85873ZM13.7008 6.52875L13.6377 6.77066L13.4508 6.72194L13.4508 6.52875L13.7008 6.52875ZM6.72487 13.5L6.72487 13.25L6.9178 13.25L6.9667 13.4366L6.72487 13.5ZM9.0627 18.4999L9.26639 18.355L9.54742 18.7499L9.0627 18.7499L9.0627 18.4999ZM4.74959 18.4999L4.74959 18.7499L4.58034 18.7499L4.51748 18.5928L4.74959 18.4999ZM2.74931 13.5L2.5172 13.5928L2.38004 13.25L2.74931 13.25L2.74931 13.5ZM10.2766 7.2836L10.2682 7.53346L10.2677 7.53345L10.2766 7.2836ZM12.3682 7.5111L12.4135 7.26525L12.4137 7.26528L12.3682 7.5111ZM23.7847 23.5822L24.0318 23.6204L24.0039 23.8013L23.8229 23.8293L23.7847 23.5822ZM22.122 23.7385L22.1134 23.4886L22.1136 23.4886L22.122 23.7385ZM7.48247 10.0761L7.23262 10.0847L7.23261 10.0845L7.48247 10.0761ZM7.45871 9.37484L7.20886 9.3833L7.20518 9.27481L7.28195 9.19805L7.45871 9.37484ZM16.2011 12.2498L16.2011 11.9998L16.2011 12.2498ZM16.2011 19.7498L16.2011 19.9998L16.2011 19.7498ZM9.64629 6.06708C9.3799 4.72019 8.19815 3.74957 6.82491 3.74984L6.82481 3.24984C8.43678 3.24952 9.82406 4.38889 10.1368 5.97007L9.64629 6.06708ZM6.82486 3.74984L4.32451 3.74984L4.32451 3.24984L6.82486 3.24984L6.82486 3.74984ZM4.32451 3.74984C4.11732 3.74984 3.94943 3.91777 3.94943 4.12484L3.44943 4.12484C3.44943 3.64155 3.84125 3.24984 4.32451 3.24984L4.32451 3.74984ZM3.94943 4.12484L3.94943 6.62482L3.44943 6.62482L3.44943 4.12484L3.94943 4.12484ZM3.94943 6.62487C3.94915 7.99784 4.91988 9.17943 6.26702 9.4458L6.17003 9.9363C4.58868 9.62362 3.44911 8.23658 3.44943 6.62477L3.94943 6.62487ZM6.46838 9.68231L6.48338 10.1111L5.98368 10.1285L5.96868 9.69979L6.46838 9.68231ZM6.48338 10.1112C6.50798 10.8245 6.58179 11.5231 6.70109 12.2068L6.20853 12.2928C6.0853 11.5865 6.00908 10.865 5.98368 10.1284L6.48338 10.1112ZM6.45481 12.4998L1.82416 12.4998L1.82416 11.9998L6.45481 11.9998L6.45481 12.4998ZM1.82422 12.4998C1.69971 12.4998 1.58335 12.5616 1.51361 12.6647L1.09947 12.3845C1.2622 12.144 1.53368 11.9999 1.82411 11.9998L1.82422 12.4998ZM1.51361 12.6647C1.44387 12.7678 1.42983 12.8987 1.47614 13.0143L1.01203 13.2003C0.903976 12.9307 0.936738 12.6251 1.09947 12.3845L1.51361 12.6647ZM1.4762 13.0144L3.97655 19.2644L3.51232 19.4501L1.01197 13.2001L1.4762 13.0144ZM3.97649 19.2642C4.03349 19.4064 4.1713 19.4997 4.32457 19.4997L4.32446 19.9997C3.96693 19.9997 3.64539 19.7821 3.51238 19.4502L3.97649 19.2642ZM4.32451 19.4997L9.9503 19.4997L9.9503 19.9997L4.32451 19.9997L4.32451 19.4997ZM9.9503 19.4997C9.96816 19.4997 9.98621 19.4983 10.0046 19.4954L10.0836 19.9891C10.0394 19.9962 9.99495 19.9997 9.9503 19.9997L9.9503 19.4997ZM10.2323 19.5777C13.752 23.6039 19.1362 25.4731 24.3941 24.4939L24.4856 24.9855C19.054 25.997 13.4919 24.0661 9.85584 19.9068L10.2323 19.5777ZM24.394 24.4939C24.5466 24.4655 24.6659 24.3459 24.694 24.1932L25.1858 24.2837C25.1202 24.64 24.8418 24.919 24.4857 24.9855L24.394 24.4939ZM24.6941 24.1928C25.6708 18.9352 23.803 13.5523 19.7795 10.0291L20.1089 9.65296C24.2651 13.2924 26.1946 18.853 25.1857 24.2841L24.6941 24.1928ZM19.6972 9.80251C19.7 9.7843 19.7015 9.76591 19.7017 9.74748L20.2017 9.75212C20.2013 9.7948 20.1978 9.8374 20.1912 9.87958L19.6972 9.80251ZM19.7017 9.7498L19.7017 4.12484L20.2017 4.12484L20.2017 9.7498L19.7017 9.7498ZM19.7017 4.1249C19.7017 3.9717 19.6084 3.83391 19.4662 3.77691L19.6521 3.31278C19.984 3.44576 20.2016 3.76725 20.2017 4.12478L19.7017 4.1249ZM19.4663 3.77697L13.2154 1.27698L13.4011 0.812735L19.652 3.31272L19.4663 3.77697ZM13.2153 1.27692C13.0997 1.23061 12.9687 1.24465 12.8656 1.31439L12.5855 0.900215C12.826 0.737518 13.1317 0.704771 13.4013 0.812796L13.2153 1.27692ZM12.8656 1.31439C12.7625 1.38413 12.7007 1.50047 12.7006 1.62491L12.2006 1.62479C12.2007 1.33437 12.3449 1.06291 12.5855 0.900215L12.8656 1.31439ZM12.7006 1.62485L12.7006 6.25607L12.2006 6.25607L12.2006 1.62485L12.7006 1.62485ZM12.4074 6.50229C11.7152 6.38059 11.0141 6.30802 10.3116 6.28342L10.3291 5.78373C11.0543 5.80912 11.7784 5.88405 12.4939 6.00985L12.4074 6.50229ZM10.3116 6.28342L9.8828 6.26842L9.90028 5.76873L10.3291 5.78373L10.3116 6.28342ZM8.86063 6.55804L6.75784 8.66052L6.40431 8.30694L8.5071 6.20446L8.86063 6.55804ZM6.54858 8.73161C5.49085 8.59295 4.69979 7.69174 4.6996 6.62504L5.1996 6.62495C5.19974 7.44061 5.80464 8.12981 6.61357 8.23585L6.54858 8.73161ZM4.6996 6.62499L4.6996 4.75001L5.1996 4.75001L5.1996 6.62499L4.6996 6.62499ZM4.9496 4.50001L6.82486 4.50001L6.82486 5.00001L4.9496 5.00001L4.9496 4.50001ZM6.8249 4.50001C7.89168 4.5002 8.79305 5.2911 8.93175 6.34874L8.43599 6.41375C8.32994 5.60501 7.64067 5.00016 6.82481 5.00001L6.8249 4.50001ZM13.4508 6.52875L13.4508 2.54877L13.9508 2.54877L13.9508 6.52875L13.4508 6.52875ZM13.7936 2.31665L18.7943 4.31664L18.6086 4.78089L13.6079 2.7809L13.7936 2.31665ZM18.9515 4.54876L18.9515 8.85873L18.4515 8.85873L18.4515 4.54876L18.9515 4.54876ZM18.5568 9.06263C17.0693 8.0073 15.4026 7.23072 13.6377 6.77066L13.7638 6.28683C15.5873 6.76215 17.3093 7.56449 18.8461 8.65484L18.5568 9.06263ZM6.9667 13.4366C7.42924 15.2017 8.20843 16.8682 9.26639 18.355L8.859 18.6449C7.76595 17.1088 6.96091 15.387 6.48303 13.5633L6.9667 13.4366ZM9.0627 18.7499L4.74959 18.7499L4.74959 18.2499L9.0627 18.2499L9.0627 18.7499ZM4.51748 18.5928L2.5172 13.5928L2.98143 13.4071L4.98171 18.4071L4.51748 18.5928ZM2.74931 13.25L6.72487 13.25L6.72487 13.75L2.74931 13.75L2.74931 13.25ZM9.58417 7.00876L10.2855 7.03376L10.2677 7.53345L9.56635 7.50845L9.58417 7.00876ZM10.2851 7.03375C11.0002 7.05792 11.7101 7.13553 12.4135 7.26525L12.3228 7.75696C11.6435 7.63168 10.9582 7.55679 10.2682 7.53346L10.2851 7.03375ZM12.4137 7.26528C20.093 8.68745 25.215 15.9547 24.0318 23.6204L23.5377 23.5441C24.6798 16.1449 19.7354 9.12974 12.3226 7.75692L12.4137 7.26528ZM23.8229 23.8293C23.2631 23.9158 22.6981 23.9693 22.1304 23.9884L22.1136 23.4886C22.6611 23.4702 23.2062 23.4187 23.7466 23.3352L23.8229 23.8293ZM22.1306 23.9883C14.1778 24.2631 7.50742 18.0376 7.23262 10.0847L7.73232 10.0675C7.99759 17.7444 14.4365 23.7539 22.1134 23.4886L22.1306 23.9883ZM7.23261 10.0845L7.20886 9.3833L7.70857 9.36638L7.73232 10.0676L7.23261 10.0845ZM7.28195 9.19805L9.3985 7.08181L9.75202 7.43539L7.63548 9.55163L7.28195 9.19805ZM16.2011 12.4998C14.2678 12.4998 12.7006 14.0668 12.7006 15.9998L12.2006 15.9998C12.2006 13.7906 13.9917 11.9998 16.2011 11.9998L16.2011 12.4998ZM12.7006 15.9998C12.7006 17.9327 14.2678 19.4998 16.2011 19.4998L16.2011 19.9998C13.9917 19.9998 12.2006 18.209 12.2006 15.9998L12.7006 15.9998ZM16.2011 19.4998C18.1344 19.4998 19.7017 17.9327 19.7017 15.9998L20.2017 15.9998C20.2017 18.209 18.4105 19.9998 16.2011 19.9998L16.2011 19.4998ZM19.7017 15.9998C19.7017 14.0668 18.1344 12.4998 16.2011 12.4998L16.2011 11.9998C18.4105 11.9998 20.2017 13.7906 20.2017 15.9998L19.7017 15.9998ZM16.2011 13.25C17.72 13.25 18.9515 14.4811 18.9515 15.9999L18.4515 15.9999C18.4515 14.7573 17.444 13.75 16.2011 13.75L16.2011 13.25ZM18.9515 15.9999C18.9515 17.5187 17.72 18.7499 16.2011 18.7499L16.2011 18.2499C17.444 18.2499 18.4515 17.2425 18.4515 15.9999L18.9515 15.9999ZM16.2011 18.7499C14.6822 18.7499 13.4508 17.5187 13.4508 15.9999L13.9508 15.9999C13.9508 17.2425 14.9582 18.2499 16.2011 18.2499L16.2011 18.7499ZM13.4508 15.9999C13.4508 14.4811 14.6822 13.25 16.2011 13.25L16.2011 13.75C14.9582 13.75 13.9508 14.7573 13.9508 15.9999L13.4508 15.9999Z" fill="white" fill-opacity="0.2"/>
</svg>
